{"glyphs":{"0":{"ha":694,"x_min":47,"x_max":660,"o":"m 276 -11 q 200 -3 238 -11 q 133 26 163 6 q 84 78 103 47 q 56 146 65 110 q 49 221 47 182 q 56 299 50 260 l 133 764 q 150 835 139 800 q 181 901 161 869 q 229 958 201 932 q 290 1001 257 985 q 360 1025 324 1018 q 431 1032 396 1032 q 507 1024 469 1032 q 574 994 544 1015 q 623 942 604 974 q 651 875 642 911 q 658 800 660 839 q 651 722 657 761 l 574 257 q 557 186 568 221 q 526 120 546 151 q 478 63 506 89 q 417 19 450 36 q 347 -4 383 3 q 276 -11 311 -11 m 125 382 l 593 710 l 597 731 q 603 792 601 761 q 599 851 604 822 q 579 906 593 881 q 542 949 565 931 q 491 974 519 967 q 431 981 463 981 q 372 975 403 981 q 315 955 342 969 q 265 918 288 940 q 226 869 242 896 q 201 814 211 843 q 188 756 192 785 l 125 382 m 278 40 q 335 46 306 40 q 392 66 365 51 q 442 103 419 81 q 481 151 465 125 q 506 207 496 178 q 519 265 515 236 l 582 639 l 114 311 l 110 290 q 104 229 106 260 q 108 169 103 199 q 128 115 114 140 q 165 72 142 90 q 217 47 188 54 q 278 40 246 40 z "},"1":{"ha":694,"x_min":146,"x_max":508,"o":"m 283 0 l 442 956 l 174 794 l 147 838 l 451 1021 l 507 1021 l 339 0 l 283 0 z "},"2":{"ha":694,"x_min":17,"x_max":658,"o":"m 18 0 l 18 1 q 33 79 25 40 q 55 156 40 118 q 90 231 69 194 q 137 299 110 267 q 195 359 164 331 q 261 412 226 388 q 332 458 296 436 q 403 501 368 479 q 472 550 439 524 q 530 609 504 576 q 572 680 556 642 q 596 757 589 718 q 601 815 600 786 q 594 869 601 843 q 572 918 586 896 q 535 955 558 940 q 485 975 513 969 q 431 981 458 981 q 351 969 392 981 q 278 930 311 957 q 226 865 246 903 q 201 789 207 828 l 200 785 l 144 785 l 146 789 q 164 854 151 822 q 196 915 176 886 q 243 968 215 944 q 303 1006 271 992 q 368 1026 335 1021 q 435 1032 401 1032 q 506 1025 471 1032 q 569 1000 540 1018 q 619 953 599 982 q 648 892 639 925 q 656 822 657 858 q 650 749 656 786 q 625 663 643 706 q 578 583 607 619 q 511 515 549 546 q 435 460 474 485 q 355 410 396 435 q 276 358 314 386 q 205 294 238 329 q 147 220 172 260 q 106 138 121 181 q 83 51 92 94 l 529 51 l 521 0 l 18 0 z "},"3":{"ha":694,"x_min":35,"x_max":654,"o":"m 278 -11 q 210 -6 243 -11 q 148 12 178 -1 q 94 47 118 25 q 57 97 71 68 q 40 160 43 126 q 42 228 36 193 l 43 236 l 99 236 l 97 229 q 101 150 90 189 q 138 85 111 111 q 204 50 165 60 q 283 40 243 40 q 369 53 325 40 q 447 97 413 67 q 501 167 481 126 q 529 251 522 208 q 533 321 535 286 q 519 387 531 356 q 488 443 508 418 q 437 483 467 468 q 372 502 407 499 q 303 506 338 506 l 311 557 q 374 560 342 557 q 435 574 406 563 q 493 605 465 585 q 542 652 521 625 q 575 709 563 679 q 593 771 588 739 q 594 851 599 811 q 567 921 589 890 q 510 966 546 951 q 433 981 474 981 q 356 968 394 981 q 285 928 317 956 q 236 863 254 900 q 213 788 218 826 l 211 785 l 156 785 l 157 789 q 174 853 163 821 q 205 913 186 885 q 251 966 224 942 q 308 1005 278 990 q 372 1026 339 1019 q 438 1032 406 1032 q 505 1025 472 1032 q 565 1001 538 1018 q 613 957 593 983 q 641 899 632 931 q 651 834 650 868 q 647 765 653 800 q 625 690 640 726 q 583 621 610 653 q 522 566 557 589 q 449 531 486 543 q 519 486 489 517 q 567 417 550 456 q 587 333 583 378 q 583 243 590 289 q 565 174 578 208 q 530 110 551 140 q 479 55 508 79 q 417 15 450 31 q 348 -6 383 0 q 278 -11 313 -11 z "},"4":{"ha":694,"x_min":53,"x_max":590,"o":"m 360 0 l 407 288 l 54 288 l 63 338 l 525 1021 l 589 1021 l 126 338 l 415 338 l 465 639 l 522 639 l 472 338 l 576 338 l 568 288 l 464 288 l 417 0 l 360 0 z "},"5":{"ha":694,"x_min":47,"x_max":665,"o":"m 276 -11 q 210 -6 243 -11 q 149 15 178 0 q 99 53 121 29 q 66 106 78 76 q 51 169 54 136 q 54 236 49 203 l 110 236 q 110 158 103 196 q 142 92 118 119 q 204 52 167 64 q 282 40 242 40 q 347 50 314 40 q 407 81 379 60 q 456 129 435 101 q 491 188 476 157 q 514 251 506 219 q 528 315 522 283 q 535 383 533 349 q 534 449 538 417 q 519 513 531 482 q 488 567 508 543 q 438 602 468 590 q 374 614 407 614 q 306 606 340 614 q 240 579 271 599 q 189 529 210 560 q 160 465 168 499 l 104 465 l 196 1021 l 664 1021 l 656 969 l 243 969 l 182 597 q 226 628 201 615 q 275 650 250 642 q 326 661 300 658 q 378 664 351 664 q 458 652 419 664 q 524 613 496 640 q 567 549 551 586 q 588 473 583 513 q 591 392 593 433 q 582 308 589 350 q 566 231 576 269 q 537 156 556 193 q 491 87 518 119 q 429 31 464 54 q 355 -1 394 8 q 276 -11 315 -11 z "},"6":{"ha":694,"x_min":47,"x_max":588,"o":"m 276 -11 q 199 -1 236 -11 q 131 31 161 8 q 83 86 101 53 q 57 157 65 119 q 50 235 49 194 q 58 315 51 275 q 95 447 69 382 q 157 574 121 513 q 234 695 193 636 q 315 814 275 754 l 460 1021 l 525 1021 l 360 785 q 272 656 317 721 q 190 524 226 592 q 231 558 208 543 q 278 581 254 572 q 326 594 301 590 q 376 599 351 599 q 451 588 415 599 q 515 553 488 576 q 559 496 543 529 q 581 426 575 463 q 585 350 586 389 q 576 272 583 311 q 560 200 571 236 q 529 131 549 164 q 482 70 510 99 q 420 23 454 42 q 349 -3 386 4 q 276 -11 313 -11 m 278 40 q 338 47 307 40 q 396 69 368 53 q 446 110 424 86 q 483 163 468 135 q 508 220 499 190 q 522 279 518 250 l 522 281 q 529 344 528 313 q 526 406 531 376 q 508 463 521 436 q 472 510 494 490 q 420 539 450 531 q 358 547 390 547 q 280 535 319 547 q 208 495 240 522 q 156 431 176 468 q 124 356 135 394 l 124 353 l 121 350 q 117 328 119 339 q 113 307 115 318 q 106 243 107 275 q 110 181 106 211 q 128 123 115 150 q 163 76 140 96 q 216 49 186 57 q 278 40 246 40 z "},"7":{"ha":694,"x_min":139,"x_max":690,"o":"m 201 0 l 140 0 l 619 969 l 178 969 l 186 1021 l 689 1021 l 681 969 l 201 0 z "},"8":{"ha":694,"x_min":40,"x_max":647,"o":"m 276 -11 q 208 -6 242 -11 q 145 15 175 0 q 93 53 115 29 q 59 106 71 76 q 44 170 47 136 q 46 239 40 204 q 79 331 54 286 q 141 413 104 376 q 222 476 178 449 q 308 526 265 503 q 248 585 278 554 q 197 654 218 617 q 166 736 175 692 q 164 826 157 781 q 196 913 172 871 q 258 982 219 954 q 342 1021 296 1010 q 431 1032 388 1032 q 495 1026 464 1032 q 553 1006 526 1021 q 600 969 581 992 q 631 917 619 946 q 644 856 642 888 q 642 790 647 824 q 613 705 635 747 q 557 628 590 663 q 485 566 524 593 q 403 517 446 539 q 471 456 439 488 q 527 385 503 424 q 563 299 551 346 q 565 204 574 253 q 547 142 560 172 q 512 85 533 111 q 462 40 490 58 q 402 9 433 21 q 339 -7 371 -3 q 276 -11 307 -11 m 361 553 q 436 596 399 572 q 505 650 474 619 q 558 719 536 681 q 588 797 581 757 q 587 869 593 833 q 558 932 581 906 q 502 969 536 958 q 431 981 468 981 q 360 972 396 981 q 294 942 325 964 q 243 886 263 919 q 218 818 224 853 q 222 737 211 776 q 254 665 233 697 q 303 605 275 632 q 361 553 331 578 m 278 40 q 354 49 315 40 q 426 80 393 57 q 482 138 460 103 q 511 213 504 174 q 506 299 518 257 q 469 374 493 340 q 415 436 446 408 q 353 490 385 464 l 351 490 q 269 446 311 469 q 192 390 228 422 q 133 317 157 358 q 101 233 108 276 q 103 155 94 193 q 137 90 113 117 q 199 51 161 63 q 278 40 238 40 z "},"9":{"ha":694,"x_min":121,"x_max":660,"o":"m 182 0 l 347 236 q 435 365 390 300 q 517 497 481 429 q 476 463 499 478 q 429 440 453 449 q 381 426 406 431 q 331 422 356 422 q 256 433 292 422 q 192 468 219 444 q 148 525 164 492 q 126 595 132 558 q 122 671 121 632 q 131 749 124 710 q 147 821 136 785 q 178 890 158 857 q 225 951 197 922 q 287 998 253 979 q 358 1024 321 1017 q 431 1032 394 1032 q 508 1022 471 1032 q 576 990 546 1013 q 624 935 606 968 q 650 864 642 901 q 657 786 658 826 q 649 706 656 746 q 612 574 638 639 q 551 447 586 508 q 474 326 515 385 q 392 207 432 267 l 247 0 l 182 0 m 349 474 q 427 486 388 474 q 499 526 467 499 q 552 590 532 553 q 583 665 572 626 l 583 668 l 586 671 q 590 692 588 682 q 594 714 592 703 q 601 778 600 746 q 597 840 601 810 q 580 898 593 871 q 544 944 567 925 q 492 972 522 964 q 431 981 463 981 q 370 974 401 981 q 311 951 339 968 q 261 910 283 935 q 224 858 239 886 q 199 801 208 831 q 185 742 190 771 l 185 740 q 178 676 179 708 q 182 615 178 644 q 199 558 186 585 q 235 510 213 531 q 287 482 257 490 q 349 474 317 474 z "},"\r":{"ha":0,"x_min":0,"x_max":0,"o":""}," ":{"ha":694,"x_min":0,"x_max":0,"o":""},"!":{"ha":694,"x_min":211,"x_max":467,"o":"m 301 361 l 410 1021 l 465 1021 l 357 361 l 301 361 m 278 -11 q 248 -6 263 -11 q 225 12 233 0 q 214 40 217 24 q 214 71 211 56 q 221 92 215 82 q 235 108 226 101 q 256 118 244 115 q 278 121 267 121 q 308 115 293 121 q 332 98 324 110 q 342 70 340 86 q 342 39 344 54 q 335 17 340 28 q 321 1 331 7 q 300 -8 311 -6 q 278 -11 289 -11 z "},"\"":{"ha":694,"x_min":204,"x_max":617,"o":"m 206 614 q 240 842 221 728 q 278 1072 258 957 l 339 1072 q 299 842 319 957 q 258 614 279 728 l 206 614 m 483 614 q 517 842 499 728 q 556 1072 536 957 l 617 1072 q 577 842 597 957 q 536 614 557 728 l 483 614 z "},"#":{"ha":694,"x_min":40,"x_max":667,"o":"m 131 25 l 174 292 l 40 292 l 49 342 l 182 342 l 239 679 l 106 679 l 114 729 l 247 729 l 290 996 l 344 996 l 301 729 l 479 729 l 522 996 l 576 996 l 533 729 l 667 729 l 658 679 l 525 679 l 468 342 l 601 342 l 593 292 l 460 292 l 417 25 l 363 25 l 406 292 l 228 292 l 185 25 l 131 25 m 414 342 l 471 679 l 293 679 l 236 342 l 414 342 z "},"$":{"ha":694,"x_min":42,"x_max":656,"o":"m 217 -149 l 249 40 q 160 60 203 44 q 90 108 118 75 q 51 185 61 140 q 49 275 42 229 l 51 288 l 107 288 l 106 278 q 107 207 100 242 q 135 147 114 172 q 189 108 157 121 q 258 92 221 94 l 325 496 q 249 540 285 515 q 186 599 213 565 q 149 678 160 633 q 144 769 138 722 q 176 853 153 813 q 235 923 199 894 q 316 965 272 951 q 404 981 360 979 l 435 1171 l 490 1171 l 460 981 q 544 960 503 976 q 611 911 585 943 q 646 835 638 879 q 647 746 654 792 l 644 733 l 589 733 l 590 743 q 591 812 596 778 q 566 872 586 846 q 515 913 546 899 q 449 929 485 926 l 383 531 q 463 486 425 511 q 528 426 501 461 q 569 347 556 392 q 574 253 582 301 q 542 167 567 208 q 478 97 517 125 q 394 55 439 68 q 304 40 349 42 l 272 -149 l 217 -149 m 335 556 l 396 929 q 328 915 363 926 q 267 881 294 904 q 222 826 240 858 q 199 761 204 794 q 201 693 193 726 q 230 633 210 660 q 277 588 250 607 q 335 556 304 569 m 311 92 q 381 104 346 93 q 445 138 415 115 q 494 193 475 161 q 519 260 514 225 q 515 331 525 297 q 485 392 506 365 q 435 437 464 418 q 374 471 406 456 l 311 92 z "},"%":{"ha":694,"x_min":-31,"x_max":739,"o":"m 211 500 q 147 508 178 500 q 94 538 115 517 q 68 592 74 560 q 68 657 63 624 l 107 896 q 128 953 113 925 q 168 999 143 981 q 223 1025 193 1018 q 282 1032 253 1032 q 346 1024 315 1032 q 397 993 376 1015 q 424 939 418 971 q 425 875 431 907 l 385 635 q 365 578 381 606 q 325 532 350 550 q 270 507 300 514 q 211 500 240 500 m 419 599 l 675 1021 l 738 1021 l 481 599 l 419 599 m 211 549 q 251 553 231 549 q 290 572 272 558 q 318 604 307 585 q 332 643 329 624 l 372 883 q 372 924 375 904 q 355 958 368 944 q 322 978 342 972 q 282 983 303 983 q 240 978 261 983 q 202 960 219 972 q 174 928 185 947 q 160 888 164 908 l 121 649 q 122 608 118 628 q 138 574 125 588 q 170 554 150 560 q 211 549 190 549 m 425 -11 q 361 -3 392 -11 q 310 28 331 6 q 283 82 289 50 q 282 146 276 114 l 322 386 q 342 443 326 415 q 382 489 357 471 q 437 514 407 507 q 496 521 467 521 q 560 513 529 521 q 613 483 592 504 q 639 429 633 461 q 639 364 644 397 l 600 125 q 580 68 594 96 q 540 22 565 40 q 484 -4 514 3 q 425 -11 454 -11 m 425 38 q 467 43 446 38 q 506 61 489 49 q 533 93 522 74 q 547 133 543 113 l 586 372 q 586 413 590 393 q 569 447 582 433 q 537 467 557 461 q 496 472 517 472 q 456 467 476 472 q 417 449 435 463 q 389 417 400 436 q 375 378 378 397 l 335 138 q 335 97 332 117 q 353 63 339 76 q 385 43 367 49 q 425 38 404 38 m 32 0 l -29 0 l 226 422 l 288 422 l 32 0 z "},"&":{"ha":694,"x_min":43,"x_max":644,"o":"m 246 -11 q 178 -3 211 -11 q 121 25 146 6 q 79 72 96 44 q 55 133 63 100 q 46 199 47 165 q 50 268 44 233 q 77 352 57 311 q 126 429 97 393 q 192 495 156 465 q 267 551 229 525 q 233 619 250 585 q 203 691 217 654 q 183 767 189 728 q 183 849 176 807 q 206 920 189 885 q 253 982 224 956 q 319 1020 282 1008 q 393 1032 357 1032 q 447 1026 421 1032 q 495 1005 474 1019 q 530 968 517 990 q 550 920 543 946 q 558 867 557 894 q 554 811 560 839 q 527 728 547 769 q 476 652 507 688 q 409 588 446 617 q 335 535 372 560 q 347 509 342 522 q 358 483 353 496 l 479 217 q 481 222 479 219 q 485 228 483 225 l 582 408 l 643 408 l 532 204 q 519 180 526 192 q 504 157 513 168 l 575 0 l 515 0 q 492 53 504 26 q 468 106 479 79 q 454 90 461 97 q 440 74 447 82 q 398 38 421 54 q 350 11 375 22 q 298 -6 325 0 q 246 -11 271 -11 m 313 582 q 376 628 346 604 q 433 683 407 653 q 477 747 460 713 q 500 818 494 782 q 503 877 506 847 q 487 931 500 907 q 448 969 474 956 q 393 982 422 982 q 337 972 365 982 q 287 942 308 963 q 253 894 265 921 q 238 839 242 867 q 237 769 231 803 q 255 703 243 735 q 283 641 267 671 q 313 582 299 611 m 256 39 q 311 49 283 39 q 363 75 339 58 q 408 113 388 92 q 444 160 428 135 l 308 463 q 299 483 304 474 q 290 503 294 493 q 226 456 257 481 q 171 400 196 431 q 128 334 146 369 q 104 261 110 299 q 101 208 100 235 q 107 155 101 181 q 126 107 113 129 q 158 69 139 85 q 203 46 178 53 q 256 39 228 39 z "},"'":{"ha":694,"x_min":343,"x_max":478,"o":"m 344 614 q 378 842 360 728 q 417 1072 397 957 l 478 1072 q 438 842 458 957 q 397 614 418 728 l 344 614 z "},"(":{"ha":694,"x_min":154,"x_max":671,"o":"m 414 -224 q 315 -144 360 -190 q 239 -44 271 -99 q 188 73 207 11 q 162 201 169 135 q 158 335 154 267 q 174 472 163 404 q 204 609 185 540 q 252 744 224 678 q 320 872 281 810 q 410 988 360 933 q 519 1089 460 1043 q 644 1168 579 1135 l 671 1124 q 552 1048 608 1092 q 449 952 496 1004 q 366 841 403 900 q 302 719 329 782 q 258 593 275 657 q 229 464 240 529 q 215 338 219 401 q 216 214 210 275 q 239 95 222 153 q 285 -13 256 38 q 354 -106 314 -64 q 443 -181 394 -149 l 414 -224 z "},")":{"ha":694,"x_min":24,"x_max":540,"o":"m 50 -224 l 24 -179 q 142 -103 86 -147 q 245 -8 199 -60 q 328 103 292 44 q 392 225 365 163 q 437 351 419 288 q 465 481 454 415 q 480 606 475 543 q 478 731 485 669 q 456 849 472 792 q 410 958 439 907 q 340 1051 381 1008 q 251 1125 300 1093 l 281 1168 q 379 1089 335 1135 q 456 988 424 1043 q 506 872 488 933 q 533 744 525 810 q 536 609 540 678 q 521 472 532 540 q 490 335 510 404 q 442 201 471 267 q 374 73 414 135 q 285 -44 335 11 q 175 -144 235 -99 q 50 -224 115 -190 z "},"*":{"ha":694,"x_min":136,"x_max":708,"o":"m 218 589 l 178 622 l 371 832 l 138 908 l 156 956 l 392 871 l 429 1138 l 483 1129 l 438 872 l 693 956 l 708 907 l 442 829 l 564 618 l 517 593 l 404 804 l 218 589 z "},"+":{"ha":694,"x_min":92,"x_max":603,"o":"m 332 211 l 276 211 l 315 447 l 92 447 l 100 497 l 324 497 l 363 733 l 418 733 l 379 497 l 603 497 l 594 447 l 371 447 l 332 211 z "},",":{"ha":694,"x_min":143,"x_max":343,"o":"m 185 -299 l 143 -265 q 228 -144 193 -210 q 278 -11 263 -79 l 267 -11 q 240 -6 253 -11 q 217 8 226 -1 q 203 32 207 18 q 199 60 199 46 q 199 68 199 64 q 200 76 199 72 q 208 99 201 89 q 224 117 214 110 q 246 128 235 125 q 268 131 257 131 q 309 120 290 131 q 335 90 328 110 q 340 47 343 69 q 333 3 338 25 q 281 -155 319 -78 q 185 -299 242 -232 z "},"-":{"ha":694,"x_min":92,"x_max":603,"o":"m 594 447 l 92 447 l 100 497 l 603 497 l 594 447 z "},".":{"ha":694,"x_min":206,"x_max":351,"o":"m 278 -11 q 246 -5 261 -11 q 222 14 231 1 q 210 43 213 26 q 210 76 207 60 q 217 99 211 89 q 234 117 224 110 q 256 128 244 125 q 279 131 267 131 q 312 124 296 131 q 337 106 328 118 q 349 76 346 93 q 349 43 351 60 q 340 19 346 31 q 324 1 335 8 q 302 -8 314 -6 q 278 -11 290 -11 z "},"/":{"ha":694,"x_min":-19,"x_max":714,"o":"m -19 -199 l 656 1143 l 714 1143 l 39 -199 l -19 -199 z "},":":{"ha":694,"x_min":206,"x_max":451,"o":"m 278 -11 q 246 -5 261 -11 q 222 14 231 1 q 210 43 213 26 q 210 76 207 60 q 217 99 211 89 q 234 117 224 110 q 256 128 244 125 q 279 131 267 131 q 312 124 296 131 q 337 106 328 118 q 349 76 346 93 q 349 43 351 60 q 340 19 346 31 q 324 1 335 8 q 302 -8 314 -6 q 278 -11 290 -11 m 378 592 q 346 598 361 592 q 322 617 331 604 q 310 646 313 629 q 310 679 307 663 q 317 703 311 692 q 333 721 324 714 q 355 731 343 728 q 379 733 367 733 q 412 727 396 733 q 437 708 428 721 q 449 679 446 696 q 449 646 451 663 q 440 623 446 633 q 424 605 435 613 q 402 594 414 597 q 378 592 390 592 z "},";":{"ha":694,"x_min":143,"x_max":451,"o":"m 185 -299 l 143 -265 q 228 -144 193 -210 q 278 -11 263 -79 l 267 -11 q 240 -6 253 -11 q 217 8 226 -1 q 203 32 207 18 q 199 60 199 46 q 199 68 199 64 q 200 76 199 72 q 208 99 201 89 q 224 117 214 110 q 246 128 235 125 q 268 131 257 131 q 309 120 290 131 q 335 90 328 110 q 340 47 343 69 q 333 3 338 25 q 281 -155 319 -78 q 185 -299 242 -232 m 378 592 q 346 598 361 592 q 322 617 331 604 q 310 646 313 629 q 310 679 307 663 q 317 703 311 692 q 333 721 324 714 q 355 731 343 728 q 379 733 367 733 q 412 727 396 733 q 437 708 428 721 q 449 679 446 696 q 449 646 451 663 q 440 623 446 633 q 424 605 435 613 q 402 594 414 597 q 378 592 390 592 z "},"<":{"ha":694,"x_min":90,"x_max":664,"o":"m 532 142 l 92 443 l 100 501 l 638 804 l 663 760 l 144 472 l 564 183 l 532 142 z "},"=":{"ha":694,"x_min":71,"x_max":624,"o":"m 614 568 l 111 568 l 119 618 l 622 618 l 614 568 m 72 326 l 81 376 l 583 376 l 575 326 l 72 326 z "},">":{"ha":694,"x_min":31,"x_max":604,"o":"m 57 140 l 32 185 l 550 472 l 131 761 l 163 803 l 603 501 l 594 443 l 57 140 z "},"?":{"ha":694,"x_min":144,"x_max":656,"o":"m 292 307 q 306 374 297 340 q 332 440 314 408 q 374 500 350 472 q 426 553 399 528 q 481 602 454 578 q 532 655 508 626 q 572 716 556 683 q 594 782 589 749 q 594 860 601 822 q 563 927 586 899 q 504 968 540 956 q 428 981 468 981 q 349 969 389 981 q 278 930 310 957 q 226 865 246 903 q 201 790 207 828 l 200 785 l 144 785 l 146 792 q 163 856 151 824 q 195 916 175 888 q 243 968 215 944 q 301 1006 271 992 q 366 1026 332 1021 q 432 1032 400 1032 q 499 1026 467 1032 q 560 1003 532 1019 q 608 963 588 988 q 639 907 628 938 q 652 843 650 876 q 649 775 654 810 q 630 708 643 742 q 597 645 617 675 q 551 589 576 615 q 499 538 526 563 q 444 490 471 514 q 396 436 417 465 q 364 374 375 407 q 347 307 353 340 l 292 307 m 278 -11 q 248 -6 263 -11 q 225 12 233 0 q 214 40 217 24 q 214 71 211 56 q 221 92 215 82 q 235 108 226 101 q 256 118 244 115 q 278 121 267 121 q 308 115 293 121 q 332 98 324 110 q 342 70 340 86 q 342 39 344 54 q 335 17 340 28 q 321 1 331 7 q 300 -8 311 -6 q 278 -11 289 -11 z "},"@":{"ha":694,"x_min":42,"x_max":653,"o":"m 486 -103 l 261 -103 q 188 -94 222 -103 q 124 -65 153 -85 q 76 -14 94 -44 q 50 52 58 17 q 43 126 42 88 q 51 201 44 164 l 147 786 q 163 853 153 819 q 193 918 174 888 q 240 974 213 949 q 299 1017 267 1000 q 365 1040 331 1033 q 433 1047 400 1047 q 504 1040 469 1047 q 566 1013 539 1032 q 613 967 593 994 q 641 906 632 939 q 651 837 650 872 q 647 765 651 801 l 568 292 q 553 231 564 261 q 520 175 542 200 q 467 137 499 150 q 406 124 436 124 q 360 130 382 124 q 322 150 339 136 q 296 184 306 164 q 282 226 286 204 q 280 272 278 249 q 286 318 282 294 l 332 597 q 351 662 338 629 q 390 719 364 694 q 451 754 417 743 q 517 765 485 765 l 593 765 q 597 822 597 793 q 591 877 597 850 q 572 927 585 904 q 537 966 558 950 q 488 989 515 982 q 432 996 461 996 q 376 990 404 996 q 322 970 349 985 q 274 934 296 956 q 237 887 251 913 q 214 833 222 861 q 200 778 206 806 l 104 193 q 97 134 99 164 q 102 76 96 104 q 121 24 108 49 q 154 -19 133 -1 q 203 -44 175 -36 q 263 -51 232 -51 l 486 -51 l 486 -103 m 406 172 q 449 184 428 172 q 485 215 471 196 q 506 256 499 233 q 515 300 513 278 l 585 715 l 517 715 q 469 707 493 715 q 426 680 444 699 q 399 637 408 661 q 385 589 389 613 l 339 310 q 334 264 335 288 q 340 219 333 240 q 365 185 347 199 q 406 172 382 172 z "},"A":{"ha":694,"x_min":-7,"x_max":544,"o":"m -6 0 l 269 681 l 406 1021 l 469 1021 l 544 0 l 486 0 l 464 310 l 178 310 l 53 0 l -6 0 m 460 361 l 438 681 q 430 802 433 742 q 422 922 426 863 q 374 802 399 863 q 326 681 350 742 l 199 361 l 460 361 z "},"B":{"ha":694,"x_min":17,"x_max":638,"o":"m 18 0 l 186 1021 l 403 1021 q 475 1014 439 1021 q 541 990 511 1007 q 592 947 571 974 q 624 888 613 921 q 637 819 636 856 q 631 744 638 782 q 612 675 625 710 q 574 611 599 640 q 518 561 550 582 q 451 529 486 540 q 522 488 490 514 q 570 425 553 461 q 590 346 588 389 q 586 258 593 303 q 565 185 579 222 q 527 117 551 149 q 470 63 503 86 q 401 25 438 39 q 327 6 364 11 q 253 0 290 0 l 18 0 m 165 556 l 338 556 q 392 560 364 556 q 447 575 419 564 q 497 605 474 586 q 536 647 519 624 q 562 698 553 671 q 575 753 571 725 q 581 809 581 781 q 573 863 581 838 q 549 910 565 889 q 509 946 532 932 q 458 965 486 960 q 403 969 431 969 l 233 969 l 165 556 m 82 51 l 253 51 q 315 56 283 51 q 376 72 346 60 q 435 103 407 83 q 483 149 463 122 q 515 206 504 175 q 532 268 526 236 q 535 332 536 300 q 524 392 535 364 q 493 443 514 421 q 445 479 472 465 q 388 499 418 493 q 325 504 357 504 l 157 504 l 82 51 z "},"C":{"ha":694,"x_min":46,"x_max":661,"o":"m 269 -11 q 196 -3 232 -11 q 131 26 160 6 q 82 76 101 46 q 55 142 63 107 q 48 216 47 178 q 54 292 49 254 l 135 771 q 151 840 140 806 q 182 905 163 874 q 230 962 201 936 q 291 1003 258 988 q 359 1026 324 1019 q 429 1032 394 1032 q 495 1027 463 1032 q 556 1008 528 1022 q 607 972 585 994 q 642 922 629 950 q 657 860 654 893 q 654 794 660 828 l 653 785 l 597 785 l 599 792 q 597 869 606 832 q 563 933 589 907 q 501 970 538 960 q 425 981 464 981 q 368 975 397 981 q 313 956 339 969 q 264 920 286 942 q 226 873 242 899 q 202 819 211 847 q 189 763 193 792 l 108 283 q 103 224 104 254 q 108 165 103 193 q 128 113 114 138 q 165 71 143 88 q 217 47 188 54 q 275 40 246 40 q 355 52 315 40 q 428 92 394 64 q 481 158 461 119 q 507 236 500 196 l 563 236 q 544 170 557 203 q 510 108 531 138 q 463 54 490 78 q 403 15 435 31 q 338 -6 372 0 q 269 -11 303 -11 z "},"D":{"ha":694,"x_min":17,"x_max":656,"o":"m 18 0 l 186 1021 l 382 1021 q 467 1013 425 1021 q 543 987 508 1006 q 603 937 578 968 q 642 867 629 906 q 654 787 654 829 q 647 701 654 744 l 578 276 q 557 199 571 238 q 518 128 543 161 q 459 69 493 94 q 387 27 425 43 q 310 6 349 11 q 232 0 271 0 l 18 0 m 82 51 l 232 51 q 298 56 265 51 q 363 74 331 61 q 423 109 394 88 q 472 159 451 131 q 506 220 493 188 q 524 285 518 253 l 593 710 q 599 778 599 744 q 589 844 599 813 q 559 900 579 875 q 511 941 539 925 q 450 963 483 957 q 382 969 417 969 l 233 969 l 82 51 z "},"E":{"ha":694,"x_min":28,"x_max":690,"o":"m 29 0 l 197 1021 l 689 1021 l 681 969 l 244 969 l 176 557 l 538 557 l 529 506 l 168 506 l 93 51 l 529 51 l 521 0 l 29 0 z "},"F":{"ha":694,"x_min":65,"x_max":690,"o":"m 67 0 l 235 1021 l 689 1021 l 681 969 l 282 969 l 214 557 l 538 557 l 529 506 l 206 506 l 122 0 l 67 0 z "},"G":{"ha":694,"x_min":46,"x_max":661,"o":"m 253 -11 q 181 -2 215 -11 q 120 28 147 7 q 76 81 93 50 q 53 146 60 111 q 47 218 46 181 q 54 292 49 256 l 135 771 q 151 840 140 806 q 182 905 163 874 q 230 962 201 936 q 291 1003 258 988 q 359 1026 324 1019 q 429 1032 394 1032 q 495 1027 463 1032 q 556 1008 528 1022 q 607 972 585 994 q 642 922 629 950 q 657 860 654 893 q 654 794 660 828 l 653 785 l 597 785 l 599 792 q 597 869 606 832 q 563 933 589 907 q 501 970 538 960 q 425 981 464 981 q 368 975 397 981 q 313 956 339 969 q 264 920 286 942 q 226 873 242 899 q 202 819 211 847 q 189 763 193 792 l 108 283 q 103 224 104 254 q 108 166 103 194 q 127 113 114 138 q 163 72 140 89 q 213 47 185 54 q 272 40 242 40 q 328 45 300 40 q 382 63 356 50 q 431 97 408 76 q 468 143 453 118 q 492 195 483 168 q 507 250 501 222 l 546 493 l 350 493 l 358 543 l 610 543 l 521 0 l 469 0 l 492 135 q 449 73 475 101 q 392 25 424 44 q 324 -3 360 6 q 253 -11 288 -11 z "},"H":{"ha":694,"x_min":17,"x_max":690,"o":"m 18 0 l 186 1021 l 242 1021 l 165 557 l 557 557 l 633 1021 l 689 1021 l 521 0 l 465 0 l 549 506 l 157 506 l 74 0 l 18 0 z "},"I":{"ha":694,"x_min":31,"x_max":676,"o":"m 518 0 l 32 0 l 32 51 l 250 51 l 401 969 l 189 969 l 189 1021 l 675 1021 l 675 969 l 457 969 l 306 51 l 518 51 l 518 0 z "},"J":{"ha":694,"x_min":24,"x_max":668,"o":"m 249 -11 q 183 -6 215 -11 q 122 15 150 0 q 73 53 93 29 q 41 106 53 76 q 27 169 29 136 q 31 236 25 201 l 86 236 q 86 158 79 196 q 117 92 93 119 q 177 52 140 64 q 254 40 214 40 q 316 49 285 40 q 374 76 347 57 q 421 123 400 96 q 456 179 442 150 q 478 239 471 208 q 490 300 486 269 l 601 969 l 390 969 l 390 1021 l 667 1021 l 546 292 q 529 219 540 256 q 500 147 518 182 q 456 81 482 113 q 396 28 429 50 q 324 -2 363 7 q 249 -11 285 -11 z "},"K":{"ha":694,"x_min":39,"x_max":693,"o":"m 464 0 l 267 514 l 160 386 l 96 0 l 40 0 l 208 1021 l 264 1021 l 176 486 l 621 1021 l 692 1021 l 307 561 l 524 0 l 464 0 z "},"L":{"ha":694,"x_min":65,"x_max":538,"o":"m 67 0 l 235 1021 l 290 1021 l 131 51 l 538 51 l 529 0 l 67 0 z "},"M":{"ha":694,"x_min":11,"x_max":696,"o":"m 13 0 l 181 1021 l 260 1021 l 335 399 l 615 1021 l 694 1021 l 526 0 l 471 0 l 504 204 q 565 565 535 385 q 625 926 596 746 l 346 307 l 293 307 l 219 926 q 161 565 190 746 q 101 204 132 385 l 68 0 l 13 0 z "},"N":{"ha":694,"x_min":17,"x_max":690,"o":"m 18 0 l 186 1021 l 261 1021 l 479 81 q 523 347 501 214 q 567 613 544 479 l 633 1021 l 689 1021 l 521 0 l 446 0 l 228 940 q 184 674 206 807 q 140 408 163 542 l 74 0 l 18 0 z "},"O":{"ha":694,"x_min":46,"x_max":661,"o":"m 276 -11 q 201 -3 238 -11 q 134 25 164 6 q 84 75 104 44 q 56 141 64 106 q 48 215 47 176 q 54 292 49 254 l 135 771 q 151 840 140 806 q 183 905 163 874 q 231 962 203 936 q 292 1003 258 988 q 361 1026 325 1019 q 431 1032 397 1032 q 506 1024 469 1032 q 573 996 543 1015 q 623 946 603 976 q 651 880 643 915 q 659 806 660 844 q 653 729 658 767 l 574 250 q 556 181 567 215 q 524 116 544 147 q 476 59 504 85 q 415 17 449 33 q 346 -5 382 1 q 276 -11 310 -11 m 278 40 q 335 45 306 40 q 390 64 364 50 q 440 99 417 78 q 478 147 463 121 q 504 201 494 172 q 519 258 514 229 l 599 738 q 603 797 603 767 q 598 856 604 828 q 578 909 592 885 q 541 950 564 933 q 490 974 518 967 q 431 981 461 981 q 373 976 403 981 q 317 957 343 971 q 267 922 290 943 q 228 874 244 900 q 203 820 213 849 q 189 763 193 792 l 108 283 q 103 224 104 254 q 109 165 103 193 q 129 112 115 136 q 166 71 143 88 q 218 47 189 54 q 278 40 247 40 z "},"P":{"ha":694,"x_min":40,"x_max":671,"o":"m 42 0 l 210 1021 l 439 1021 q 515 1013 478 1021 q 581 985 551 1004 q 631 935 611 965 q 660 869 650 904 q 669 795 669 833 q 661 718 668 757 q 644 649 656 683 q 613 582 633 614 q 565 524 593 550 q 503 482 538 499 q 435 459 469 465 q 364 453 400 453 l 174 453 l 99 0 l 42 0 m 182 503 l 364 503 q 422 509 393 503 q 478 529 451 515 q 529 565 506 543 q 569 614 553 588 q 594 669 585 640 q 607 726 603 697 q 613 787 613 757 q 608 845 614 817 q 587 898 601 874 q 550 939 572 922 q 499 963 528 956 q 439 969 469 969 l 258 969 l 182 503 z "},"Q":{"ha":694,"x_min":46,"x_max":661,"o":"m 449 -236 q 386 -231 417 -236 q 329 -213 356 -226 q 283 -179 303 -200 q 251 -131 263 -158 q 238 -72 239 -103 q 242 -10 236 -42 q 174 5 206 -7 q 117 38 142 17 q 76 90 92 60 q 54 153 61 119 q 48 222 47 186 q 54 292 49 257 l 135 771 q 151 840 140 806 q 183 905 163 874 q 231 962 203 936 q 292 1003 258 988 q 361 1026 325 1019 q 431 1032 397 1032 q 506 1024 469 1032 q 573 996 543 1015 q 623 946 603 976 q 651 880 643 915 q 659 806 660 844 q 653 729 658 767 l 574 250 q 558 184 568 217 q 528 122 547 151 q 484 67 510 92 q 428 24 458 42 q 364 -1 397 7 q 296 -11 331 -10 q 294 -58 293 -35 q 303 -101 296 -81 q 326 -140 311 -122 q 360 -167 340 -157 q 402 -182 379 -178 q 449 -186 425 -186 l 475 -186 l 475 -236 l 449 -236 m 278 40 q 335 45 306 40 q 390 64 364 50 q 440 99 417 78 q 478 147 463 121 q 504 201 494 172 q 519 258 514 229 l 599 738 q 603 797 603 767 q 598 856 604 828 q 578 909 592 885 q 541 950 564 933 q 490 974 518 967 q 431 981 461 981 q 373 976 403 981 q 317 957 343 971 q 267 922 290 943 q 228 874 244 900 q 203 820 213 849 q 189 763 193 792 l 108 283 q 103 224 104 254 q 109 165 103 193 q 129 112 115 136 q 166 71 143 88 q 218 47 189 54 q 278 40 247 40 z "},"R":{"ha":694,"x_min":17,"x_max":658,"o":"m 554 0 l 496 0 l 331 453 l 149 453 l 74 0 l 18 0 l 186 1021 l 439 1021 q 513 1013 476 1021 q 577 983 549 1004 q 624 932 606 963 q 650 866 642 901 q 658 793 658 831 q 650 718 657 756 q 635 654 644 686 q 610 592 626 622 q 569 535 593 561 q 515 492 544 510 q 453 464 485 474 q 389 453 421 454 l 554 0 m 157 503 l 364 503 q 421 509 393 503 q 476 530 449 515 q 524 567 503 544 q 559 616 544 590 q 583 670 574 642 q 596 726 592 699 q 602 785 601 756 q 598 843 603 815 q 580 896 593 871 q 545 938 567 921 q 497 962 524 954 q 439 969 469 969 l 233 969 l 157 503 z "},"S":{"ha":694,"x_min":35,"x_max":661,"o":"m 272 -11 q 206 -6 239 -11 q 144 12 174 -1 q 92 47 115 25 q 56 97 69 68 q 39 158 43 125 q 40 224 35 190 l 43 236 l 99 236 l 97 226 q 100 149 90 188 q 136 85 110 111 q 200 50 163 60 q 278 40 238 40 q 357 51 317 40 q 431 88 397 61 q 486 153 465 115 q 514 231 507 190 q 513 306 521 269 q 486 373 506 343 q 438 425 467 403 q 378 466 410 447 q 316 502 347 485 q 256 542 285 519 q 205 591 228 564 q 167 651 182 618 q 148 722 153 685 q 150 799 143 760 q 168 862 156 831 q 201 922 181 893 q 248 972 221 950 q 306 1008 275 994 q 369 1026 336 1021 q 435 1032 403 1032 q 500 1027 468 1032 q 560 1008 532 1022 q 609 973 588 994 q 642 923 631 951 q 658 862 654 894 q 656 797 661 829 l 653 785 l 597 785 l 599 794 q 598 870 606 833 q 566 933 590 907 q 506 970 542 960 q 431 981 469 981 q 352 969 392 981 q 281 931 313 958 q 230 867 249 904 q 204 792 211 829 q 206 716 197 753 q 233 649 214 679 q 280 596 251 618 q 340 556 308 574 q 402 519 371 538 q 461 479 433 501 q 513 430 489 457 q 551 369 536 403 q 570 299 565 336 q 568 222 575 261 q 550 158 563 190 q 516 97 538 125 q 466 47 494 69 q 405 12 438 25 q 339 -6 372 -1 q 272 -11 306 -11 z "},"T":{"ha":694,"x_min":169,"x_max":699,"o":"m 242 0 l 401 969 l 169 969 l 178 1021 l 697 1021 l 689 969 l 457 969 l 297 0 l 242 0 z "},"U":{"ha":694,"x_min":57,"x_max":690,"o":"m 276 -11 q 203 -3 239 -11 q 138 26 167 6 q 92 78 110 47 q 65 144 74 108 q 58 217 57 179 q 65 292 60 254 l 186 1021 l 242 1021 l 119 283 q 115 225 115 254 q 119 167 114 196 q 136 115 124 139 q 170 72 149 90 q 220 47 192 54 q 278 40 249 40 q 333 46 306 40 q 387 66 361 51 q 434 102 413 81 q 471 149 456 124 q 494 203 486 175 q 508 258 503 231 l 633 1021 l 689 1021 l 563 250 q 545 182 556 215 q 516 118 535 149 q 470 62 497 88 q 411 19 443 36 q 344 -4 379 3 q 276 -11 310 -11 z "},"V":{"ha":694,"x_min":163,"x_max":714,"o":"m 238 0 l 163 1021 l 221 1021 l 269 340 q 278 219 274 279 q 285 99 282 158 q 333 219 310 158 q 381 340 357 279 l 654 1021 l 713 1021 l 301 0 l 238 0 z "},"W":{"ha":694,"x_min":108,"x_max":718,"o":"m 429 0 l 375 0 l 372 625 l 164 0 l 110 0 l 158 1021 l 214 1021 l 163 135 l 363 735 l 418 735 l 421 135 l 661 1021 l 717 1021 l 429 0 z "},"X":{"ha":694,"x_min":6,"x_max":701,"o":"m 68 0 l 7 0 l 325 514 l 175 1021 l 236 1021 l 363 575 l 639 1021 l 700 1021 l 382 507 l 532 0 l 471 0 l 344 446 l 68 0 z "},"Y":{"ha":694,"x_min":172,"x_max":704,"o":"m 242 0 l 310 410 l 172 1021 l 232 1021 l 347 483 l 643 1021 l 703 1021 l 364 403 l 297 0 l 242 0 z "},"Z":{"ha":694,"x_min":17,"x_max":690,"o":"m 18 0 l 26 51 l 617 969 l 178 969 l 186 1021 l 689 1021 l 681 969 l 90 51 l 529 51 l 521 0 l 18 0 z "},"[":{"ha":694,"x_min":74,"x_max":660,"o":"m 74 -199 l 296 1143 l 660 1143 l 651 1092 l 344 1092 l 139 -147 l 446 -147 l 438 -199 l 74 -199 z "},"\\":{"ha":694,"x_min":201,"x_max":493,"o":"m 433 -199 l 203 1143 l 261 1143 l 492 -199 l 433 -199 z "},"]":{"ha":694,"x_min":35,"x_max":621,"o":"m 35 -199 l 43 -147 l 350 -147 l 556 1092 l 249 1092 l 257 1143 l 621 1143 l 399 -199 l 35 -199 z "},"^":{"ha":694,"x_min":111,"x_max":649,"o":"m 154 640 l 113 678 l 397 978 l 464 978 l 649 672 l 599 644 l 424 933 l 154 640 z "},"_":{"ha":694,"x_min":8,"x_max":521,"o":"m 513 -51 l 10 -51 l 18 0 l 521 0 l 513 -51 z "},"`":{"ha":694,"x_min":251,"x_max":456,"o":"m 411 774 l 253 1064 l 307 1090 l 454 794 l 411 774 z "},"a":{"ha":694,"x_min":32,"x_max":604,"o":"m 251 -11 q 192 -8 221 -11 q 136 6 163 -4 q 88 34 110 17 q 52 76 65 51 q 36 130 39 100 q 38 189 33 160 q 58 257 43 224 q 99 316 74 290 q 158 359 125 342 q 225 387 192 376 q 293 401 258 397 q 361 404 328 404 l 532 404 l 543 471 q 547 526 547 499 q 540 578 547 553 q 518 624 533 603 q 481 659 503 646 q 431 677 458 672 q 376 682 404 682 q 307 675 342 682 q 241 649 272 668 q 187 599 210 631 q 158 535 164 568 l 103 535 q 122 592 108 564 q 158 645 136 621 q 206 687 179 669 q 262 715 233 704 q 321 729 290 725 q 381 733 351 733 q 451 726 417 733 q 513 703 485 719 q 563 660 542 686 q 593 601 583 633 q 603 533 603 568 q 597 463 603 497 l 521 0 l 465 0 l 488 133 q 444 73 469 101 q 388 25 419 44 q 321 -3 356 6 q 251 -11 286 -11 m 269 40 q 328 47 299 40 q 385 69 358 53 q 434 108 413 85 q 472 158 456 131 q 497 214 488 185 q 510 272 506 243 l 524 354 l 361 354 q 306 351 333 354 q 250 341 278 349 q 196 321 222 333 q 147 288 169 308 q 111 242 125 268 q 93 188 97 215 q 92 141 89 164 q 108 100 96 118 q 139 70 119 82 q 179 51 158 58 q 224 42 200 44 q 269 40 247 40 z "},"b":{"ha":694,"x_min":17,"x_max":611,"o":"m 300 -11 q 226 -1 261 -11 q 165 31 192 8 q 122 86 138 54 q 99 153 106 118 l 74 0 l 18 0 l 186 1021 l 242 1021 l 172 596 q 215 654 189 626 q 271 700 240 682 q 336 726 301 718 q 404 733 371 733 q 477 724 442 733 q 540 692 513 714 q 583 638 567 669 q 605 572 599 607 q 610 499 611 536 q 601 424 608 461 l 574 257 q 558 190 568 224 q 531 126 549 157 q 489 67 514 94 q 433 22 464 40 q 367 -3 401 4 q 300 -11 333 -11 m 283 40 q 340 46 311 40 q 396 67 369 51 q 444 104 422 82 q 482 153 467 126 q 506 208 497 179 q 519 265 515 236 l 547 432 q 553 492 553 461 q 549 551 554 522 q 531 606 544 581 q 496 649 518 631 q 445 674 474 667 q 386 682 417 682 q 330 676 358 682 q 274 656 301 671 q 225 620 247 642 q 188 573 203 599 q 163 519 172 547 q 150 463 154 490 l 122 296 q 116 235 117 265 q 120 175 115 204 q 138 119 125 146 q 172 74 151 93 q 223 48 193 56 q 283 40 253 40 z "},"c":{"ha":694,"x_min":46,"x_max":611,"o":"m 271 -11 q 196 -2 232 -11 q 131 28 160 7 q 83 80 101 49 q 56 147 64 111 q 49 222 47 183 q 56 299 50 261 l 83 465 q 101 535 89 501 q 132 601 113 569 q 178 660 151 633 q 239 703 206 686 q 308 726 272 719 q 379 733 344 733 q 446 728 413 733 q 508 710 479 724 q 558 674 536 696 q 592 622 579 651 q 608 560 604 593 q 606 494 611 528 l 604 486 l 549 486 l 549 492 q 547 569 556 532 q 515 634 539 607 q 453 672 490 661 q 375 682 415 682 q 318 676 347 682 q 262 656 289 671 q 213 618 235 640 q 176 569 192 596 q 151 515 160 543 q 138 457 143 486 l 110 290 q 104 229 106 260 q 109 170 103 199 q 128 116 115 142 q 164 73 142 90 q 215 48 186 56 q 276 40 244 40 q 356 52 315 40 q 428 92 396 64 q 481 159 461 121 q 507 236 500 197 l 563 236 q 544 170 557 203 q 510 108 531 138 q 463 55 490 79 q 403 16 435 31 q 338 -5 372 1 q 271 -11 303 -11 z "},"d":{"ha":694,"x_min":46,"x_max":690,"o":"m 253 -11 q 181 -1 215 -11 q 119 31 146 8 q 75 84 92 53 q 53 151 58 115 q 49 224 47 186 q 56 299 50 261 l 83 465 q 99 532 89 499 q 126 597 108 565 q 169 655 144 628 q 225 700 194 682 q 290 726 256 718 q 357 733 324 733 q 431 724 396 733 q 493 691 467 714 q 536 636 519 668 q 560 569 553 604 l 633 1021 l 689 1021 l 521 0 l 465 0 l 486 126 q 443 68 468 96 q 387 22 418 40 q 321 -3 356 4 q 253 -11 286 -11 m 272 40 q 328 46 300 40 q 383 66 357 51 q 432 102 410 81 q 470 149 454 124 q 494 203 486 175 q 508 260 503 232 l 536 426 q 541 488 540 457 q 537 547 542 518 q 519 603 532 576 q 485 648 507 629 q 435 674 464 667 q 375 682 406 682 q 318 676 347 682 q 262 656 289 671 q 213 618 235 640 q 176 569 192 596 q 151 515 160 543 q 138 457 143 486 l 110 290 q 105 231 106 261 q 109 171 104 200 q 127 117 114 142 q 162 74 140 92 q 213 48 183 56 q 272 40 242 40 z "},"e":{"ha":694,"x_min":47,"x_max":611,"o":"m 275 -11 q 199 -3 236 -11 q 132 26 161 6 q 84 78 103 47 q 56 146 65 110 q 49 221 47 182 q 56 299 50 260 l 83 465 q 101 535 89 501 q 132 601 113 569 q 179 660 151 633 q 240 703 207 686 q 310 726 274 719 q 381 733 346 733 q 457 725 419 733 q 524 696 494 717 q 574 644 554 675 q 601 576 593 613 q 609 501 610 540 q 601 424 608 463 l 588 336 l 118 336 l 110 290 q 104 229 106 260 q 109 169 103 199 q 130 115 115 140 q 167 72 144 89 q 220 47 190 54 q 281 40 250 40 q 351 47 315 40 q 419 73 386 54 q 474 122 451 92 q 504 188 497 153 l 560 188 q 540 129 554 158 q 503 76 525 100 q 453 35 481 53 q 396 8 426 18 q 335 -7 365 -3 q 275 -11 306 -11 m 126 386 l 540 386 l 547 432 q 553 493 553 463 q 549 553 554 524 q 529 607 543 582 q 492 650 515 632 q 440 675 469 668 q 381 682 411 682 q 322 676 351 682 q 265 656 293 671 q 215 619 238 642 q 178 571 193 597 q 153 515 163 544 q 138 457 143 486 l 126 386 z "},"f":{"ha":694,"x_min":119,"x_max":692,"o":"m 181 0 l 279 594 l 121 594 l 121 644 l 288 644 l 317 821 q 328 873 321 847 q 348 923 335 899 q 381 969 361 947 q 423 1005 400 990 q 473 1026 446 1019 q 526 1032 500 1032 q 598 1021 564 1032 q 654 983 632 1010 q 683 921 676 957 q 685 849 690 885 l 683 843 l 628 843 l 629 847 q 629 899 633 874 q 611 944 625 925 q 573 972 597 964 q 522 981 549 981 q 482 975 503 981 q 444 957 461 969 q 415 927 428 944 q 393 891 401 910 q 379 853 385 872 q 371 813 374 833 l 343 644 l 599 644 l 599 594 l 335 594 l 236 0 l 181 0 z "},"g":{"ha":694,"x_min":-10,"x_max":640,"o":"m 222 -310 q 163 -306 192 -310 q 108 -294 135 -303 q 57 -270 81 -286 q 18 -232 33 -254 q -3 -182 3 -210 q -6 -125 -10 -154 l 50 -125 q 60 -187 46 -158 q 101 -231 75 -215 q 160 -253 128 -247 q 226 -258 193 -258 q 283 -252 254 -258 q 338 -231 311 -246 q 386 -194 365 -217 q 422 -144 407 -171 q 446 -90 438 -118 q 460 -33 454 -62 l 486 126 q 443 68 468 96 q 387 22 418 40 q 321 -3 356 4 q 253 -11 286 -11 q 181 -1 215 -11 q 119 31 146 8 q 75 84 92 53 q 53 151 58 115 q 49 224 47 186 q 56 299 50 261 l 83 465 q 99 532 89 499 q 126 597 108 565 q 169 655 144 628 q 225 700 194 682 q 290 726 256 718 q 357 733 324 733 q 431 724 396 733 q 493 691 467 714 q 536 636 519 668 q 560 569 553 604 l 585 722 l 640 722 l 514 -42 q 497 -111 508 -76 q 466 -177 485 -146 q 420 -235 447 -208 q 360 -278 393 -261 q 292 -303 326 -296 q 222 -310 257 -310 m 272 40 q 328 46 300 40 q 383 66 357 51 q 432 102 410 81 q 470 149 454 124 q 494 203 486 175 q 508 260 503 232 l 536 426 q 541 488 540 457 q 537 547 542 518 q 519 603 532 576 q 485 648 507 629 q 435 674 464 667 q 375 682 406 682 q 318 676 347 682 q 262 656 289 671 q 213 618 235 640 q 176 569 192 596 q 151 515 160 543 q 138 457 143 486 l 110 290 q 105 231 106 261 q 109 171 104 200 q 127 117 114 142 q 162 74 140 92 q 213 48 183 56 q 272 40 242 40 z "},"h":{"ha":694,"x_min":17,"x_max":601,"o":"m 18 0 l 186 1021 l 242 1021 l 172 597 q 214 655 190 628 q 268 700 238 682 q 332 726 299 718 q 399 733 365 733 q 471 724 436 733 q 531 691 506 714 q 573 637 557 668 q 594 570 589 606 q 599 497 600 535 q 590 424 597 460 l 521 0 l 465 0 l 536 432 q 543 491 542 461 q 540 550 544 521 q 522 604 535 579 q 488 648 510 629 q 439 674 467 667 q 381 682 411 682 q 325 676 353 682 q 271 656 297 671 q 223 619 244 642 q 187 572 201 597 q 163 518 172 546 q 150 463 154 490 l 74 0 l 18 0 z "},"i":{"ha":694,"x_min":31,"x_max":518,"o":"m 518 0 l 32 0 l 32 51 l 260 51 l 363 671 l 160 671 l 160 722 l 426 722 l 315 51 l 518 51 l 518 0 m 431 876 q 405 881 417 876 q 385 894 393 885 q 376 917 378 904 q 376 944 375 931 q 382 961 378 953 q 394 975 386 969 q 412 983 403 981 q 429 985 421 985 q 455 981 443 985 q 474 967 467 976 q 484 944 482 957 q 483 917 486 931 q 478 900 482 908 q 466 886 474 892 q 449 878 458 881 q 431 876 439 876 z "},"j":{"ha":694,"x_min":-49,"x_max":556,"o":"m 135 -310 q 56 -297 94 -310 q -8 -256 17 -285 q -40 -186 -32 -226 q -42 -104 -49 -146 l 14 -104 q 15 -165 10 -135 q 36 -217 19 -194 q 81 -249 53 -239 q 139 -258 108 -258 q 189 -250 164 -258 q 234 -224 214 -242 q 269 -185 254 -207 q 294 -139 283 -162 q 312 -90 306 -115 q 322 -40 318 -65 l 440 671 l 228 671 l 228 722 l 504 722 l 376 -49 q 363 -111 371 -81 q 340 -171 354 -142 q 305 -227 326 -200 q 256 -274 283 -254 q 198 -301 229 -293 q 135 -310 167 -310 m 500 876 q 474 881 486 876 q 455 894 463 885 q 446 917 447 904 q 446 944 444 931 q 451 961 447 953 q 464 975 456 969 q 481 983 472 981 q 499 985 490 985 q 524 981 513 985 q 544 967 536 976 q 553 944 551 957 q 553 917 556 931 q 547 900 551 908 q 535 886 543 892 q 518 878 528 881 q 500 876 508 876 z "},"k":{"ha":694,"x_min":39,"x_max":635,"o":"m 453 0 l 246 358 l 139 258 l 96 0 l 40 0 l 208 1021 l 264 1021 l 151 342 l 557 722 l 635 722 l 286 396 l 515 0 l 453 0 z "},"l":{"ha":694,"x_min":31,"x_max":518,"o":"m 518 0 l 32 0 l 32 51 l 260 51 l 411 969 l 208 969 l 208 1021 l 475 1021 l 315 51 l 518 51 l 518 0 z "},"m":{"ha":694,"x_min":11,"x_max":625,"o":"m 13 0 l 132 722 l 188 722 l 178 664 q 200 692 188 679 q 227 715 213 706 q 259 729 242 725 q 293 733 276 733 q 333 727 314 733 q 364 707 351 721 q 383 675 376 693 q 393 638 390 657 q 414 675 401 657 q 444 707 426 693 q 481 727 461 721 q 522 733 501 733 q 561 727 542 733 q 592 708 581 721 q 612 676 604 694 q 622 639 619 658 q 624 599 625 619 q 618 560 622 579 l 526 0 l 471 0 l 565 569 q 568 609 568 589 q 560 647 568 629 q 535 674 551 664 q 497 683 518 683 q 467 678 482 683 q 440 663 453 674 q 419 638 428 651 q 404 610 410 625 q 394 581 399 596 q 388 550 390 565 l 297 0 l 242 0 l 336 569 q 339 609 339 589 q 331 647 339 629 q 306 674 322 664 q 268 683 289 683 q 238 678 253 683 q 211 663 224 674 q 190 638 199 651 q 175 610 181 625 q 165 581 169 596 q 158 550 161 565 l 68 0 l 13 0 z "},"n":{"ha":694,"x_min":17,"x_max":601,"o":"m 18 0 l 138 722 l 193 722 l 172 597 q 214 655 190 628 q 268 700 238 682 q 332 726 299 718 q 399 733 365 733 q 471 724 436 733 q 531 691 506 714 q 573 637 557 668 q 594 570 589 606 q 599 497 600 535 q 590 424 597 460 l 521 0 l 465 0 l 536 432 q 543 491 542 461 q 540 550 544 521 q 522 604 535 579 q 488 648 510 629 q 439 674 467 667 q 381 682 411 682 q 325 676 353 682 q 271 656 297 671 q 223 619 244 642 q 187 572 201 597 q 163 518 172 546 q 150 463 154 490 l 74 0 l 18 0 z "},"o":{"ha":694,"x_min":47,"x_max":611,"o":"m 276 -11 q 200 -3 238 -11 q 133 26 163 6 q 84 78 103 47 q 56 146 65 110 q 49 221 47 182 q 56 299 50 260 l 83 465 q 101 536 89 501 q 132 602 113 571 q 179 660 151 633 q 240 703 207 686 q 310 726 274 719 q 381 733 346 733 q 457 725 419 733 q 524 696 494 717 q 574 644 554 675 q 601 576 593 613 q 609 501 610 540 q 601 424 608 463 l 574 257 q 557 186 568 221 q 526 120 546 151 q 478 63 506 89 q 417 19 450 36 q 347 -4 383 3 q 276 -11 311 -11 m 278 40 q 335 46 306 40 q 392 66 365 51 q 442 103 419 81 q 481 151 465 125 q 506 207 496 178 q 519 265 515 236 l 547 432 q 553 493 553 463 q 549 553 554 524 q 529 607 543 582 q 492 650 515 632 q 441 675 469 668 q 381 682 413 682 q 323 676 353 682 q 265 656 293 671 q 215 619 238 642 q 178 571 193 597 q 153 515 163 544 q 138 457 143 486 l 110 290 q 104 229 106 260 q 108 169 103 199 q 128 115 114 140 q 165 72 142 90 q 217 47 188 54 q 278 40 246 40 z "},"p":{"ha":694,"x_min":-32,"x_max":611,"o":"m -32 -299 l 138 722 l 193 722 l 172 596 q 215 654 189 626 q 271 700 240 682 q 336 726 301 718 q 404 733 371 733 q 477 724 442 733 q 540 692 513 714 q 583 638 567 669 q 605 572 599 607 q 610 499 611 536 q 601 424 608 461 l 574 257 q 558 190 568 224 q 531 126 549 157 q 489 67 514 94 q 433 22 464 40 q 367 -3 401 4 q 300 -11 333 -11 q 226 -1 261 -11 q 165 31 192 8 q 122 86 138 54 q 99 153 106 118 l 24 -299 l -32 -299 m 283 40 q 340 46 311 40 q 396 67 369 51 q 444 104 422 82 q 482 153 467 126 q 506 208 497 179 q 519 265 515 236 l 547 432 q 553 492 553 461 q 549 551 554 522 q 531 606 544 581 q 496 649 518 631 q 445 674 474 667 q 386 682 417 682 q 330 676 358 682 q 274 656 301 671 q 225 620 247 642 q 188 573 203 599 q 163 519 172 547 q 150 463 154 490 l 122 296 q 116 235 117 265 q 120 175 115 204 q 138 119 125 146 q 172 74 151 93 q 223 48 193 56 q 283 40 253 40 z "},"q":{"ha":694,"x_min":46,"x_max":640,"o":"m 415 -299 l 486 126 q 443 68 468 96 q 387 22 418 40 q 321 -3 356 4 q 253 -11 286 -11 q 181 -1 215 -11 q 119 31 146 8 q 75 84 92 53 q 53 151 58 115 q 49 224 47 186 q 56 299 50 261 l 83 465 q 99 532 89 499 q 126 597 108 565 q 169 655 144 628 q 225 700 194 682 q 290 726 256 718 q 357 733 324 733 q 431 724 396 733 q 493 691 467 714 q 536 636 519 668 q 560 569 553 604 l 585 722 l 640 722 l 471 -299 l 415 -299 m 272 40 q 328 46 300 40 q 383 66 357 51 q 432 102 410 81 q 470 149 454 124 q 494 203 486 175 q 508 260 503 232 l 536 426 q 541 488 540 457 q 537 547 542 518 q 519 603 532 576 q 485 648 507 629 q 435 674 464 667 q 375 682 406 682 q 318 676 347 682 q 262 656 289 671 q 213 618 235 640 q 176 569 192 596 q 151 515 160 543 q 138 457 143 486 l 110 290 q 105 231 106 261 q 109 171 104 200 q 127 117 114 142 q 162 74 140 92 q 213 48 183 56 q 272 40 242 40 z "},"r":{"ha":694,"x_min":100,"x_max":639,"o":"m 101 0 l 221 722 l 276 722 l 250 565 q 290 631 267 600 q 344 687 314 663 q 410 722 374 711 q 482 733 446 733 q 554 722 519 733 q 610 683 589 711 q 634 619 631 656 q 632 544 638 582 l 576 544 q 578 597 581 571 q 563 644 576 624 q 524 673 549 664 q 474 682 500 682 q 408 672 442 682 q 347 642 375 663 q 298 592 319 621 q 261 533 276 564 q 238 469 246 501 q 224 404 229 436 l 157 0 l 101 0 z "},"s":{"ha":694,"x_min":36,"x_max":610,"o":"m 272 -11 q 215 -8 243 -11 q 159 3 186 -6 q 108 25 132 11 q 67 60 83 39 q 44 108 50 81 q 42 165 38 136 l 43 174 l 99 174 l 99 168 q 100 125 94 146 q 119 89 106 104 q 151 64 132 74 q 190 49 169 54 q 233 42 211 43 q 278 40 256 40 q 322 42 300 40 q 365 50 343 44 q 408 65 386 56 q 447 90 429 75 q 476 126 464 106 q 493 168 489 147 q 485 228 499 200 q 451 274 472 256 q 401 305 429 293 q 344 326 372 317 q 288 347 317 336 q 235 372 260 358 q 186 404 210 386 q 147 447 163 422 q 124 501 131 471 q 122 561 117 531 q 140 615 126 589 q 174 663 153 642 q 222 697 196 683 q 274 719 247 711 q 329 731 301 728 q 385 733 357 733 q 442 731 414 733 q 495 719 469 728 q 544 697 521 711 q 582 661 567 682 q 603 613 597 640 q 604 557 608 585 l 603 549 l 547 549 l 549 554 q 547 596 551 575 q 530 632 542 617 q 501 657 518 647 q 464 672 483 667 q 423 680 444 678 q 381 682 401 682 q 318 677 350 682 q 256 656 286 672 q 203 613 225 640 q 176 554 182 586 q 183 495 171 524 q 218 448 196 467 q 267 417 240 429 q 323 396 294 406 q 379 375 351 386 q 433 351 407 364 q 482 319 460 338 q 521 276 504 300 q 545 223 538 253 q 547 161 553 193 q 528 106 543 133 q 490 58 513 79 q 441 24 468 38 q 386 2 414 10 q 329 -8 358 -6 q 272 -11 300 -11 z "},"t":{"ha":694,"x_min":133,"x_max":621,"o":"m 381 -11 q 320 -3 349 -11 q 270 24 292 6 q 235 68 249 42 q 217 124 222 94 q 213 184 211 153 q 219 246 214 215 l 290 671 l 135 671 l 135 722 l 299 722 l 347 1021 l 403 1021 l 354 722 l 621 722 l 621 671 l 346 671 l 274 238 q 269 191 269 214 q 271 147 268 168 q 282 104 274 125 q 305 69 290 83 q 341 47 319 54 q 386 40 363 40 q 429 47 407 40 q 470 67 451 53 q 503 101 489 82 q 528 142 518 121 q 544 185 538 163 q 556 229 551 207 l 557 236 l 611 236 l 610 226 q 596 169 604 197 q 573 115 588 142 q 538 63 558 88 q 492 22 518 39 q 438 -3 467 4 q 381 -11 408 -11 z "},"u":{"ha":694,"x_min":57,"x_max":640,"o":"m 258 -11 q 187 -1 221 -11 q 126 31 153 8 q 85 85 100 54 q 63 152 69 117 q 59 225 57 188 q 67 299 61 263 l 138 722 l 193 722 l 121 290 q 115 231 117 261 q 119 172 114 201 q 136 118 124 143 q 169 74 149 93 q 219 48 190 56 q 278 40 247 40 q 333 46 306 40 q 387 66 361 51 q 435 103 413 81 q 472 151 457 125 q 494 204 486 176 q 508 260 503 232 l 585 722 l 640 722 l 521 0 l 465 0 l 486 125 q 444 67 468 94 q 390 22 421 40 q 325 -3 358 4 q 258 -11 292 -11 z "},"v":{"ha":694,"x_min":113,"x_max":664,"o":"m 301 0 l 238 0 l 114 722 l 175 722 l 254 240 q 268 157 261 199 q 281 74 275 115 q 321 157 300 115 q 363 240 342 199 l 603 722 l 664 722 l 301 0 z "},"w":{"ha":694,"x_min":108,"x_max":668,"o":"m 110 0 l 110 722 l 167 722 l 157 96 l 328 519 l 383 519 l 413 96 l 611 722 l 668 722 l 429 0 l 375 0 l 342 442 l 164 0 l 110 0 z "},"x":{"ha":694,"x_min":8,"x_max":649,"o":"m 529 0 l 463 0 l 322 311 l 76 0 l 10 0 l 297 364 l 129 722 l 196 722 l 336 411 l 582 722 l 649 722 l 360 358 l 529 0 z "},"y":{"ha":694,"x_min":110,"x_max":660,"o":"m 110 -299 q 140 -233 125 -265 q 171 -168 156 -201 l 231 -44 l 118 722 l 176 722 l 272 38 l 601 722 l 660 722 l 168 -299 l 110 -299 z "},"z":{"ha":694,"x_min":17,"x_max":640,"o":"m 18 0 l 26 51 l 568 671 l 129 671 l 138 722 l 640 722 l 632 671 l 90 51 l 529 51 l 521 0 l 18 0 z "},"{":{"ha":694,"x_min":117,"x_max":663,"o":"m 435 -212 q 367 -207 400 -212 q 303 -189 333 -201 q 247 -156 272 -176 q 206 -108 221 -136 q 187 -45 190 -79 q 190 24 183 -11 q 207 85 194 54 q 237 144 219 115 q 271 201 254 172 q 293 263 288 231 q 296 315 297 289 q 285 363 294 340 q 258 403 275 386 q 217 429 240 419 q 169 443 194 439 q 117 447 143 447 l 125 497 q 178 501 151 497 q 231 515 206 506 q 280 542 257 525 q 321 581 303 558 q 349 630 339 604 q 363 682 358 656 q 363 743 368 714 q 349 801 357 772 q 338 860 342 829 q 338 921 333 890 q 359 990 344 956 q 399 1052 374 1024 q 455 1101 424 1081 q 521 1133 486 1121 q 592 1151 556 1146 q 663 1157 628 1157 l 653 1106 q 597 1102 625 1106 q 542 1089 569 1099 q 489 1063 514 1079 q 443 1025 464 1047 q 410 976 422 1003 q 393 921 399 949 q 394 860 389 890 q 408 802 400 831 q 421 744 417 774 q 419 682 425 714 q 400 614 414 647 q 362 552 386 581 q 306 503 338 524 q 240 472 274 483 q 296 441 271 461 q 335 392 321 421 q 353 331 350 364 q 350 263 356 297 q 332 201 344 231 q 301 142 319 171 q 267 83 283 113 q 246 24 250 54 q 244 -31 240 -4 q 260 -81 247 -58 q 293 -119 272 -103 q 338 -144 314 -135 q 389 -158 361 -154 q 444 -161 417 -161 l 435 -212 z "},"|":{"ha":694,"x_min":208,"x_max":486,"o":"m 208 -199 l 431 1143 l 486 1143 l 264 -199 l 208 -199 z "},"}":{"ha":694,"x_min":32,"x_max":578,"o":"m 32 -212 l 42 -161 q 97 -158 69 -161 q 153 -144 125 -154 q 206 -119 181 -135 q 251 -81 231 -103 q 284 -31 272 -58 q 301 24 296 -4 q 300 84 306 54 q 286 142 294 114 q 274 201 278 171 q 275 263 269 231 q 294 331 281 297 q 333 392 308 364 q 389 441 357 421 q 454 472 421 461 q 399 503 424 483 q 359 552 374 524 q 342 614 344 581 q 344 682 339 647 q 363 744 350 714 q 393 803 375 774 q 428 861 411 832 q 449 921 444 890 q 451 976 454 949 q 435 1025 447 1003 q 401 1063 422 1047 q 357 1089 381 1079 q 306 1102 333 1099 q 250 1106 278 1106 l 260 1157 q 328 1151 294 1157 q 392 1133 361 1146 q 448 1101 422 1121 q 489 1052 474 1081 q 508 990 504 1024 q 504 921 511 956 q 488 860 500 890 q 458 801 475 829 q 424 743 440 772 q 401 682 407 714 q 399 630 397 656 q 410 581 400 604 q 437 542 419 558 q 477 515 454 525 q 526 501 500 506 q 578 497 551 497 l 569 447 q 516 443 543 447 q 463 429 489 439 q 415 403 438 419 q 374 363 392 386 q 346 315 356 340 q 332 263 336 289 q 332 201 326 231 q 345 144 338 172 q 357 85 353 115 q 357 24 361 54 q 335 -45 350 -11 q 296 -108 321 -79 q 240 -156 271 -136 q 174 -189 208 -176 q 103 -207 139 -201 q 32 -212 67 -212 z "},"~":{"ha":694,"x_min":36,"x_max":636,"o":"m 86 254 l 38 276 q 58 319 47 299 q 78 357 68 339 q 97 392 88 375 q 116 422 107 408 q 133 449 125 436 q 149 472 142 461 q 169 497 157 482 q 194 524 182 513 q 224 544 207 535 q 257 553 240 553 q 277 549 268 553 q 294 541 286 546 q 309 529 303 536 q 320 514 315 522 q 329 497 325 506 q 338 481 333 489 q 345 463 342 472 q 352 444 349 454 q 358 426 356 435 q 364 406 360 417 q 372 386 368 396 q 378 367 375 376 q 384 350 381 358 q 392 335 388 342 q 401 317 396 328 q 414 306 407 306 q 430 312 422 306 q 443 324 438 318 q 458 341 449 331 q 472 356 468 351 q 478 366 475 361 q 486 377 482 371 q 494 390 490 383 q 503 403 499 396 q 513 417 508 410 q 521 433 517 425 q 531 451 525 442 q 542 469 538 460 q 552 488 547 478 q 563 508 557 497 q 574 531 568 519 q 586 554 579 542 l 635 532 q 614 490 624 510 q 594 451 604 469 q 574 417 583 433 q 556 387 565 401 q 539 360 547 372 q 523 337 531 347 q 503 311 515 326 q 477 285 490 296 q 448 265 464 274 q 415 256 432 256 q 395 259 404 256 q 378 267 386 263 q 363 280 369 272 q 352 295 357 288 q 343 311 347 303 q 335 328 339 319 q 327 345 331 336 q 320 364 324 354 q 314 383 317 374 q 308 402 311 392 q 301 422 304 413 q 294 441 297 432 q 287 458 290 450 q 280 474 283 467 q 271 492 276 481 q 258 503 265 503 q 242 497 250 503 q 229 484 235 490 q 214 467 224 478 q 201 452 204 457 q 194 442 197 447 q 185 431 190 438 q 177 419 181 425 q 169 406 174 413 q 159 391 164 399 q 150 375 154 383 q 140 358 146 367 q 130 340 135 350 q 120 321 125 331 q 110 300 115 311 q 98 278 104 289 q 86 254 92 267 z "},"":{"ha":694,"x_min":0,"x_max":0,"o":""},"":{"ha":694,"x_min":192,"x_max":447,"o":"m 379 601 q 349 607 364 601 q 326 624 335 613 q 315 652 318 636 q 315 683 313 668 q 322 705 317 694 q 337 722 328 715 q 357 731 346 728 q 379 733 368 733 q 410 728 394 733 q 433 710 425 722 q 444 683 442 699 q 443 651 446 667 q 437 631 442 640 q 422 614 432 621 q 401 604 413 607 q 379 601 390 601 m 192 -299 l 301 361 l 357 361 l 247 -299 l 192 -299 z "},"":{"ha":694,"x_min":46,"x_max":613,"o":"m 217 -149 l 240 -10 q 172 5 204 -7 q 115 40 140 17 q 75 93 90 63 q 53 158 60 124 q 49 227 47 192 q 56 299 50 263 l 83 465 q 99 533 89 500 q 128 597 110 565 q 173 653 147 628 q 230 697 199 679 q 295 724 261 715 q 363 733 329 732 l 386 872 l 442 872 l 418 732 q 503 710 463 728 q 569 660 543 693 q 604 583 596 628 q 606 494 613 539 l 604 486 l 549 486 l 549 492 q 549 562 556 528 q 524 622 543 596 q 474 663 504 649 q 408 681 444 678 l 303 40 q 376 60 339 44 q 440 103 413 75 q 484 165 467 131 q 507 236 501 200 l 563 236 q 532 144 554 190 q 473 64 510 99 q 389 10 436 29 q 294 -11 342 -8 l 272 -149 l 217 -149 m 250 40 l 356 682 q 301 672 328 681 q 249 648 274 664 q 206 610 225 632 q 172 563 186 588 q 150 511 158 538 q 138 457 142 485 l 110 290 q 104 234 106 263 q 108 178 103 206 q 123 127 113 151 q 151 84 133 103 q 195 54 169 65 q 250 40 221 43 z "},"":{"ha":694,"x_min":17,"x_max":643,"o":"m 18 0 l 26 51 q 84 113 58 79 q 127 185 110 147 q 154 263 144 224 q 169 342 164 303 l 194 486 l 64 486 l 63 535 l 201 535 l 251 833 q 263 885 256 860 q 286 934 271 911 q 322 977 301 957 q 367 1010 343 997 q 418 1027 392 1022 q 469 1032 444 1032 q 547 1019 510 1032 q 606 978 583 1007 q 636 910 629 949 q 636 831 643 871 l 633 819 l 578 819 l 579 828 q 581 886 585 857 q 563 938 578 915 q 521 970 547 960 q 465 981 494 981 q 406 969 436 981 q 355 935 376 958 q 322 883 333 913 q 306 825 311 854 l 257 535 l 413 535 l 414 486 l 250 486 l 224 333 q 210 259 218 296 q 188 185 201 222 q 152 115 174 149 q 104 51 131 81 l 529 51 l 521 0 l 18 0 z "},"":{"ha":694,"x_min":36,"x_max":658,"o":"m 72 203 l 36 239 l 132 322 q 109 400 113 357 q 113 488 106 443 q 135 565 118 526 q 179 633 151 603 l 117 708 l 158 739 l 219 667 q 297 700 256 690 q 378 710 338 710 q 460 699 419 710 q 531 663 500 689 l 622 742 l 658 706 l 563 622 q 585 544 582 588 q 582 457 589 501 q 560 380 576 418 q 515 311 543 342 l 578 236 l 536 206 l 475 278 q 398 244 439 254 q 317 235 357 235 q 235 245 275 235 q 164 282 194 256 l 72 203 m 318 285 q 392 295 354 285 q 459 331 429 306 q 506 392 489 357 q 529 465 524 428 q 532 540 536 503 q 506 606 528 578 q 450 647 485 635 q 376 660 415 660 q 303 649 340 660 q 235 613 265 639 q 188 552 206 588 q 165 479 171 517 q 163 404 158 442 q 188 338 167 367 q 244 297 210 310 q 318 285 279 285 z "},"":{"ha":694,"x_min":51,"x_max":704,"o":"m 242 0 l 271 179 l 51 179 l 51 229 l 279 229 l 304 383 l 85 383 l 85 433 l 303 433 l 172 1021 l 232 1021 l 347 483 l 643 1021 l 703 1021 l 379 433 l 588 433 l 588 383 l 360 383 l 335 229 l 554 229 l 554 179 l 326 179 l 297 0 l 242 0 z "},"":{"ha":694,"x_min":208,"x_max":486,"o":"m 331 536 l 431 1143 l 486 1143 l 386 536 l 331 536 m 208 -199 l 308 408 l 364 408 l 264 -199 l 208 -199 z "},"":{"ha":694,"x_min":14,"x_max":681,"o":"m 240 -210 q 175 -204 207 -210 q 115 -185 143 -199 q 65 -150 86 -172 q 31 -99 43 -128 q 17 -37 19 -69 q 19 28 14 -4 l 21 38 l 76 38 l 75 31 q 77 -46 69 -8 q 108 -110 85 -83 q 169 -147 132 -136 q 244 -158 206 -158 q 324 -146 283 -158 q 395 -105 364 -133 q 446 -38 426 -76 q 471 39 465 0 q 469 106 476 74 q 440 163 461 139 q 391 203 419 188 q 332 231 363 219 q 269 252 301 242 q 209 278 238 263 q 157 315 181 293 q 118 366 133 338 q 98 428 103 394 q 99 496 93 461 q 117 559 104 528 q 149 619 131 590 q 195 672 168 649 q 251 710 222 696 q 210 747 229 726 q 181 794 192 768 q 167 851 169 821 q 168 911 164 881 q 187 975 174 943 q 219 1036 200 1007 q 265 1089 239 1065 q 324 1128 292 1113 q 389 1149 356 1143 q 454 1154 422 1154 q 519 1149 488 1154 q 580 1130 551 1143 q 630 1094 608 1117 q 663 1043 651 1072 q 678 981 675 1014 q 675 917 681 949 l 674 907 l 618 907 l 619 914 q 617 990 625 953 q 586 1054 610 1028 q 526 1092 563 1081 q 450 1103 489 1103 q 371 1090 411 1103 q 299 1049 331 1078 q 249 983 268 1021 q 224 906 229 944 q 226 838 218 871 q 254 781 233 806 q 303 741 275 757 q 363 714 332 725 q 425 692 393 703 q 485 667 457 682 q 538 629 514 651 q 576 578 561 607 q 597 517 592 550 q 596 449 601 483 q 577 385 590 417 q 545 325 564 354 q 499 272 526 296 q 443 235 472 249 q 484 197 465 218 q 514 150 503 176 q 528 94 525 124 q 526 33 531 64 q 508 -31 521 1 q 475 -92 494 -62 q 429 -144 456 -121 q 371 -183 403 -168 q 306 -204 339 -199 q 240 -210 272 -210 m 381 267 q 440 294 411 275 q 488 338 468 313 q 522 394 508 364 q 540 454 535 424 q 535 528 546 493 q 498 590 524 564 q 439 630 472 615 q 371 657 406 644 l 368 658 q 341 667 356 663 q 314 678 326 672 q 255 651 283 669 q 206 606 226 632 q 173 551 186 581 q 154 490 160 521 q 160 416 149 451 q 197 355 171 381 q 256 315 222 329 q 324 288 289 300 l 326 286 q 353 277 339 282 q 381 267 368 272 z "},"":{"ha":694,"x_min":228,"x_max":618,"o":"m 563 876 q 537 881 549 876 q 517 894 525 885 q 508 917 510 904 q 508 944 507 931 q 514 961 510 953 q 526 975 518 969 q 544 983 535 981 q 561 985 553 985 q 587 981 575 985 q 606 967 599 976 q 616 944 614 957 q 615 917 618 931 q 610 900 614 908 q 598 886 606 892 q 581 878 590 881 q 563 876 571 876 m 285 876 q 259 881 271 876 q 240 894 247 885 q 231 917 232 904 q 231 944 229 931 q 236 961 232 953 q 249 975 240 969 q 266 983 257 981 q 283 985 275 985 q 309 981 297 985 q 328 967 321 976 q 338 944 336 957 q 338 917 340 931 q 332 900 336 908 q 320 886 328 892 q 303 878 313 881 q 285 876 293 876 z "},"":{"ha":694,"x_min":125,"x_max":594,"o":"m 326 440 q 283 443 304 440 q 242 453 261 446 q 205 472 222 460 q 177 501 188 483 q 165 540 167 518 q 165 583 163 561 q 181 633 169 608 q 213 676 193 658 q 258 707 233 694 q 308 726 283 719 q 360 735 333 733 q 411 738 386 738 l 531 738 l 538 781 q 537 835 542 808 q 514 881 532 863 q 469 906 496 899 q 415 913 443 913 q 370 909 393 913 q 325 895 347 906 q 286 865 303 885 q 264 822 269 846 l 211 822 q 238 885 217 856 q 290 931 260 914 q 354 956 321 949 q 419 963 388 963 q 471 958 446 963 q 519 943 496 954 q 558 915 542 932 q 583 874 575 897 q 593 825 592 851 q 590 774 594 799 l 536 449 l 482 449 l 497 540 q 465 499 483 518 q 424 465 447 479 q 376 446 401 451 q 326 440 351 440 m 346 490 q 405 500 375 490 q 459 531 435 510 q 497 582 483 553 q 514 640 510 611 l 522 689 l 411 689 q 372 688 392 689 q 333 681 353 686 q 296 669 314 676 q 261 649 278 661 q 233 618 244 636 q 219 582 222 600 q 220 551 217 565 q 233 525 224 536 q 256 507 243 514 q 283 497 268 500 q 314 492 299 493 q 346 490 329 490 m 126 279 l 128 326 l 513 326 l 511 279 l 126 279 z "},"":{"ha":694,"x_min":56,"x_max":665,"o":"m 506 131 q 475 225 493 179 q 433 313 457 271 q 378 393 410 356 q 308 460 347 431 l 311 485 q 405 553 361 515 q 487 634 449 590 q 558 724 525 678 q 619 819 592 771 l 665 796 q 606 704 638 749 q 540 617 575 660 q 464 537 504 575 q 381 468 424 499 q 441 399 414 436 q 490 319 468 361 q 528 233 511 278 q 557 143 544 189 l 506 131 m 254 131 q 224 225 242 179 q 182 313 206 271 q 127 393 158 356 q 57 460 96 431 l 60 485 q 153 553 110 515 q 235 634 197 590 q 307 724 274 678 q 368 819 340 771 l 414 796 q 355 704 386 749 q 288 617 324 660 q 213 537 253 575 q 129 468 172 499 q 190 399 163 436 q 238 319 217 361 q 276 233 260 278 q 306 143 293 189 l 254 131 z "},"":{"ha":694,"x_min":92,"x_max":603,"o":"m 497 196 l 539 447 l 92 447 l 100 497 l 603 497 l 553 196 l 497 196 z "},"":{"ha":694,"x_min":92,"x_max":603,"o":"m 594 447 l 92 447 l 100 497 l 603 497 l 594 447 z "},"":{"ha":694,"x_min":114,"x_max":728,"o":"m 268 714 l 335 1122 l 458 1122 q 506 1113 483 1122 q 543 1085 529 1104 q 559 1040 557 1065 q 557 990 561 1015 q 546 952 553 971 q 525 917 539 933 q 492 892 511 901 q 454 881 474 882 l 521 714 l 468 714 l 403 879 l 346 879 l 318 714 l 268 714 m 432 924 q 460 929 446 924 q 485 945 475 935 q 501 969 496 956 q 510 997 507 983 q 510 1026 511 1013 q 504 1052 510 1040 q 486 1071 499 1064 q 458 1078 474 1078 l 378 1078 l 353 924 l 432 924 m 371 618 q 292 625 331 618 q 220 650 253 632 q 163 697 188 668 q 127 762 139 726 q 115 838 115 797 q 121 918 114 878 q 142 999 128 958 q 179 1074 156 1039 q 237 1139 203 1110 q 309 1186 271 1168 q 389 1211 347 1204 q 471 1218 431 1218 q 550 1211 511 1218 q 622 1186 589 1204 q 678 1139 654 1168 q 715 1074 703 1110 q 728 999 728 1039 q 721 918 728 958 q 701 838 714 878 q 663 762 688 797 q 605 697 639 726 q 533 650 571 668 q 453 625 494 632 q 371 618 411 618 m 378 663 q 447 669 413 663 q 515 692 482 675 q 576 734 549 708 q 624 790 604 760 q 656 856 644 821 q 672 924 667 890 q 678 990 678 957 q 668 1053 678 1024 q 638 1108 658 1083 q 590 1147 618 1132 q 531 1167 563 1161 q 465 1174 499 1174 q 395 1167 431 1174 q 326 1144 360 1161 q 265 1102 293 1128 q 218 1046 238 1076 q 187 981 199 1015 q 169 913 175 946 q 165 846 165 879 q 174 783 165 813 q 204 728 183 753 q 252 690 225 704 q 312 669 279 675 q 378 663 344 663 z "},"":{"ha":694,"x_min":171,"x_max":675,"o":"m 172 906 l 172 956 l 675 956 l 675 906 l 172 906 z "},"":{"ha":694,"x_min":283,"x_max":556,"o":"m 421 782 q 360 793 389 782 q 313 828 331 804 q 290 883 294 851 q 290 947 285 915 q 305 990 293 969 q 335 1024 317 1010 q 376 1042 354 1038 q 421 1047 399 1047 q 463 1043 442 1047 q 500 1028 483 1039 q 528 1001 517 1017 q 546 965 540 985 q 553 925 551 946 q 551 883 554 904 q 535 840 547 861 q 505 806 524 819 q 465 787 486 792 q 421 782 443 782 m 421 833 q 447 837 433 833 q 473 849 461 840 q 492 869 485 857 q 500 896 499 882 q 501 933 504 914 q 487 967 497 953 q 458 989 476 982 q 419 996 439 996 q 394 993 407 996 q 369 981 381 990 q 350 960 357 972 q 340 935 343 947 q 340 896 338 915 q 354 862 343 876 q 383 840 365 847 q 421 833 401 833 z "},"":{"ha":694,"x_min":17,"x_max":603,"o":"m 332 211 l 276 211 l 315 447 l 92 447 l 100 497 l 324 497 l 363 733 l 418 733 l 379 497 l 603 497 l 594 447 l 371 447 l 332 211 m 18 0 l 26 50 l 529 50 l 521 0 l 18 0 z "},"":{"ha":694,"x_min":150,"x_max":632,"o":"m 150 449 l 150 450 q 163 516 156 483 q 186 581 171 549 q 222 642 201 613 q 269 695 243 671 q 326 739 296 719 q 387 776 356 758 q 449 810 418 793 q 507 853 481 828 q 550 909 533 878 q 572 974 567 940 l 572 975 q 573 1033 576 1004 q 553 1083 569 1061 q 509 1113 536 1104 q 453 1122 482 1122 q 400 1115 426 1122 q 351 1092 374 1108 q 313 1050 328 1075 q 294 1000 299 1025 l 294 997 l 240 997 l 240 1000 q 265 1070 246 1036 q 316 1128 285 1104 q 384 1161 347 1151 q 457 1171 421 1171 q 535 1158 497 1171 q 597 1117 574 1146 q 626 1047 621 1088 q 625 967 632 1007 q 601 892 618 929 q 554 826 583 856 q 490 776 525 797 q 418 735 454 756 q 349 692 382 715 q 287 639 315 669 q 241 572 258 608 q 214 497 224 536 l 544 497 l 536 449 l 150 449 z "},"":{"ha":694,"x_min":160,"x_max":632,"o":"m 351 440 q 276 449 313 440 q 213 478 240 457 q 173 535 185 500 q 167 608 161 571 l 168 614 l 222 614 l 221 610 q 226 557 217 582 q 255 517 235 532 q 301 496 275 501 q 356 490 328 490 q 413 498 383 490 q 467 524 443 506 q 507 571 492 543 q 526 626 522 599 q 528 675 531 651 q 517 719 526 699 q 492 756 507 740 q 456 781 476 772 q 410 792 435 790 q 361 794 386 794 l 369 844 q 435 849 401 844 q 498 874 469 854 q 546 923 526 893 q 571 985 565 953 q 570 1039 575 1013 q 549 1085 565 1065 q 508 1113 533 1104 q 454 1122 482 1122 q 403 1115 429 1122 q 356 1091 378 1108 q 319 1049 333 1074 q 301 1000 306 1025 l 301 997 l 249 997 l 249 1000 q 272 1069 254 1035 q 321 1127 290 1103 q 388 1161 351 1151 q 458 1171 424 1171 q 533 1159 497 1171 q 592 1120 569 1147 q 623 1056 615 1093 q 624 979 631 1018 q 608 928 619 953 q 578 881 596 903 q 536 844 560 860 q 486 818 513 828 q 535 786 514 807 q 567 738 556 765 q 581 681 578 711 q 581 619 585 650 q 553 546 574 582 q 500 485 532 510 q 428 450 468 460 q 351 440 389 440 z "},"":{"ha":694,"x_min":344,"x_max":640,"o":"m 383 769 l 346 799 l 592 1096 l 639 1060 l 383 769 z "},"":{"ha":694,"x_min":-32,"x_max":640,"o":"m -32 -299 l 138 722 l 193 722 l 121 290 q 115 231 117 261 q 119 172 114 201 q 136 118 124 143 q 169 74 149 93 q 219 48 190 56 q 278 40 247 40 q 333 46 306 40 q 387 66 361 51 q 435 103 413 81 q 472 151 457 125 q 494 204 486 176 q 508 260 503 232 l 585 722 l 640 722 l 521 0 l 465 0 l 486 125 q 444 67 468 94 q 390 22 421 40 q 325 -3 358 4 q 258 -11 292 -11 q 205 -6 231 -11 q 156 11 179 -1 q 116 42 133 24 q 86 83 99 60 q 68 -33 78 25 q 49 -149 58 -92 l 24 -299 l -32 -299 z "},"":{"ha":694,"x_min":135,"x_max":690,"o":"m 257 0 l 338 488 q 270 494 303 488 q 212 519 238 501 q 169 563 186 536 q 144 622 151 590 q 136 686 136 653 q 143 754 136 719 q 159 822 149 788 q 188 887 169 856 q 231 944 206 918 q 290 989 257 971 q 356 1014 322 1007 q 425 1021 390 1021 l 689 1021 l 521 0 l 469 0 l 631 974 l 469 974 l 308 0 l 257 0 z "},"":{"ha":694,"x_min":275,"x_max":419,"o":"m 347 401 q 315 408 331 401 q 290 426 299 414 q 278 456 281 439 q 278 489 275 472 q 285 512 279 501 q 302 530 292 522 q 324 540 313 538 q 347 543 335 543 q 380 537 364 543 q 405 518 396 531 q 417 489 414 506 q 417 456 419 472 q 409 433 415 443 q 392 415 403 422 q 371 404 382 407 q 347 401 360 401 z "},"":{"ha":694,"x_min":79,"x_max":393,"o":"m 79 -306 l 88 -256 l 226 -256 q 261 -253 243 -256 q 295 -242 279 -250 q 322 -219 311 -233 q 338 -186 333 -204 q 333 -154 340 -169 q 313 -131 326 -139 q 283 -119 300 -122 q 250 -117 267 -117 l 222 -117 l 242 0 l 297 0 l 285 -72 q 328 -83 307 -75 q 365 -106 350 -90 q 386 -143 381 -121 q 388 -189 392 -165 q 367 -240 383 -215 q 326 -280 350 -265 q 273 -300 301 -294 q 218 -306 244 -306 l 79 -306 z "},"":{"ha":694,"x_min":254,"x_max":519,"o":"m 344 449 l 453 1100 l 283 993 l 256 1033 l 463 1164 l 518 1164 l 400 449 l 344 449 z "},"":{"ha":694,"x_min":125,"x_max":599,"o":"m 350 440 q 294 446 321 440 q 244 465 267 451 q 205 501 221 479 q 181 548 189 522 q 173 602 172 574 q 178 660 174 631 l 197 776 q 210 826 201 801 q 235 874 219 851 q 272 915 251 897 q 317 943 293 932 q 368 958 342 954 q 419 963 394 963 q 476 957 449 963 q 527 938 504 951 q 566 902 550 924 q 590 855 582 881 q 598 801 599 829 q 592 743 597 772 l 572 626 q 559 576 568 601 q 535 528 550 551 q 499 488 519 506 q 453 460 478 471 q 401 444 428 449 q 350 440 375 440 m 350 490 q 409 499 379 490 q 463 528 439 507 q 501 577 488 549 q 519 635 515 606 l 539 751 q 542 813 544 782 q 523 867 539 843 q 478 901 507 890 q 419 913 450 913 q 360 904 390 913 q 307 875 331 896 q 269 826 283 854 q 250 768 256 797 l 231 651 q 228 590 226 621 q 247 536 231 560 q 292 501 264 513 q 350 490 319 490 m 126 279 l 128 326 l 513 326 l 511 279 l 126 279 z "},"":{"ha":694,"x_min":29,"x_max":639,"o":"m 328 125 l 281 149 q 340 240 308 196 q 408 327 372 285 q 483 408 443 369 q 567 476 522 446 q 506 546 533 508 q 456 625 478 583 q 419 711 435 667 q 389 801 403 756 l 442 814 q 471 719 453 765 q 513 631 489 674 q 569 551 538 589 q 638 485 600 514 l 635 460 q 542 392 586 429 q 460 310 499 354 q 388 220 421 267 q 328 125 356 174 m 76 125 l 29 149 q 89 240 57 196 q 156 327 121 285 q 231 408 192 369 q 315 476 271 446 q 254 546 282 508 q 205 625 226 583 q 167 711 183 667 q 138 801 151 756 l 190 814 q 219 719 201 765 q 262 631 238 674 q 317 551 286 589 q 386 485 349 514 l 383 460 q 291 392 335 429 q 208 310 247 354 q 137 220 169 267 q 76 125 104 174 z "},"":{"ha":694,"x_min":85,"x_max":603,"o":"m 596 454 l 93 454 l 99 490 l 601 490 l 596 454 m 369 617 l 453 1121 l 326 1039 l 301 1075 l 463 1178 l 513 1178 l 419 617 l 369 617 m 282 -233 l 307 -82 l 86 -82 l 93 -36 l 372 328 l 431 328 l 151 -36 l 314 -36 l 339 110 l 389 110 l 364 -36 l 428 -36 l 421 -82 l 357 -82 l 332 -233 l 282 -233 z "},"":{"ha":694,"x_min":65,"x_max":603,"o":"m 596 454 l 93 454 l 99 490 l 601 490 l 596 454 m 369 617 l 453 1121 l 326 1039 l 301 1075 l 463 1178 l 513 1178 l 419 617 l 369 617 m 67 -233 l 67 -232 q 77 -179 71 -206 q 95 -127 83 -153 q 125 -78 107 -101 q 165 -36 143 -56 q 212 -2 188 -17 q 262 25 236 13 q 313 50 288 38 q 360 81 339 63 q 397 125 382 100 q 417 178 411 150 q 417 224 421 201 q 397 261 413 246 q 360 283 382 276 q 315 289 339 289 q 274 285 296 289 q 234 269 253 281 q 203 238 215 257 q 186 199 190 219 l 136 199 l 136 200 q 159 257 142 229 q 203 303 176 285 q 260 328 229 321 q 319 335 290 335 q 385 325 353 335 q 438 292 417 315 q 465 237 460 269 q 465 171 471 204 q 444 111 460 140 q 406 59 429 82 q 355 21 383 36 q 297 -9 326 6 q 240 -40 268 -24 q 188 -78 213 -56 q 149 -130 164 -101 q 125 -189 133 -158 l 403 -189 l 396 -233 l 67 -233 z "},"":{"ha":694,"x_min":85,"x_max":611,"o":"m 596 454 l 93 454 l 99 490 l 601 490 l 596 454 m 378 611 q 317 617 347 611 q 262 639 286 622 q 226 683 238 656 q 221 742 215 711 l 221 747 l 269 747 l 269 744 q 275 703 265 722 q 301 674 285 685 q 339 659 318 663 q 381 656 360 656 q 428 660 404 656 q 472 679 451 665 q 505 715 492 693 q 522 758 518 736 q 517 814 526 788 q 488 858 507 840 q 440 880 468 875 q 383 885 413 885 l 390 931 q 442 933 415 931 q 493 950 469 936 q 534 988 517 964 q 556 1036 551 1011 q 553 1079 558 1058 q 535 1114 549 1100 q 500 1133 521 1128 q 458 1139 479 1139 q 417 1135 438 1139 q 378 1119 396 1131 q 348 1088 360 1107 q 332 1049 336 1069 l 283 1049 l 283 1050 q 305 1106 289 1079 q 347 1151 321 1133 q 403 1177 374 1169 q 461 1185 432 1185 q 523 1176 493 1185 q 574 1146 553 1167 q 602 1094 594 1125 q 604 1032 610 1064 q 592 991 601 1011 q 567 954 582 971 q 534 926 553 938 q 494 906 515 914 q 531 880 515 896 q 557 844 547 864 q 571 799 567 824 q 571 751 575 775 q 547 691 565 719 q 501 644 528 663 q 442 618 474 625 q 378 611 410 611 m 282 -233 l 307 -82 l 86 -82 l 93 -36 l 372 328 l 431 328 l 151 -36 l 314 -36 l 339 110 l 389 110 l 364 -36 l 428 -36 l 421 -82 l 357 -82 l 332 -233 l 282 -233 z "},"":{"ha":694,"x_min":3,"x_max":514,"o":"m 379 601 q 349 607 364 601 q 326 624 335 613 q 315 652 318 636 q 315 683 313 668 q 322 705 317 694 q 337 722 328 715 q 357 731 346 728 q 379 733 368 733 q 410 728 394 733 q 433 710 425 722 q 444 683 442 699 q 443 651 446 667 q 437 631 442 640 q 422 614 432 621 q 401 604 413 607 q 379 601 390 601 m 226 -310 q 158 -303 192 -310 q 97 -281 125 -297 q 49 -240 69 -265 q 18 -185 29 -215 q 5 -121 7 -154 q 8 -53 3 -87 q 27 14 14 -19 q 60 77 40 47 q 106 133 81 107 q 160 184 132 160 q 214 233 188 208 q 261 286 240 257 q 293 349 282 315 q 310 415 304 382 l 365 415 q 351 348 360 382 q 326 282 343 314 q 284 222 308 250 q 232 169 260 194 q 176 120 204 144 q 125 67 149 96 q 85 6 101 39 q 64 -60 69 -26 q 65 -138 57 -100 q 95 -205 72 -176 q 154 -246 118 -233 q 231 -258 190 -258 q 309 -247 269 -258 q 380 -208 349 -235 q 431 -143 411 -181 q 457 -68 450 -106 l 457 -62 l 513 -62 l 511 -69 q 494 -133 507 -101 q 462 -194 482 -165 q 415 -246 442 -222 q 356 -284 388 -269 q 292 -304 325 -299 q 226 -310 258 -310 z "},"":{"ha":694,"x_min":-7,"x_max":544,"o":"m -6 0 l 269 681 l 406 1021 l 469 1021 l 544 0 l 486 0 l 464 310 l 178 310 l 53 0 l -6 0 m 460 361 l 438 681 q 430 802 433 742 q 422 922 426 863 q 374 802 399 863 q 326 681 350 742 l 199 361 l 460 361 m 464 1121 l 343 1313 l 393 1340 l 504 1143 l 464 1121 z "},"":{"ha":694,"x_min":-7,"x_max":632,"o":"m -6 0 l 269 681 l 406 1021 l 469 1021 l 544 0 l 486 0 l 464 310 l 178 310 l 53 0 l -6 0 m 460 361 l 438 681 q 430 802 433 742 q 422 922 426 863 q 374 802 399 863 q 326 681 350 742 l 199 361 l 460 361 m 447 1117 l 413 1147 l 589 1344 l 632 1308 l 447 1117 z "},"":{"ha":694,"x_min":-7,"x_max":632,"o":"m -6 0 l 269 681 l 406 1021 l 469 1021 l 544 0 l 486 0 l 464 310 l 178 310 l 53 0 l -6 0 m 460 361 l 438 681 q 430 802 433 742 q 422 922 426 863 q 374 802 399 863 q 326 681 350 742 l 199 361 l 460 361 m 325 1121 l 288 1153 l 456 1342 l 528 1342 l 632 1149 l 588 1125 l 483 1294 l 325 1121 z "},"":{"ha":694,"x_min":-7,"x_max":721,"o":"m -6 0 l 269 681 l 406 1021 l 469 1021 l 544 0 l 486 0 l 464 310 l 178 310 l 53 0 l -6 0 m 460 361 l 438 681 q 430 802 433 742 q 422 922 426 863 q 374 802 399 863 q 326 681 350 742 l 199 361 l 460 361 m 543 1129 q 526 1131 535 1129 q 511 1138 518 1133 q 498 1147 504 1142 q 487 1158 492 1151 q 477 1170 482 1164 q 469 1183 472 1176 q 462 1197 465 1190 q 455 1212 458 1204 q 448 1227 451 1219 q 441 1242 444 1235 q 434 1257 438 1250 q 426 1270 431 1264 q 418 1283 422 1276 q 406 1290 414 1290 q 394 1287 400 1290 q 384 1280 389 1283 q 374 1272 379 1276 q 364 1260 369 1267 q 356 1252 358 1254 q 351 1247 354 1250 q 344 1239 347 1243 q 338 1230 342 1235 q 331 1220 335 1225 q 324 1210 328 1215 q 317 1199 321 1204 q 308 1187 313 1193 q 300 1174 304 1181 q 292 1161 296 1168 q 283 1147 288 1154 q 274 1131 279 1139 l 228 1156 q 244 1185 236 1171 q 261 1211 253 1199 q 277 1235 269 1224 q 292 1256 285 1246 q 306 1274 299 1265 q 319 1289 313 1282 q 337 1306 326 1296 q 358 1324 347 1317 q 381 1335 368 1331 q 406 1340 393 1340 q 422 1338 414 1340 q 436 1332 429 1336 q 449 1323 443 1328 q 461 1312 456 1318 q 471 1299 467 1306 q 479 1286 475 1293 q 487 1272 483 1279 q 493 1258 490 1265 q 499 1242 496 1250 q 506 1227 503 1235 q 514 1213 510 1219 q 522 1199 518 1206 q 530 1186 525 1193 q 543 1179 535 1179 q 553 1183 549 1179 q 563 1190 558 1186 q 573 1198 568 1193 q 584 1209 578 1203 q 592 1217 590 1215 q 597 1223 593 1219 q 603 1231 600 1226 q 609 1240 606 1235 q 617 1249 613 1244 q 624 1260 621 1254 q 631 1271 628 1265 q 640 1283 635 1276 q 648 1295 644 1289 q 656 1308 651 1301 q 665 1323 661 1315 q 675 1339 669 1331 l 721 1314 q 704 1285 713 1299 q 688 1258 696 1271 q 672 1235 679 1246 q 657 1214 664 1224 q 643 1196 650 1204 q 629 1181 636 1188 q 612 1163 622 1174 q 591 1146 601 1153 q 568 1134 581 1139 q 543 1129 556 1129 z "},"":{"ha":694,"x_min":-7,"x_max":668,"o":"m -6 0 l 269 681 l 406 1021 l 469 1021 l 544 0 l 486 0 l 464 310 l 178 310 l 53 0 l -6 0 m 460 361 l 438 681 q 430 802 433 742 q 422 922 426 863 q 374 802 399 863 q 326 681 350 742 l 199 361 l 460 361 m 613 1175 q 587 1179 599 1175 q 567 1193 575 1183 q 558 1216 560 1203 q 558 1243 557 1229 q 564 1260 560 1251 q 576 1274 568 1268 q 594 1281 585 1279 q 611 1283 603 1283 q 637 1279 625 1283 q 656 1265 649 1275 q 666 1242 664 1256 q 665 1215 668 1229 q 660 1199 664 1207 q 648 1185 656 1190 q 631 1177 640 1179 q 613 1175 621 1175 m 335 1175 q 309 1179 321 1175 q 290 1193 297 1183 q 281 1216 282 1203 q 281 1243 279 1229 q 286 1260 282 1251 q 299 1274 290 1268 q 316 1281 307 1279 q 333 1283 325 1283 q 359 1279 347 1283 q 378 1265 371 1275 q 388 1242 386 1256 q 388 1215 390 1229 q 382 1199 386 1207 q 370 1185 378 1190 q 353 1177 363 1179 q 335 1175 343 1175 z "},"":{"ha":694,"x_min":-7,"x_max":586,"o":"m -6 0 l 269 681 l 406 1021 l 469 1021 l 544 0 l 486 0 l 464 310 l 178 310 l 53 0 l -6 0 m 460 361 l 438 681 q 430 802 433 742 q 422 922 426 863 q 374 802 399 863 q 326 681 350 742 l 199 361 l 460 361 m 474 1119 q 423 1128 447 1119 q 384 1158 399 1138 q 365 1203 369 1178 q 365 1256 361 1229 q 378 1291 368 1274 q 403 1319 388 1308 q 437 1335 418 1331 q 474 1339 456 1339 q 524 1330 500 1339 q 563 1301 549 1321 q 582 1255 578 1281 q 581 1203 586 1229 q 568 1167 578 1185 q 544 1139 558 1150 q 510 1124 529 1128 q 474 1119 492 1119 m 474 1163 q 495 1165 485 1163 q 516 1174 506 1167 q 531 1191 526 1181 q 539 1213 536 1201 q 539 1245 542 1229 q 527 1273 536 1261 q 503 1290 518 1285 q 474 1296 489 1296 q 451 1294 463 1296 q 430 1285 440 1292 q 415 1267 419 1278 q 408 1246 410 1257 q 408 1213 406 1229 q 419 1185 410 1197 q 443 1168 428 1174 q 474 1163 458 1163 z "},"":{"ha":694,"x_min":-10,"x_max":696,"o":"m -8 0 l 396 1021 l 694 1021 l 686 969 l 471 969 l 403 557 l 606 557 l 597 506 l 394 506 l 319 51 l 535 51 l 526 0 l 256 0 l 307 311 l 171 311 l 47 0 l -8 0 m 190 361 l 315 361 l 406 906 q 361 794 383 850 q 317 681 339 738 l 190 361 z "},"":{"ha":694,"x_min":46,"x_max":661,"o":"m 269 -11 q 196 -3 232 -11 q 131 26 160 6 q 82 76 101 46 q 55 142 63 107 q 48 216 47 178 q 54 292 49 254 l 135 771 q 151 840 140 806 q 182 905 163 874 q 230 962 201 936 q 291 1003 258 988 q 359 1026 324 1019 q 429 1032 394 1032 q 495 1027 463 1032 q 556 1008 528 1022 q 607 972 585 994 q 642 922 629 950 q 657 860 654 893 q 654 794 660 828 l 653 785 l 597 785 l 599 792 q 597 869 606 832 q 563 933 589 907 q 501 970 538 960 q 425 981 464 981 q 368 975 397 981 q 313 956 339 969 q 264 920 286 942 q 226 873 242 899 q 202 819 211 847 q 189 763 193 792 l 108 283 q 103 224 104 254 q 108 165 103 193 q 128 113 114 138 q 165 71 143 88 q 217 47 188 54 q 275 40 246 40 q 355 52 315 40 q 428 92 394 64 q 481 158 461 119 q 507 236 500 196 l 563 236 q 544 170 557 203 q 510 108 531 138 q 463 54 490 78 q 403 15 435 31 q 338 -6 372 0 q 269 -11 303 -11 m 79 -306 l 88 -256 l 226 -256 q 261 -253 243 -256 q 295 -242 279 -250 q 322 -219 311 -233 q 338 -186 333 -204 q 333 -154 340 -169 q 313 -131 326 -139 q 283 -119 300 -122 q 250 -117 267 -117 l 222 -117 l 249 40 l 304 40 l 285 -72 q 328 -83 307 -75 q 365 -106 350 -90 q 386 -143 381 -121 q 388 -189 392 -165 q 367 -240 383 -215 q 326 -280 350 -265 q 273 -300 301 -294 q 218 -306 244 -306 l 79 -306 z "},"":{"ha":694,"x_min":28,"x_max":690,"o":"m 29 0 l 197 1021 l 689 1021 l 681 969 l 244 969 l 176 557 l 538 557 l 529 506 l 168 506 l 93 51 l 529 51 l 521 0 l 29 0 m 464 1121 l 343 1313 l 393 1340 l 504 1143 l 464 1121 z "},"":{"ha":694,"x_min":28,"x_max":690,"o":"m 29 0 l 197 1021 l 689 1021 l 681 969 l 244 969 l 176 557 l 538 557 l 529 506 l 168 506 l 93 51 l 529 51 l 521 0 l 29 0 m 447 1117 l 413 1147 l 589 1344 l 632 1308 l 447 1117 z "},"":{"ha":694,"x_min":28,"x_max":690,"o":"m 29 0 l 197 1021 l 689 1021 l 681 969 l 244 969 l 176 557 l 538 557 l 529 506 l 168 506 l 93 51 l 529 51 l 521 0 l 29 0 m 325 1121 l 288 1153 l 456 1342 l 528 1342 l 632 1149 l 588 1125 l 483 1294 l 325 1121 z "},"":{"ha":694,"x_min":28,"x_max":690,"o":"m 29 0 l 197 1021 l 689 1021 l 681 969 l 244 969 l 176 557 l 538 557 l 529 506 l 168 506 l 93 51 l 529 51 l 521 0 l 29 0 m 613 1175 q 587 1179 599 1175 q 567 1193 575 1183 q 558 1216 560 1203 q 558 1243 557 1229 q 564 1260 560 1251 q 576 1274 568 1268 q 594 1281 585 1279 q 611 1283 603 1283 q 637 1279 625 1283 q 656 1265 649 1275 q 666 1242 664 1256 q 665 1215 668 1229 q 660 1199 664 1207 q 648 1185 656 1190 q 631 1177 640 1179 q 613 1175 621 1175 m 335 1175 q 309 1179 321 1175 q 290 1193 297 1183 q 281 1216 282 1203 q 281 1243 279 1229 q 286 1260 282 1251 q 299 1274 290 1268 q 316 1281 307 1279 q 333 1283 325 1283 q 359 1279 347 1283 q 378 1265 371 1275 q 388 1242 386 1256 q 388 1215 390 1229 q 382 1199 386 1207 q 370 1185 378 1190 q 353 1177 363 1179 q 335 1175 343 1175 z "},"":{"ha":694,"x_min":31,"x_max":676,"o":"m 518 0 l 32 0 l 32 51 l 250 51 l 401 969 l 189 969 l 189 1021 l 675 1021 l 675 969 l 457 969 l 306 51 l 518 51 l 518 0 m 464 1121 l 343 1313 l 393 1340 l 504 1143 l 464 1121 z "},"":{"ha":694,"x_min":31,"x_max":676,"o":"m 518 0 l 32 0 l 32 51 l 250 51 l 401 969 l 189 969 l 189 1021 l 675 1021 l 675 969 l 457 969 l 306 51 l 518 51 l 518 0 m 447 1117 l 413 1147 l 589 1344 l 632 1308 l 447 1117 z "},"":{"ha":694,"x_min":31,"x_max":676,"o":"m 518 0 l 32 0 l 32 51 l 250 51 l 401 969 l 189 969 l 189 1021 l 675 1021 l 675 969 l 457 969 l 306 51 l 518 51 l 518 0 m 325 1121 l 288 1153 l 456 1342 l 528 1342 l 632 1149 l 588 1125 l 483 1294 l 325 1121 z "},"":{"ha":694,"x_min":31,"x_max":676,"o":"m 518 0 l 32 0 l 32 51 l 250 51 l 401 969 l 189 969 l 189 1021 l 675 1021 l 675 969 l 457 969 l 306 51 l 518 51 l 518 0 m 613 1175 q 587 1179 599 1175 q 567 1193 575 1183 q 558 1216 560 1203 q 558 1243 557 1229 q 564 1260 560 1251 q 576 1274 568 1268 q 594 1281 585 1279 q 611 1283 603 1283 q 637 1279 625 1283 q 656 1265 649 1275 q 666 1242 664 1256 q 665 1215 668 1229 q 660 1199 664 1207 q 648 1185 656 1190 q 631 1177 640 1179 q 613 1175 621 1175 m 335 1175 q 309 1179 321 1175 q 290 1193 297 1183 q 281 1216 282 1203 q 281 1243 279 1229 q 286 1260 282 1251 q 299 1274 290 1268 q 316 1281 307 1279 q 333 1283 325 1283 q 359 1279 347 1283 q 378 1265 371 1275 q 388 1242 386 1256 q 388 1215 390 1229 q 382 1199 386 1207 q 370 1185 378 1190 q 353 1177 363 1179 q 335 1175 343 1175 z "},"":{"ha":694,"x_min":17,"x_max":656,"o":"m 18 0 l 99 486 l 26 486 l 25 535 l 106 535 l 186 1021 l 382 1021 q 467 1013 425 1021 q 543 987 508 1006 q 603 937 578 968 q 642 867 629 906 q 654 787 654 829 q 647 701 654 744 l 578 276 q 557 199 571 238 q 518 128 543 161 q 459 69 493 94 q 387 27 425 43 q 310 6 349 11 q 232 0 271 0 l 18 0 m 82 51 l 232 51 q 298 56 265 51 q 363 74 331 61 q 423 109 394 88 q 472 159 451 131 q 506 220 493 188 q 524 285 518 253 l 593 710 q 599 778 599 744 q 589 844 599 813 q 559 900 579 875 q 511 941 539 925 q 450 963 483 957 q 382 969 417 969 l 233 969 l 161 535 l 321 535 l 321 486 l 154 486 l 82 51 z "},"":{"ha":694,"x_min":17,"x_max":721,"o":"m 18 0 l 186 1021 l 261 1021 l 479 81 q 523 347 501 214 q 567 613 544 479 l 633 1021 l 689 1021 l 521 0 l 446 0 l 228 940 q 184 674 206 807 q 140 408 163 542 l 74 0 l 18 0 m 543 1129 q 526 1131 535 1129 q 511 1138 518 1133 q 498 1147 504 1142 q 487 1158 492 1151 q 477 1170 482 1164 q 469 1183 472 1176 q 462 1197 465 1190 q 455 1212 458 1204 q 448 1227 451 1219 q 441 1242 444 1235 q 434 1257 438 1250 q 426 1270 431 1264 q 418 1283 422 1276 q 406 1290 414 1290 q 394 1287 400 1290 q 384 1280 389 1283 q 374 1272 379 1276 q 364 1260 369 1267 q 356 1252 358 1254 q 351 1247 354 1250 q 344 1239 347 1243 q 338 1230 342 1235 q 331 1220 335 1225 q 324 1210 328 1215 q 317 1199 321 1204 q 308 1187 313 1193 q 300 1174 304 1181 q 292 1161 296 1168 q 283 1147 288 1154 q 274 1131 279 1139 l 228 1156 q 244 1185 236 1171 q 261 1211 253 1199 q 277 1235 269 1224 q 292 1256 285 1246 q 306 1274 299 1265 q 319 1289 313 1282 q 337 1306 326 1296 q 358 1324 347 1317 q 381 1335 368 1331 q 406 1340 393 1340 q 422 1338 414 1340 q 436 1332 429 1336 q 449 1323 443 1328 q 461 1312 456 1318 q 471 1299 467 1306 q 479 1286 475 1293 q 487 1272 483 1279 q 493 1258 490 1265 q 499 1242 496 1250 q 506 1227 503 1235 q 514 1213 510 1219 q 522 1199 518 1206 q 530 1186 525 1193 q 543 1179 535 1179 q 553 1183 549 1179 q 563 1190 558 1186 q 573 1198 568 1193 q 584 1209 578 1203 q 592 1217 590 1215 q 597 1223 593 1219 q 603 1231 600 1226 q 609 1240 606 1235 q 617 1249 613 1244 q 624 1260 621 1254 q 631 1271 628 1265 q 640 1283 635 1276 q 648 1295 644 1289 q 656 1308 651 1301 q 665 1323 661 1315 q 675 1339 669 1331 l 721 1314 q 704 1285 713 1299 q 688 1258 696 1271 q 672 1235 679 1246 q 657 1214 664 1224 q 643 1196 650 1204 q 629 1181 636 1188 q 612 1163 622 1174 q 591 1146 601 1153 q 568 1134 581 1139 q 543 1129 556 1129 z "},"":{"ha":694,"x_min":46,"x_max":661,"o":"m 276 -11 q 201 -3 238 -11 q 134 25 164 6 q 84 75 104 44 q 56 141 64 106 q 48 215 47 176 q 54 292 49 254 l 135 771 q 151 840 140 806 q 183 905 163 874 q 231 962 203 936 q 292 1003 258 988 q 361 1026 325 1019 q 431 1032 397 1032 q 506 1024 469 1032 q 573 996 543 1015 q 623 946 603 976 q 651 880 643 915 q 659 806 660 844 q 653 729 658 767 l 574 250 q 556 181 567 215 q 524 116 544 147 q 476 59 504 85 q 415 17 449 33 q 346 -5 382 1 q 276 -11 310 -11 m 278 40 q 335 45 306 40 q 390 64 364 50 q 440 99 417 78 q 478 147 463 121 q 504 201 494 172 q 519 258 514 229 l 599 738 q 603 797 603 767 q 598 856 604 828 q 578 909 592 885 q 541 950 564 933 q 490 974 518 967 q 431 981 461 981 q 373 976 403 981 q 317 957 343 971 q 267 922 290 943 q 228 874 244 900 q 203 820 213 849 q 189 763 193 792 l 108 283 q 103 224 104 254 q 109 165 103 193 q 129 112 115 136 q 166 71 143 88 q 218 47 189 54 q 278 40 247 40 m 464 1121 l 343 1313 l 393 1340 l 504 1143 l 464 1121 z "},"":{"ha":694,"x_min":46,"x_max":661,"o":"m 276 -11 q 201 -3 238 -11 q 134 25 164 6 q 84 75 104 44 q 56 141 64 106 q 48 215 47 176 q 54 292 49 254 l 135 771 q 151 840 140 806 q 183 905 163 874 q 231 962 203 936 q 292 1003 258 988 q 361 1026 325 1019 q 431 1032 397 1032 q 506 1024 469 1032 q 573 996 543 1015 q 623 946 603 976 q 651 880 643 915 q 659 806 660 844 q 653 729 658 767 l 574 250 q 556 181 567 215 q 524 116 544 147 q 476 59 504 85 q 415 17 449 33 q 346 -5 382 1 q 276 -11 310 -11 m 278 40 q 335 45 306 40 q 390 64 364 50 q 440 99 417 78 q 478 147 463 121 q 504 201 494 172 q 519 258 514 229 l 599 738 q 603 797 603 767 q 598 856 604 828 q 578 909 592 885 q 541 950 564 933 q 490 974 518 967 q 431 981 461 981 q 373 976 403 981 q 317 957 343 971 q 267 922 290 943 q 228 874 244 900 q 203 820 213 849 q 189 763 193 792 l 108 283 q 103 224 104 254 q 109 165 103 193 q 129 112 115 136 q 166 71 143 88 q 218 47 189 54 q 278 40 247 40 m 447 1117 l 413 1147 l 589 1344 l 632 1308 l 447 1117 z "},"":{"ha":694,"x_min":46,"x_max":661,"o":"m 276 -11 q 201 -3 238 -11 q 134 25 164 6 q 84 75 104 44 q 56 141 64 106 q 48 215 47 176 q 54 292 49 254 l 135 771 q 151 840 140 806 q 183 905 163 874 q 231 962 203 936 q 292 1003 258 988 q 361 1026 325 1019 q 431 1032 397 1032 q 506 1024 469 1032 q 573 996 543 1015 q 623 946 603 976 q 651 880 643 915 q 659 806 660 844 q 653 729 658 767 l 574 250 q 556 181 567 215 q 524 116 544 147 q 476 59 504 85 q 415 17 449 33 q 346 -5 382 1 q 276 -11 310 -11 m 278 40 q 335 45 306 40 q 390 64 364 50 q 440 99 417 78 q 478 147 463 121 q 504 201 494 172 q 519 258 514 229 l 599 738 q 603 797 603 767 q 598 856 604 828 q 578 909 592 885 q 541 950 564 933 q 490 974 518 967 q 431 981 461 981 q 373 976 403 981 q 317 957 343 971 q 267 922 290 943 q 228 874 244 900 q 203 820 213 849 q 189 763 193 792 l 108 283 q 103 224 104 254 q 109 165 103 193 q 129 112 115 136 q 166 71 143 88 q 218 47 189 54 q 278 40 247 40 m 325 1121 l 288 1153 l 456 1342 l 528 1342 l 632 1149 l 588 1125 l 483 1294 l 325 1121 z "},"":{"ha":694,"x_min":46,"x_max":721,"o":"m 276 -11 q 201 -3 238 -11 q 134 25 164 6 q 84 75 104 44 q 56 141 64 106 q 48 215 47 176 q 54 292 49 254 l 135 771 q 151 840 140 806 q 183 905 163 874 q 231 962 203 936 q 292 1003 258 988 q 361 1026 325 1019 q 431 1032 397 1032 q 506 1024 469 1032 q 573 996 543 1015 q 623 946 603 976 q 651 880 643 915 q 659 806 660 844 q 653 729 658 767 l 574 250 q 556 181 567 215 q 524 116 544 147 q 476 59 504 85 q 415 17 449 33 q 346 -5 382 1 q 276 -11 310 -11 m 278 40 q 335 45 306 40 q 390 64 364 50 q 440 99 417 78 q 478 147 463 121 q 504 201 494 172 q 519 258 514 229 l 599 738 q 603 797 603 767 q 598 856 604 828 q 578 909 592 885 q 541 950 564 933 q 490 974 518 967 q 431 981 461 981 q 373 976 403 981 q 317 957 343 971 q 267 922 290 943 q 228 874 244 900 q 203 820 213 849 q 189 763 193 792 l 108 283 q 103 224 104 254 q 109 165 103 193 q 129 112 115 136 q 166 71 143 88 q 218 47 189 54 q 278 40 247 40 m 543 1129 q 526 1131 535 1129 q 511 1138 518 1133 q 498 1147 504 1142 q 487 1158 492 1151 q 477 1170 482 1164 q 469 1183 472 1176 q 462 1197 465 1190 q 455 1212 458 1204 q 448 1227 451 1219 q 441 1242 444 1235 q 434 1257 438 1250 q 426 1270 431 1264 q 418 1283 422 1276 q 406 1290 414 1290 q 394 1287 400 1290 q 384 1280 389 1283 q 374 1272 379 1276 q 364 1260 369 1267 q 356 1252 358 1254 q 351 1247 354 1250 q 344 1239 347 1243 q 338 1230 342 1235 q 331 1220 335 1225 q 324 1210 328 1215 q 317 1199 321 1204 q 308 1187 313 1193 q 300 1174 304 1181 q 292 1161 296 1168 q 283 1147 288 1154 q 274 1131 279 1139 l 228 1156 q 244 1185 236 1171 q 261 1211 253 1199 q 277 1235 269 1224 q 292 1256 285 1246 q 306 1274 299 1265 q 319 1289 313 1282 q 337 1306 326 1296 q 358 1324 347 1317 q 381 1335 368 1331 q 406 1340 393 1340 q 422 1338 414 1340 q 436 1332 429 1336 q 449 1323 443 1328 q 461 1312 456 1318 q 471 1299 467 1306 q 479 1286 475 1293 q 487 1272 483 1279 q 493 1258 490 1265 q 499 1242 496 1250 q 506 1227 503 1235 q 514 1213 510 1219 q 522 1199 518 1206 q 530 1186 525 1193 q 543 1179 535 1179 q 553 1183 549 1179 q 563 1190 558 1186 q 573 1198 568 1193 q 584 1209 578 1203 q 592 1217 590 1215 q 597 1223 593 1219 q 603 1231 600 1226 q 609 1240 606 1235 q 617 1249 613 1244 q 624 1260 621 1254 q 631 1271 628 1265 q 640 1283 635 1276 q 648 1295 644 1289 q 656 1308 651 1301 q 665 1323 661 1315 q 675 1339 669 1331 l 721 1314 q 704 1285 713 1299 q 688 1258 696 1271 q 672 1235 679 1246 q 657 1214 664 1224 q 643 1196 650 1204 q 629 1181 636 1188 q 612 1163 622 1174 q 591 1146 601 1153 q 568 1134 581 1139 q 543 1129 556 1129 z "},"":{"ha":694,"x_min":46,"x_max":668,"o":"m 276 -11 q 201 -3 238 -11 q 134 25 164 6 q 84 75 104 44 q 56 141 64 106 q 48 215 47 176 q 54 292 49 254 l 135 771 q 151 840 140 806 q 183 905 163 874 q 231 962 203 936 q 292 1003 258 988 q 361 1026 325 1019 q 431 1032 397 1032 q 506 1024 469 1032 q 573 996 543 1015 q 623 946 603 976 q 651 880 643 915 q 659 806 660 844 q 653 729 658 767 l 574 250 q 556 181 567 215 q 524 116 544 147 q 476 59 504 85 q 415 17 449 33 q 346 -5 382 1 q 276 -11 310 -11 m 278 40 q 335 45 306 40 q 390 64 364 50 q 440 99 417 78 q 478 147 463 121 q 504 201 494 172 q 519 258 514 229 l 599 738 q 603 797 603 767 q 598 856 604 828 q 578 909 592 885 q 541 950 564 933 q 490 974 518 967 q 431 981 461 981 q 373 976 403 981 q 317 957 343 971 q 267 922 290 943 q 228 874 244 900 q 203 820 213 849 q 189 763 193 792 l 108 283 q 103 224 104 254 q 109 165 103 193 q 129 112 115 136 q 166 71 143 88 q 218 47 189 54 q 278 40 247 40 m 613 1175 q 587 1179 599 1175 q 567 1193 575 1183 q 558 1216 560 1203 q 558 1243 557 1229 q 564 1260 560 1251 q 576 1274 568 1268 q 594 1281 585 1279 q 611 1283 603 1283 q 637 1279 625 1283 q 656 1265 649 1275 q 666 1242 664 1256 q 665 1215 668 1229 q 660 1199 664 1207 q 648 1185 656 1190 q 631 1177 640 1179 q 613 1175 621 1175 m 335 1175 q 309 1179 321 1175 q 290 1193 297 1183 q 281 1216 282 1203 q 281 1243 279 1229 q 286 1260 282 1251 q 299 1274 290 1268 q 316 1281 307 1279 q 333 1283 325 1283 q 359 1279 347 1283 q 378 1265 371 1275 q 388 1242 386 1256 q 388 1215 390 1229 q 382 1199 386 1207 q 370 1185 378 1190 q 353 1177 363 1179 q 335 1175 343 1175 z "},"":{"ha":694,"x_min":8,"x_max":686,"o":"m 44 178 l 8 215 l 310 475 l 97 732 l 139 764 l 350 510 l 650 767 l 686 729 l 385 469 l 597 213 l 556 181 l 344 435 l 44 178 z "},"":{"ha":694,"x_min":0,"x_max":708,"o":"m 46 -64 l 0 -39 l 75 90 q 58 137 64 113 q 49 187 51 161 q 48 239 46 213 q 54 292 50 265 l 135 771 q 151 840 140 806 q 183 905 163 874 q 231 962 203 936 q 292 1003 258 988 q 361 1026 325 1019 q 431 1032 397 1032 q 522 1019 478 1032 q 597 975 567 1006 l 661 1085 l 707 1060 l 632 931 q 649 884 643 908 q 658 834 656 860 q 659 782 661 808 q 653 729 657 756 l 574 250 q 556 181 567 215 q 524 116 544 147 q 476 59 504 85 q 415 17 449 33 q 346 -5 382 1 q 276 -11 310 -11 q 185 2 229 -11 q 110 46 142 15 l 46 -64 m 113 151 l 568 925 q 508 967 544 954 q 431 981 472 981 q 373 976 403 981 q 317 957 343 971 q 267 922 290 943 q 228 874 244 900 q 203 820 213 849 q 189 763 193 792 l 108 283 q 104 217 104 250 q 113 151 104 183 m 278 40 q 335 45 306 40 q 390 64 364 50 q 440 99 417 78 q 478 147 463 121 q 504 201 494 172 q 519 258 514 229 l 599 738 q 604 804 604 771 q 594 869 604 838 l 139 96 q 199 53 163 67 q 278 40 236 40 z "},"":{"ha":694,"x_min":57,"x_max":690,"o":"m 276 -11 q 203 -3 239 -11 q 138 26 167 6 q 92 78 110 47 q 65 144 74 108 q 58 217 57 179 q 65 292 60 254 l 186 1021 l 242 1021 l 119 283 q 115 225 115 254 q 119 167 114 196 q 136 115 124 139 q 170 72 149 90 q 220 47 192 54 q 278 40 249 40 q 333 46 306 40 q 387 66 361 51 q 434 102 413 81 q 471 149 456 124 q 494 203 486 175 q 508 258 503 231 l 633 1021 l 689 1021 l 563 250 q 545 182 556 215 q 516 118 535 149 q 470 62 497 88 q 411 19 443 36 q 344 -4 379 3 q 276 -11 310 -11 m 464 1121 l 343 1313 l 393 1340 l 504 1143 l 464 1121 z "},"":{"ha":694,"x_min":57,"x_max":690,"o":"m 276 -11 q 203 -3 239 -11 q 138 26 167 6 q 92 78 110 47 q 65 144 74 108 q 58 217 57 179 q 65 292 60 254 l 186 1021 l 242 1021 l 119 283 q 115 225 115 254 q 119 167 114 196 q 136 115 124 139 q 170 72 149 90 q 220 47 192 54 q 278 40 249 40 q 333 46 306 40 q 387 66 361 51 q 434 102 413 81 q 471 149 456 124 q 494 203 486 175 q 508 258 503 231 l 633 1021 l 689 1021 l 563 250 q 545 182 556 215 q 516 118 535 149 q 470 62 497 88 q 411 19 443 36 q 344 -4 379 3 q 276 -11 310 -11 m 447 1117 l 413 1147 l 589 1344 l 632 1308 l 447 1117 z "},"":{"ha":694,"x_min":57,"x_max":690,"o":"m 276 -11 q 203 -3 239 -11 q 138 26 167 6 q 92 78 110 47 q 65 144 74 108 q 58 217 57 179 q 65 292 60 254 l 186 1021 l 242 1021 l 119 283 q 115 225 115 254 q 119 167 114 196 q 136 115 124 139 q 170 72 149 90 q 220 47 192 54 q 278 40 249 40 q 333 46 306 40 q 387 66 361 51 q 434 102 413 81 q 471 149 456 124 q 494 203 486 175 q 508 258 503 231 l 633 1021 l 689 1021 l 563 250 q 545 182 556 215 q 516 118 535 149 q 470 62 497 88 q 411 19 443 36 q 344 -4 379 3 q 276 -11 310 -11 m 325 1121 l 288 1153 l 456 1342 l 528 1342 l 632 1149 l 588 1125 l 483 1294 l 325 1121 z "},"":{"ha":694,"x_min":57,"x_max":690,"o":"m 276 -11 q 203 -3 239 -11 q 138 26 167 6 q 92 78 110 47 q 65 144 74 108 q 58 217 57 179 q 65 292 60 254 l 186 1021 l 242 1021 l 119 283 q 115 225 115 254 q 119 167 114 196 q 136 115 124 139 q 170 72 149 90 q 220 47 192 54 q 278 40 249 40 q 333 46 306 40 q 387 66 361 51 q 434 102 413 81 q 471 149 456 124 q 494 203 486 175 q 508 258 503 231 l 633 1021 l 689 1021 l 563 250 q 545 182 556 215 q 516 118 535 149 q 470 62 497 88 q 411 19 443 36 q 344 -4 379 3 q 276 -11 310 -11 m 613 1175 q 587 1179 599 1175 q 567 1193 575 1183 q 558 1216 560 1203 q 558 1243 557 1229 q 564 1260 560 1251 q 576 1274 568 1268 q 594 1281 585 1279 q 611 1283 603 1283 q 637 1279 625 1283 q 656 1265 649 1275 q 666 1242 664 1256 q 665 1215 668 1229 q 660 1199 664 1207 q 648 1185 656 1190 q 631 1177 640 1179 q 613 1175 621 1175 m 335 1175 q 309 1179 321 1175 q 290 1193 297 1183 q 281 1216 282 1203 q 281 1243 279 1229 q 286 1260 282 1251 q 299 1274 290 1268 q 316 1281 307 1279 q 333 1283 325 1283 q 359 1279 347 1283 q 378 1265 371 1275 q 388 1242 386 1256 q 388 1215 390 1229 q 382 1199 386 1207 q 370 1185 378 1190 q 353 1177 363 1179 q 335 1175 343 1175 z "},"":{"ha":694,"x_min":172,"x_max":704,"o":"m 242 0 l 310 410 l 172 1021 l 232 1021 l 347 483 l 643 1021 l 703 1021 l 364 403 l 297 0 l 242 0 m 447 1117 l 413 1147 l 589 1344 l 632 1308 l 447 1117 z "},"":{"ha":694,"x_min":40,"x_max":621,"o":"m 42 0 l 210 1021 l 267 1021 l 235 826 l 332 826 q 420 819 376 826 q 501 790 464 811 q 565 737 538 769 q 605 664 592 704 q 619 579 618 624 q 613 489 619 535 q 591 407 606 449 q 550 330 576 365 q 488 267 524 294 q 410 223 451 239 q 328 201 369 207 q 246 194 286 194 l 131 194 l 99 0 l 42 0 m 139 244 l 246 244 q 316 250 281 244 q 386 269 351 256 q 451 307 421 283 q 504 361 482 331 q 540 427 526 392 q 558 497 553 463 q 563 571 564 535 q 552 640 563 607 q 520 701 542 674 q 469 745 499 728 q 404 769 440 763 q 332 776 368 776 l 226 776 l 139 244 z "},"":{"ha":694,"x_min":17,"x_max":633,"o":"m 240 0 l 169 0 l 178 51 l 249 51 q 310 56 279 51 q 370 72 340 60 q 426 103 400 83 q 473 149 453 124 q 504 206 493 175 q 519 265 515 236 l 519 267 q 524 327 525 297 q 512 383 522 357 q 482 431 501 410 q 436 463 463 451 q 380 480 410 475 q 319 485 350 485 l 329 536 q 388 547 358 536 q 444 575 418 557 q 492 617 471 593 q 530 669 514 642 q 557 726 546 696 q 572 785 568 756 q 574 860 579 822 q 548 926 569 897 q 492 967 526 954 q 421 981 458 981 q 359 971 390 981 q 302 940 328 961 q 258 891 276 918 q 226 835 239 864 q 204 775 213 806 q 192 714 196 744 l 74 0 l 18 0 l 138 722 q 153 795 143 758 q 180 867 164 832 q 221 933 196 901 q 277 988 246 964 q 346 1022 308 1011 q 421 1032 383 1032 q 486 1026 454 1032 q 544 1003 518 1019 q 591 963 571 988 q 621 909 611 939 q 632 846 631 879 q 628 779 633 813 q 606 703 621 740 q 567 631 590 665 q 514 568 544 597 q 447 519 483 539 q 513 480 483 506 q 560 419 543 454 q 579 342 576 383 q 575 260 582 301 q 554 185 568 222 q 516 117 540 149 q 458 63 492 86 q 389 25 425 39 q 315 6 353 11 q 240 0 278 0 z "},"":{"ha":694,"x_min":32,"x_max":604,"o":"m 251 -11 q 192 -8 221 -11 q 136 6 163 -4 q 88 34 110 17 q 52 76 65 51 q 36 130 39 100 q 38 189 33 160 q 58 257 43 224 q 99 316 74 290 q 158 359 125 342 q 225 387 192 376 q 293 401 258 397 q 361 404 328 404 l 532 404 l 543 471 q 547 526 547 499 q 540 578 547 553 q 518 624 533 603 q 481 659 503 646 q 431 677 458 672 q 376 682 404 682 q 307 675 342 682 q 241 649 272 668 q 187 599 210 631 q 158 535 164 568 l 103 535 q 122 592 108 564 q 158 645 136 621 q 206 687 179 669 q 262 715 233 704 q 321 729 290 725 q 381 733 351 733 q 451 726 417 733 q 513 703 485 719 q 563 660 542 686 q 593 601 583 633 q 603 533 603 568 q 597 463 603 497 l 521 0 l 465 0 l 488 133 q 444 73 469 101 q 388 25 419 44 q 321 -3 356 6 q 251 -11 286 -11 m 269 40 q 328 47 299 40 q 385 69 358 53 q 434 108 413 85 q 472 158 456 131 q 497 214 488 185 q 510 272 506 243 l 524 354 l 361 354 q 306 351 333 354 q 250 341 278 349 q 196 321 222 333 q 147 288 169 308 q 111 242 125 268 q 93 188 97 215 q 92 141 89 164 q 108 100 96 118 q 139 70 119 82 q 179 51 158 58 q 224 42 200 44 q 269 40 247 40 m 414 822 l 293 1014 l 343 1042 l 454 844 l 414 822 z "},"":{"ha":694,"x_min":32,"x_max":604,"o":"m 251 -11 q 192 -8 221 -11 q 136 6 163 -4 q 88 34 110 17 q 52 76 65 51 q 36 130 39 100 q 38 189 33 160 q 58 257 43 224 q 99 316 74 290 q 158 359 125 342 q 225 387 192 376 q 293 401 258 397 q 361 404 328 404 l 532 404 l 543 471 q 547 526 547 499 q 540 578 547 553 q 518 624 533 603 q 481 659 503 646 q 431 677 458 672 q 376 682 404 682 q 307 675 342 682 q 241 649 272 668 q 187 599 210 631 q 158 535 164 568 l 103 535 q 122 592 108 564 q 158 645 136 621 q 206 687 179 669 q 262 715 233 704 q 321 729 290 725 q 381 733 351 733 q 451 726 417 733 q 513 703 485 719 q 563 660 542 686 q 593 601 583 633 q 603 533 603 568 q 597 463 603 497 l 521 0 l 465 0 l 488 133 q 444 73 469 101 q 388 25 419 44 q 321 -3 356 6 q 251 -11 286 -11 m 269 40 q 328 47 299 40 q 385 69 358 53 q 434 108 413 85 q 472 158 456 131 q 497 214 488 185 q 510 272 506 243 l 524 354 l 361 354 q 306 351 333 354 q 250 341 278 349 q 196 321 222 333 q 147 288 169 308 q 111 242 125 268 q 93 188 97 215 q 92 141 89 164 q 108 100 96 118 q 139 70 119 82 q 179 51 158 58 q 224 42 200 44 q 269 40 247 40 m 397 818 l 363 849 l 539 1046 l 582 1010 l 397 818 z "},"":{"ha":694,"x_min":32,"x_max":604,"o":"m 251 -11 q 192 -8 221 -11 q 136 6 163 -4 q 88 34 110 17 q 52 76 65 51 q 36 130 39 100 q 38 189 33 160 q 58 257 43 224 q 99 316 74 290 q 158 359 125 342 q 225 387 192 376 q 293 401 258 397 q 361 404 328 404 l 532 404 l 543 471 q 547 526 547 499 q 540 578 547 553 q 518 624 533 603 q 481 659 503 646 q 431 677 458 672 q 376 682 404 682 q 307 675 342 682 q 241 649 272 668 q 187 599 210 631 q 158 535 164 568 l 103 535 q 122 592 108 564 q 158 645 136 621 q 206 687 179 669 q 262 715 233 704 q 321 729 290 725 q 381 733 351 733 q 451 726 417 733 q 513 703 485 719 q 563 660 542 686 q 593 601 583 633 q 603 533 603 568 q 597 463 603 497 l 521 0 l 465 0 l 488 133 q 444 73 469 101 q 388 25 419 44 q 321 -3 356 6 q 251 -11 286 -11 m 269 40 q 328 47 299 40 q 385 69 358 53 q 434 108 413 85 q 472 158 456 131 q 497 214 488 185 q 510 272 506 243 l 524 354 l 361 354 q 306 351 333 354 q 250 341 278 349 q 196 321 222 333 q 147 288 169 308 q 111 242 125 268 q 93 188 97 215 q 92 141 89 164 q 108 100 96 118 q 139 70 119 82 q 179 51 158 58 q 224 42 200 44 q 269 40 247 40 m 275 822 l 238 854 l 406 1043 l 478 1043 l 582 850 l 538 826 l 433 996 l 275 822 z "},"":{"ha":694,"x_min":32,"x_max":671,"o":"m 251 -11 q 192 -8 221 -11 q 136 6 163 -4 q 88 34 110 17 q 52 76 65 51 q 36 130 39 100 q 38 189 33 160 q 58 257 43 224 q 99 316 74 290 q 158 359 125 342 q 225 387 192 376 q 293 401 258 397 q 361 404 328 404 l 532 404 l 543 471 q 547 526 547 499 q 540 578 547 553 q 518 624 533 603 q 481 659 503 646 q 431 677 458 672 q 376 682 404 682 q 307 675 342 682 q 241 649 272 668 q 187 599 210 631 q 158 535 164 568 l 103 535 q 122 592 108 564 q 158 645 136 621 q 206 687 179 669 q 262 715 233 704 q 321 729 290 725 q 381 733 351 733 q 451 726 417 733 q 513 703 485 719 q 563 660 542 686 q 593 601 583 633 q 603 533 603 568 q 597 463 603 497 l 521 0 l 465 0 l 488 133 q 444 73 469 101 q 388 25 419 44 q 321 -3 356 6 q 251 -11 286 -11 m 269 40 q 328 47 299 40 q 385 69 358 53 q 434 108 413 85 q 472 158 456 131 q 497 214 488 185 q 510 272 506 243 l 524 354 l 361 354 q 306 351 333 354 q 250 341 278 349 q 196 321 222 333 q 147 288 169 308 q 111 242 125 268 q 93 188 97 215 q 92 141 89 164 q 108 100 96 118 q 139 70 119 82 q 179 51 158 58 q 224 42 200 44 q 269 40 247 40 m 493 831 q 476 833 485 831 q 461 839 468 835 q 448 848 454 843 q 437 859 442 853 q 427 872 432 865 q 419 885 422 878 q 412 899 415 892 q 405 913 408 906 q 398 928 401 921 q 391 944 394 936 q 384 958 388 951 q 376 972 381 965 q 368 985 372 978 q 356 992 364 992 q 344 988 350 992 q 334 981 339 985 q 324 973 329 978 q 314 962 319 968 q 306 953 308 956 q 301 948 304 951 q 294 940 297 944 q 288 931 292 936 q 281 922 285 926 q 274 911 278 917 q 267 900 271 906 q 258 888 263 894 q 250 876 254 882 q 242 863 246 869 q 233 848 238 856 q 224 832 229 840 l 178 857 q 194 886 186 872 q 211 913 203 900 q 227 936 219 925 q 242 957 235 947 q 256 975 249 967 q 269 990 263 983 q 287 1008 276 997 q 308 1025 297 1018 q 331 1037 318 1032 q 356 1042 343 1042 q 372 1040 364 1042 q 386 1033 379 1038 q 399 1024 393 1029 q 411 1013 406 1019 q 421 1001 417 1007 q 429 988 425 994 q 437 974 433 981 q 443 959 440 967 q 449 944 446 951 q 456 928 453 936 q 464 914 460 921 q 472 901 468 907 q 480 888 475 894 q 493 881 485 881 q 503 884 499 881 q 513 891 508 888 q 523 899 518 894 q 534 910 528 904 q 542 919 540 917 q 547 924 543 921 q 553 932 550 928 q 559 941 556 936 q 567 951 563 946 q 574 961 571 956 q 581 972 578 967 q 590 984 585 978 q 598 997 594 990 q 606 1010 601 1003 q 615 1024 611 1017 q 625 1040 619 1032 l 671 1015 q 654 986 663 1000 q 638 960 646 972 q 622 936 629 947 q 607 915 614 925 q 593 897 600 906 q 579 882 586 889 q 562 865 572 875 q 541 847 551 854 q 518 835 531 840 q 493 831 506 831 z "},"":{"ha":694,"x_min":32,"x_max":618,"o":"m 251 -11 q 192 -8 221 -11 q 136 6 163 -4 q 88 34 110 17 q 52 76 65 51 q 36 130 39 100 q 38 189 33 160 q 58 257 43 224 q 99 316 74 290 q 158 359 125 342 q 225 387 192 376 q 293 401 258 397 q 361 404 328 404 l 532 404 l 543 471 q 547 526 547 499 q 540 578 547 553 q 518 624 533 603 q 481 659 503 646 q 431 677 458 672 q 376 682 404 682 q 307 675 342 682 q 241 649 272 668 q 187 599 210 631 q 158 535 164 568 l 103 535 q 122 592 108 564 q 158 645 136 621 q 206 687 179 669 q 262 715 233 704 q 321 729 290 725 q 381 733 351 733 q 451 726 417 733 q 513 703 485 719 q 563 660 542 686 q 593 601 583 633 q 603 533 603 568 q 597 463 603 497 l 521 0 l 465 0 l 488 133 q 444 73 469 101 q 388 25 419 44 q 321 -3 356 6 q 251 -11 286 -11 m 269 40 q 328 47 299 40 q 385 69 358 53 q 434 108 413 85 q 472 158 456 131 q 497 214 488 185 q 510 272 506 243 l 524 354 l 361 354 q 306 351 333 354 q 250 341 278 349 q 196 321 222 333 q 147 288 169 308 q 111 242 125 268 q 93 188 97 215 q 92 141 89 164 q 108 100 96 118 q 139 70 119 82 q 179 51 158 58 q 224 42 200 44 q 269 40 247 40 m 563 876 q 537 881 549 876 q 517 894 525 885 q 508 917 510 904 q 508 944 507 931 q 514 961 510 953 q 526 975 518 969 q 544 983 535 981 q 561 985 553 985 q 587 981 575 985 q 606 967 599 976 q 616 944 614 957 q 615 917 618 931 q 610 900 614 908 q 598 886 606 892 q 581 878 590 881 q 563 876 571 876 m 285 876 q 259 881 271 876 q 240 894 247 885 q 231 917 232 904 q 231 944 229 931 q 236 961 232 953 q 249 975 240 969 q 266 983 257 981 q 283 985 275 985 q 309 981 297 985 q 328 967 321 976 q 338 944 336 957 q 338 917 340 931 q 332 900 336 908 q 320 886 328 892 q 303 878 313 881 q 285 876 293 876 z "},"":{"ha":694,"x_min":32,"x_max":604,"o":"m 251 -11 q 192 -8 221 -11 q 136 6 163 -4 q 88 34 110 17 q 52 76 65 51 q 36 130 39 100 q 38 189 33 160 q 58 257 43 224 q 99 316 74 290 q 158 359 125 342 q 225 387 192 376 q 293 401 258 397 q 361 404 328 404 l 532 404 l 543 471 q 547 526 547 499 q 540 578 547 553 q 518 624 533 603 q 481 659 503 646 q 431 677 458 672 q 376 682 404 682 q 307 675 342 682 q 241 649 272 668 q 187 599 210 631 q 158 535 164 568 l 103 535 q 122 592 108 564 q 158 645 136 621 q 206 687 179 669 q 262 715 233 704 q 321 729 290 725 q 381 733 351 733 q 451 726 417 733 q 513 703 485 719 q 563 660 542 686 q 593 601 583 633 q 603 533 603 568 q 597 463 603 497 l 521 0 l 465 0 l 488 133 q 444 73 469 101 q 388 25 419 44 q 321 -3 356 6 q 251 -11 286 -11 m 269 40 q 328 47 299 40 q 385 69 358 53 q 434 108 413 85 q 472 158 456 131 q 497 214 488 185 q 510 272 506 243 l 524 354 l 361 354 q 306 351 333 354 q 250 341 278 349 q 196 321 222 333 q 147 288 169 308 q 111 242 125 268 q 93 188 97 215 q 92 141 89 164 q 108 100 96 118 q 139 70 119 82 q 179 51 158 58 q 224 42 200 44 q 269 40 247 40 m 424 821 q 373 830 397 821 q 334 859 349 839 q 315 905 319 879 q 315 957 311 931 q 328 992 318 975 q 353 1021 338 1010 q 387 1036 368 1032 q 424 1040 406 1040 q 474 1031 450 1040 q 513 1002 499 1022 q 532 956 528 982 q 531 904 536 931 q 518 869 528 886 q 494 840 508 851 q 460 825 479 829 q 424 821 442 821 m 424 864 q 445 866 435 864 q 466 875 456 868 q 481 892 476 882 q 489 914 486 903 q 489 947 492 931 q 477 974 486 963 q 453 992 468 986 q 424 997 439 997 q 401 995 413 997 q 380 986 390 993 q 365 969 369 979 q 358 947 360 958 q 358 915 356 931 q 369 887 360 899 q 393 869 378 875 q 424 864 408 864 z "},"":{"ha":694,"x_min":25,"x_max":631,"o":"m 156 -11 q 109 -4 132 -11 q 70 17 86 3 q 44 53 54 32 q 30 97 33 74 q 28 144 26 119 q 33 192 29 168 q 45 243 38 218 q 65 292 53 268 q 94 338 76 317 q 135 375 113 360 q 184 397 158 390 q 236 404 210 404 l 308 404 l 333 556 q 338 600 338 578 q 330 642 338 622 q 304 672 322 661 q 264 683 286 683 q 233 677 249 683 q 206 659 218 671 q 185 633 194 647 q 171 603 176 618 q 160 572 165 588 q 153 542 156 557 l 151 535 l 97 535 l 100 544 q 110 588 103 567 q 126 631 117 610 q 150 671 136 651 q 183 705 164 690 q 224 726 201 719 q 268 733 246 733 q 303 730 286 733 q 334 718 319 726 q 360 697 349 710 q 379 669 371 685 q 403 697 389 685 q 433 718 417 710 q 467 730 449 726 q 501 733 485 733 q 549 726 526 733 q 588 702 571 718 q 613 665 604 686 q 626 619 622 643 q 629 571 631 596 q 624 522 628 546 l 593 336 l 353 336 l 329 193 q 325 158 326 175 q 324 126 324 142 q 329 94 325 110 q 342 65 333 78 q 365 46 351 53 q 396 39 379 39 q 428 45 413 39 q 457 64 444 51 q 478 91 469 76 q 492 121 486 106 q 503 151 499 136 q 511 183 508 167 l 511 188 l 565 188 l 564 181 q 553 137 561 158 q 536 94 546 115 q 513 53 526 72 q 479 18 499 33 q 437 -4 460 3 q 392 -11 414 -11 q 354 -7 372 -11 q 322 8 336 -3 q 297 33 307 18 q 279 65 286 49 q 256 34 269 49 q 227 9 243 19 q 192 -6 211 -1 q 156 -11 174 -11 m 546 386 l 569 529 q 574 564 572 547 q 574 597 575 581 q 569 628 574 613 q 556 657 565 644 q 533 676 547 669 q 501 683 518 683 q 469 678 485 683 q 441 660 454 672 q 419 634 428 649 q 403 604 410 619 q 393 574 397 589 q 386 542 389 558 l 361 386 l 546 386 m 156 39 q 194 50 175 39 q 225 77 213 61 q 246 112 238 93 q 261 149 254 131 q 272 188 268 168 q 279 226 275 207 l 300 354 l 236 354 q 197 348 217 354 q 159 329 176 342 q 130 299 142 317 q 110 263 118 282 q 96 225 101 244 q 88 186 90 206 q 83 153 85 169 q 83 122 82 138 q 88 90 83 106 q 102 63 93 75 q 125 45 111 51 q 156 39 139 39 z "},"":{"ha":694,"x_min":46,"x_max":611,"o":"m 271 -11 q 196 -2 232 -11 q 131 28 160 7 q 83 80 101 49 q 56 147 64 111 q 49 222 47 183 q 56 299 50 261 l 83 465 q 101 535 89 501 q 132 601 113 569 q 178 660 151 633 q 239 703 206 686 q 308 726 272 719 q 379 733 344 733 q 446 728 413 733 q 508 710 479 724 q 558 674 536 696 q 592 622 579 651 q 608 560 604 593 q 606 494 611 528 l 604 486 l 549 486 l 549 492 q 547 569 556 532 q 515 634 539 607 q 453 672 490 661 q 375 682 415 682 q 318 676 347 682 q 262 656 289 671 q 213 618 235 640 q 176 569 192 596 q 151 515 160 543 q 138 457 143 486 l 110 290 q 104 229 106 260 q 109 170 103 199 q 128 116 115 142 q 164 73 142 90 q 215 48 186 56 q 276 40 244 40 q 356 52 315 40 q 428 92 396 64 q 481 159 461 121 q 507 236 500 197 l 563 236 q 544 170 557 203 q 510 108 531 138 q 463 55 490 79 q 403 16 435 31 q 338 -5 372 1 q 271 -11 303 -11 m 79 -306 l 88 -256 l 226 -256 q 261 -253 243 -256 q 295 -242 279 -250 q 322 -219 311 -233 q 338 -186 333 -204 q 333 -154 340 -169 q 313 -131 326 -139 q 283 -119 300 -122 q 250 -117 267 -117 l 222 -117 l 249 40 l 304 40 l 285 -72 q 328 -83 307 -75 q 365 -106 350 -90 q 386 -143 381 -121 q 388 -189 392 -165 q 367 -240 383 -215 q 326 -280 350 -265 q 273 -300 301 -294 q 218 -306 244 -306 l 79 -306 z "},"":{"ha":694,"x_min":47,"x_max":611,"o":"m 275 -11 q 199 -3 236 -11 q 132 26 161 6 q 84 78 103 47 q 56 146 65 110 q 49 221 47 182 q 56 299 50 260 l 83 465 q 101 535 89 501 q 132 601 113 569 q 179 660 151 633 q 240 703 207 686 q 310 726 274 719 q 381 733 346 733 q 457 725 419 733 q 524 696 494 717 q 574 644 554 675 q 601 576 593 613 q 609 501 610 540 q 601 424 608 463 l 588 336 l 118 336 l 110 290 q 104 229 106 260 q 109 169 103 199 q 130 115 115 140 q 167 72 144 89 q 220 47 190 54 q 281 40 250 40 q 351 47 315 40 q 419 73 386 54 q 474 122 451 92 q 504 188 497 153 l 560 188 q 540 129 554 158 q 503 76 525 100 q 453 35 481 53 q 396 8 426 18 q 335 -7 365 -3 q 275 -11 306 -11 m 126 386 l 540 386 l 547 432 q 553 493 553 463 q 549 553 554 524 q 529 607 543 582 q 492 650 515 632 q 440 675 469 668 q 381 682 411 682 q 322 676 351 682 q 265 656 293 671 q 215 619 238 642 q 178 571 193 597 q 153 515 163 544 q 138 457 143 486 l 126 386 m 414 822 l 293 1014 l 343 1042 l 454 844 l 414 822 z "},"":{"ha":694,"x_min":47,"x_max":611,"o":"m 275 -11 q 199 -3 236 -11 q 132 26 161 6 q 84 78 103 47 q 56 146 65 110 q 49 221 47 182 q 56 299 50 260 l 83 465 q 101 535 89 501 q 132 601 113 569 q 179 660 151 633 q 240 703 207 686 q 310 726 274 719 q 381 733 346 733 q 457 725 419 733 q 524 696 494 717 q 574 644 554 675 q 601 576 593 613 q 609 501 610 540 q 601 424 608 463 l 588 336 l 118 336 l 110 290 q 104 229 106 260 q 109 169 103 199 q 130 115 115 140 q 167 72 144 89 q 220 47 190 54 q 281 40 250 40 q 351 47 315 40 q 419 73 386 54 q 474 122 451 92 q 504 188 497 153 l 560 188 q 540 129 554 158 q 503 76 525 100 q 453 35 481 53 q 396 8 426 18 q 335 -7 365 -3 q 275 -11 306 -11 m 126 386 l 540 386 l 547 432 q 553 493 553 463 q 549 553 554 524 q 529 607 543 582 q 492 650 515 632 q 440 675 469 668 q 381 682 411 682 q 322 676 351 682 q 265 656 293 671 q 215 619 238 642 q 178 571 193 597 q 153 515 163 544 q 138 457 143 486 l 126 386 m 397 818 l 363 849 l 539 1046 l 582 1010 l 397 818 z "},"":{"ha":694,"x_min":47,"x_max":611,"o":"m 275 -11 q 199 -3 236 -11 q 132 26 161 6 q 84 78 103 47 q 56 146 65 110 q 49 221 47 182 q 56 299 50 260 l 83 465 q 101 535 89 501 q 132 601 113 569 q 179 660 151 633 q 240 703 207 686 q 310 726 274 719 q 381 733 346 733 q 457 725 419 733 q 524 696 494 717 q 574 644 554 675 q 601 576 593 613 q 609 501 610 540 q 601 424 608 463 l 588 336 l 118 336 l 110 290 q 104 229 106 260 q 109 169 103 199 q 130 115 115 140 q 167 72 144 89 q 220 47 190 54 q 281 40 250 40 q 351 47 315 40 q 419 73 386 54 q 474 122 451 92 q 504 188 497 153 l 560 188 q 540 129 554 158 q 503 76 525 100 q 453 35 481 53 q 396 8 426 18 q 335 -7 365 -3 q 275 -11 306 -11 m 126 386 l 540 386 l 547 432 q 553 493 553 463 q 549 553 554 524 q 529 607 543 582 q 492 650 515 632 q 440 675 469 668 q 381 682 411 682 q 322 676 351 682 q 265 656 293 671 q 215 619 238 642 q 178 571 193 597 q 153 515 163 544 q 138 457 143 486 l 126 386 m 275 822 l 238 854 l 406 1043 l 478 1043 l 582 850 l 538 826 l 433 996 l 275 822 z "},"":{"ha":694,"x_min":47,"x_max":618,"o":"m 275 -11 q 199 -3 236 -11 q 132 26 161 6 q 84 78 103 47 q 56 146 65 110 q 49 221 47 182 q 56 299 50 260 l 83 465 q 101 535 89 501 q 132 601 113 569 q 179 660 151 633 q 240 703 207 686 q 310 726 274 719 q 381 733 346 733 q 457 725 419 733 q 524 696 494 717 q 574 644 554 675 q 601 576 593 613 q 609 501 610 540 q 601 424 608 463 l 588 336 l 118 336 l 110 290 q 104 229 106 260 q 109 169 103 199 q 130 115 115 140 q 167 72 144 89 q 220 47 190 54 q 281 40 250 40 q 351 47 315 40 q 419 73 386 54 q 474 122 451 92 q 504 188 497 153 l 560 188 q 540 129 554 158 q 503 76 525 100 q 453 35 481 53 q 396 8 426 18 q 335 -7 365 -3 q 275 -11 306 -11 m 126 386 l 540 386 l 547 432 q 553 493 553 463 q 549 553 554 524 q 529 607 543 582 q 492 650 515 632 q 440 675 469 668 q 381 682 411 682 q 322 676 351 682 q 265 656 293 671 q 215 619 238 642 q 178 571 193 597 q 153 515 163 544 q 138 457 143 486 l 126 386 m 563 876 q 537 881 549 876 q 517 894 525 885 q 508 917 510 904 q 508 944 507 931 q 514 961 510 953 q 526 975 518 969 q 544 983 535 981 q 561 985 553 985 q 587 981 575 985 q 606 967 599 976 q 616 944 614 957 q 615 917 618 931 q 610 900 614 908 q 598 886 606 892 q 581 878 590 881 q 563 876 571 876 m 285 876 q 259 881 271 876 q 240 894 247 885 q 231 917 232 904 q 231 944 229 931 q 236 961 232 953 q 249 975 240 969 q 266 983 257 981 q 283 985 275 985 q 309 981 297 985 q 328 967 321 976 q 338 944 336 957 q 338 917 340 931 q 332 900 336 908 q 320 886 328 892 q 303 878 313 881 q 285 876 293 876 z "},"":{"ha":694,"x_min":31,"x_max":518,"o":"m 518 0 l 32 0 l 32 51 l 260 51 l 363 671 l 160 671 l 160 722 l 426 722 l 315 51 l 518 51 l 518 0 m 421 822 l 300 1014 l 350 1042 l 461 844 l 421 822 z "},"":{"ha":694,"x_min":31,"x_max":590,"o":"m 518 0 l 32 0 l 32 51 l 260 51 l 363 671 l 160 671 l 160 722 l 426 722 l 315 51 l 518 51 l 518 0 m 404 818 l 369 849 l 546 1046 l 589 1010 l 404 818 z "},"":{"ha":694,"x_min":31,"x_max":590,"o":"m 518 0 l 32 0 l 32 51 l 260 51 l 363 671 l 160 671 l 160 722 l 426 722 l 315 51 l 518 51 l 518 0 m 282 822 l 244 854 l 413 1043 l 485 1043 l 589 850 l 544 826 l 440 996 l 282 822 z "},"":{"ha":694,"x_min":31,"x_max":618,"o":"m 518 0 l 32 0 l 32 51 l 260 51 l 363 671 l 160 671 l 160 722 l 426 722 l 315 51 l 518 51 l 518 0 m 563 876 q 537 881 549 876 q 517 894 525 885 q 508 917 510 904 q 508 944 507 931 q 514 961 510 953 q 526 975 518 969 q 544 983 535 981 q 561 985 553 985 q 587 981 575 985 q 606 967 599 976 q 616 944 614 957 q 615 917 618 931 q 610 900 614 908 q 598 886 606 892 q 581 878 590 881 q 563 876 571 876 m 285 876 q 259 881 271 876 q 240 894 247 885 q 231 917 232 904 q 231 944 229 931 q 236 961 232 953 q 249 975 240 969 q 266 983 257 981 q 283 985 275 985 q 309 981 297 985 q 328 967 321 976 q 338 944 336 957 q 338 917 340 931 q 332 900 336 908 q 320 886 328 892 q 303 878 313 881 q 285 876 293 876 z "},"":{"ha":694,"x_min":50,"x_max":640,"o":"m 276 -11 q 197 -1 235 -11 q 130 34 158 10 q 83 92 101 58 q 58 165 65 126 q 52 245 50 204 q 61 326 54 286 q 76 398 67 363 q 103 467 86 433 q 147 532 121 501 q 204 584 172 563 q 273 615 236 606 q 344 624 310 624 q 419 613 383 624 q 482 579 456 603 q 524 524 508 556 q 547 456 539 492 q 538 616 553 538 q 489 763 524 694 l 192 683 l 178 731 l 463 807 q 362 909 422 867 q 229 971 301 951 l 242 1021 q 326 991 286 1010 q 402 947 367 972 q 467 890 438 922 q 519 822 496 858 l 625 850 l 639 803 l 543 778 q 583 674 567 728 q 603 562 599 619 q 601 444 607 504 q 586 326 596 385 l 579 285 q 562 212 572 249 q 532 140 551 175 q 485 76 513 106 q 423 26 457 46 q 351 -3 389 6 q 276 -11 313 -11 m 278 40 q 339 48 308 40 q 397 73 369 56 q 448 116 425 90 q 485 170 471 142 q 510 229 500 199 q 524 290 519 260 q 531 356 529 324 q 528 421 532 389 q 511 481 524 453 q 478 531 499 510 q 426 563 457 553 q 363 572 396 572 q 300 565 332 572 q 240 539 268 557 q 190 494 213 521 q 153 439 168 468 q 129 379 139 410 q 114 317 119 349 q 108 252 110 285 q 111 188 107 219 q 128 128 115 157 q 163 79 140 100 q 215 49 185 58 q 278 40 244 40 z "},"":{"ha":694,"x_min":17,"x_max":671,"o":"m 18 0 l 138 722 l 193 722 l 172 597 q 214 655 190 628 q 268 700 238 682 q 332 726 299 718 q 399 733 365 733 q 471 724 436 733 q 531 691 506 714 q 573 637 557 668 q 594 570 589 606 q 599 497 600 535 q 590 424 597 460 l 521 0 l 465 0 l 536 432 q 543 491 542 461 q 540 550 544 521 q 522 604 535 579 q 488 648 510 629 q 439 674 467 667 q 381 682 411 682 q 325 676 353 682 q 271 656 297 671 q 223 619 244 642 q 187 572 201 597 q 163 518 172 546 q 150 463 154 490 l 74 0 l 18 0 m 493 831 q 476 833 485 831 q 461 839 468 835 q 448 848 454 843 q 437 859 442 853 q 427 872 432 865 q 419 885 422 878 q 412 899 415 892 q 405 913 408 906 q 398 928 401 921 q 391 944 394 936 q 384 958 388 951 q 376 972 381 965 q 368 985 372 978 q 356 992 364 992 q 344 988 350 992 q 334 981 339 985 q 324 973 329 978 q 314 962 319 968 q 306 953 308 956 q 301 948 304 951 q 294 940 297 944 q 288 931 292 936 q 281 922 285 926 q 274 911 278 917 q 267 900 271 906 q 258 888 263 894 q 250 876 254 882 q 242 863 246 869 q 233 848 238 856 q 224 832 229 840 l 178 857 q 194 886 186 872 q 211 913 203 900 q 227 936 219 925 q 242 957 235 947 q 256 975 249 967 q 269 990 263 983 q 287 1008 276 997 q 308 1025 297 1018 q 331 1037 318 1032 q 356 1042 343 1042 q 372 1040 364 1042 q 386 1033 379 1038 q 399 1024 393 1029 q 411 1013 406 1019 q 421 1001 417 1007 q 429 988 425 994 q 437 974 433 981 q 443 959 440 967 q 449 944 446 951 q 456 928 453 936 q 464 914 460 921 q 472 901 468 907 q 480 888 475 894 q 493 881 485 881 q 503 884 499 881 q 513 891 508 888 q 523 899 518 894 q 534 910 528 904 q 542 919 540 917 q 547 924 543 921 q 553 932 550 928 q 559 941 556 936 q 567 951 563 946 q 574 961 571 956 q 581 972 578 967 q 590 984 585 978 q 598 997 594 990 q 606 1010 601 1003 q 615 1024 611 1017 q 625 1040 619 1032 l 671 1015 q 654 986 663 1000 q 638 960 646 972 q 622 936 629 947 q 607 915 614 925 q 593 897 600 906 q 579 882 586 889 q 562 865 572 875 q 541 847 551 854 q 518 835 531 840 q 493 831 506 831 z "},"":{"ha":694,"x_min":47,"x_max":611,"o":"m 276 -11 q 200 -3 238 -11 q 133 26 163 6 q 84 78 103 47 q 56 146 65 110 q 49 221 47 182 q 56 299 50 260 l 83 465 q 101 536 89 501 q 132 602 113 571 q 179 660 151 633 q 240 703 207 686 q 310 726 274 719 q 381 733 346 733 q 457 725 419 733 q 524 696 494 717 q 574 644 554 675 q 601 576 593 613 q 609 501 610 540 q 601 424 608 463 l 574 257 q 557 186 568 221 q 526 120 546 151 q 478 63 506 89 q 417 19 450 36 q 347 -4 383 3 q 276 -11 311 -11 m 278 40 q 335 46 306 40 q 392 66 365 51 q 442 103 419 81 q 481 151 465 125 q 506 207 496 178 q 519 265 515 236 l 547 432 q 553 493 553 463 q 549 553 554 524 q 529 607 543 582 q 492 650 515 632 q 441 675 469 668 q 381 682 413 682 q 323 676 353 682 q 265 656 293 671 q 215 619 238 642 q 178 571 193 597 q 153 515 163 544 q 138 457 143 486 l 110 290 q 104 229 106 260 q 108 169 103 199 q 128 115 114 140 q 165 72 142 90 q 217 47 188 54 q 278 40 246 40 m 414 822 l 293 1014 l 343 1042 l 454 844 l 414 822 z "},"":{"ha":694,"x_min":47,"x_max":611,"o":"m 276 -11 q 200 -3 238 -11 q 133 26 163 6 q 84 78 103 47 q 56 146 65 110 q 49 221 47 182 q 56 299 50 260 l 83 465 q 101 536 89 501 q 132 602 113 571 q 179 660 151 633 q 240 703 207 686 q 310 726 274 719 q 381 733 346 733 q 457 725 419 733 q 524 696 494 717 q 574 644 554 675 q 601 576 593 613 q 609 501 610 540 q 601 424 608 463 l 574 257 q 557 186 568 221 q 526 120 546 151 q 478 63 506 89 q 417 19 450 36 q 347 -4 383 3 q 276 -11 311 -11 m 278 40 q 335 46 306 40 q 392 66 365 51 q 442 103 419 81 q 481 151 465 125 q 506 207 496 178 q 519 265 515 236 l 547 432 q 553 493 553 463 q 549 553 554 524 q 529 607 543 582 q 492 650 515 632 q 441 675 469 668 q 381 682 413 682 q 323 676 353 682 q 265 656 293 671 q 215 619 238 642 q 178 571 193 597 q 153 515 163 544 q 138 457 143 486 l 110 290 q 104 229 106 260 q 108 169 103 199 q 128 115 114 140 q 165 72 142 90 q 217 47 188 54 q 278 40 246 40 m 397 818 l 363 849 l 539 1046 l 582 1010 l 397 818 z "},"":{"ha":694,"x_min":47,"x_max":611,"o":"m 276 -11 q 200 -3 238 -11 q 133 26 163 6 q 84 78 103 47 q 56 146 65 110 q 49 221 47 182 q 56 299 50 260 l 83 465 q 101 536 89 501 q 132 602 113 571 q 179 660 151 633 q 240 703 207 686 q 310 726 274 719 q 381 733 346 733 q 457 725 419 733 q 524 696 494 717 q 574 644 554 675 q 601 576 593 613 q 609 501 610 540 q 601 424 608 463 l 574 257 q 557 186 568 221 q 526 120 546 151 q 478 63 506 89 q 417 19 450 36 q 347 -4 383 3 q 276 -11 311 -11 m 278 40 q 335 46 306 40 q 392 66 365 51 q 442 103 419 81 q 481 151 465 125 q 506 207 496 178 q 519 265 515 236 l 547 432 q 553 493 553 463 q 549 553 554 524 q 529 607 543 582 q 492 650 515 632 q 441 675 469 668 q 381 682 413 682 q 323 676 353 682 q 265 656 293 671 q 215 619 238 642 q 178 571 193 597 q 153 515 163 544 q 138 457 143 486 l 110 290 q 104 229 106 260 q 108 169 103 199 q 128 115 114 140 q 165 72 142 90 q 217 47 188 54 q 278 40 246 40 m 275 822 l 238 854 l 406 1043 l 478 1043 l 582 850 l 538 826 l 433 996 l 275 822 z "},"":{"ha":694,"x_min":47,"x_max":671,"o":"m 276 -11 q 200 -3 238 -11 q 133 26 163 6 q 84 78 103 47 q 56 146 65 110 q 49 221 47 182 q 56 299 50 260 l 83 465 q 101 536 89 501 q 132 602 113 571 q 179 660 151 633 q 240 703 207 686 q 310 726 274 719 q 381 733 346 733 q 457 725 419 733 q 524 696 494 717 q 574 644 554 675 q 601 576 593 613 q 609 501 610 540 q 601 424 608 463 l 574 257 q 557 186 568 221 q 526 120 546 151 q 478 63 506 89 q 417 19 450 36 q 347 -4 383 3 q 276 -11 311 -11 m 278 40 q 335 46 306 40 q 392 66 365 51 q 442 103 419 81 q 481 151 465 125 q 506 207 496 178 q 519 265 515 236 l 547 432 q 553 493 553 463 q 549 553 554 524 q 529 607 543 582 q 492 650 515 632 q 441 675 469 668 q 381 682 413 682 q 323 676 353 682 q 265 656 293 671 q 215 619 238 642 q 178 571 193 597 q 153 515 163 544 q 138 457 143 486 l 110 290 q 104 229 106 260 q 108 169 103 199 q 128 115 114 140 q 165 72 142 90 q 217 47 188 54 q 278 40 246 40 m 493 831 q 476 833 485 831 q 461 839 468 835 q 448 848 454 843 q 437 859 442 853 q 427 872 432 865 q 419 885 422 878 q 412 899 415 892 q 405 913 408 906 q 398 928 401 921 q 391 944 394 936 q 384 958 388 951 q 376 972 381 965 q 368 985 372 978 q 356 992 364 992 q 344 988 350 992 q 334 981 339 985 q 324 973 329 978 q 314 962 319 968 q 306 953 308 956 q 301 948 304 951 q 294 940 297 944 q 288 931 292 936 q 281 922 285 926 q 274 911 278 917 q 267 900 271 906 q 258 888 263 894 q 250 876 254 882 q 242 863 246 869 q 233 848 238 856 q 224 832 229 840 l 178 857 q 194 886 186 872 q 211 913 203 900 q 227 936 219 925 q 242 957 235 947 q 256 975 249 967 q 269 990 263 983 q 287 1008 276 997 q 308 1025 297 1018 q 331 1037 318 1032 q 356 1042 343 1042 q 372 1040 364 1042 q 386 1033 379 1038 q 399 1024 393 1029 q 411 1013 406 1019 q 421 1001 417 1007 q 429 988 425 994 q 437 974 433 981 q 443 959 440 967 q 449 944 446 951 q 456 928 453 936 q 464 914 460 921 q 472 901 468 907 q 480 888 475 894 q 493 881 485 881 q 503 884 499 881 q 513 891 508 888 q 523 899 518 894 q 534 910 528 904 q 542 919 540 917 q 547 924 543 921 q 553 932 550 928 q 559 941 556 936 q 567 951 563 946 q 574 961 571 956 q 581 972 578 967 q 590 984 585 978 q 598 997 594 990 q 606 1010 601 1003 q 615 1024 611 1017 q 625 1040 619 1032 l 671 1015 q 654 986 663 1000 q 638 960 646 972 q 622 936 629 947 q 607 915 614 925 q 593 897 600 906 q 579 882 586 889 q 562 865 572 875 q 541 847 551 854 q 518 835 531 840 q 493 831 506 831 z "},"":{"ha":694,"x_min":47,"x_max":618,"o":"m 276 -11 q 200 -3 238 -11 q 133 26 163 6 q 84 78 103 47 q 56 146 65 110 q 49 221 47 182 q 56 299 50 260 l 83 465 q 101 536 89 501 q 132 602 113 571 q 179 660 151 633 q 240 703 207 686 q 310 726 274 719 q 381 733 346 733 q 457 725 419 733 q 524 696 494 717 q 574 644 554 675 q 601 576 593 613 q 609 501 610 540 q 601 424 608 463 l 574 257 q 557 186 568 221 q 526 120 546 151 q 478 63 506 89 q 417 19 450 36 q 347 -4 383 3 q 276 -11 311 -11 m 278 40 q 335 46 306 40 q 392 66 365 51 q 442 103 419 81 q 481 151 465 125 q 506 207 496 178 q 519 265 515 236 l 547 432 q 553 493 553 463 q 549 553 554 524 q 529 607 543 582 q 492 650 515 632 q 441 675 469 668 q 381 682 413 682 q 323 676 353 682 q 265 656 293 671 q 215 619 238 642 q 178 571 193 597 q 153 515 163 544 q 138 457 143 486 l 110 290 q 104 229 106 260 q 108 169 103 199 q 128 115 114 140 q 165 72 142 90 q 217 47 188 54 q 278 40 246 40 m 563 876 q 537 881 549 876 q 517 894 525 885 q 508 917 510 904 q 508 944 507 931 q 514 961 510 953 q 526 975 518 969 q 544 983 535 981 q 561 985 553 985 q 587 981 575 985 q 606 967 599 976 q 616 944 614 957 q 615 917 618 931 q 610 900 614 908 q 598 886 606 892 q 581 878 590 881 q 563 876 571 876 m 285 876 q 259 881 271 876 q 240 894 247 885 q 231 917 232 904 q 231 944 229 931 q 236 961 232 953 q 249 975 240 969 q 266 983 257 981 q 283 985 275 985 q 309 981 297 985 q 328 967 321 976 q 338 944 336 957 q 338 917 340 931 q 332 900 336 908 q 320 886 328 892 q 303 878 313 881 q 285 876 293 876 z "},"":{"ha":694,"x_min":92,"x_max":603,"o":"m 389 658 q 360 664 374 658 q 336 681 346 669 q 324 708 326 693 q 325 739 322 724 q 333 760 326 750 q 347 777 339 771 q 367 786 356 783 q 389 789 378 789 q 418 783 404 789 q 442 766 432 778 q 453 739 451 754 q 453 708 456 724 q 445 687 451 697 q 431 670 439 676 q 411 661 422 664 q 389 658 400 658 m 594 447 l 92 447 l 100 497 l 603 497 l 594 447 m 306 156 q 276 161 290 156 q 253 178 263 167 q 241 206 243 190 q 242 236 239 221 q 249 258 243 247 q 264 274 256 268 q 283 283 272 281 q 306 286 294 286 q 335 281 321 286 q 358 263 349 275 q 370 236 368 251 q 369 206 372 221 q 362 184 368 194 q 347 167 356 174 q 328 158 339 161 q 306 156 317 156 z "},"":{"ha":694,"x_min":4,"x_max":654,"o":"m 47 -51 l 4 -21 l 82 82 q 60 131 68 104 q 50 185 53 157 q 49 242 47 213 q 56 299 51 271 l 83 465 q 101 536 89 501 q 132 602 113 571 q 179 660 151 633 q 240 703 207 686 q 310 726 274 719 q 381 733 346 733 q 468 722 426 733 q 542 682 510 710 l 611 774 l 653 743 l 575 640 q 597 592 589 618 q 607 538 604 565 q 608 481 610 510 q 601 424 607 451 l 574 257 q 557 186 568 221 q 526 120 546 151 q 478 63 506 89 q 417 19 450 36 q 347 -4 383 3 q 276 -11 311 -11 q 189 1 231 -11 q 117 40 147 13 l 47 -51 m 121 132 l 508 636 q 451 672 485 661 q 381 682 417 682 q 323 676 353 682 q 265 656 293 671 q 215 619 238 642 q 178 571 193 597 q 153 515 163 544 q 138 457 143 486 l 110 290 q 105 250 107 271 q 104 209 103 229 q 110 169 106 189 q 121 132 114 150 m 278 40 q 335 46 306 40 q 392 66 365 51 q 442 103 419 81 q 481 151 465 125 q 506 207 496 178 q 519 265 515 236 l 547 432 q 553 472 551 451 q 553 513 554 493 q 548 553 551 533 q 536 590 544 572 l 150 86 q 208 51 174 61 q 278 40 242 40 z "},"":{"ha":694,"x_min":57,"x_max":640,"o":"m 258 -11 q 187 -1 221 -11 q 126 31 153 8 q 85 85 100 54 q 63 152 69 117 q 59 225 57 188 q 67 299 61 263 l 138 722 l 193 722 l 121 290 q 115 231 117 261 q 119 172 114 201 q 136 118 124 143 q 169 74 149 93 q 219 48 190 56 q 278 40 247 40 q 333 46 306 40 q 387 66 361 51 q 435 103 413 81 q 472 151 457 125 q 494 204 486 176 q 508 260 503 232 l 585 722 l 640 722 l 521 0 l 465 0 l 486 125 q 444 67 468 94 q 390 22 421 40 q 325 -3 358 4 q 258 -11 292 -11 m 414 822 l 293 1014 l 343 1042 l 454 844 l 414 822 z "},"":{"ha":694,"x_min":57,"x_max":640,"o":"m 258 -11 q 187 -1 221 -11 q 126 31 153 8 q 85 85 100 54 q 63 152 69 117 q 59 225 57 188 q 67 299 61 263 l 138 722 l 193 722 l 121 290 q 115 231 117 261 q 119 172 114 201 q 136 118 124 143 q 169 74 149 93 q 219 48 190 56 q 278 40 247 40 q 333 46 306 40 q 387 66 361 51 q 435 103 413 81 q 472 151 457 125 q 494 204 486 176 q 508 260 503 232 l 585 722 l 640 722 l 521 0 l 465 0 l 486 125 q 444 67 468 94 q 390 22 421 40 q 325 -3 358 4 q 258 -11 292 -11 m 397 818 l 363 849 l 539 1046 l 582 1010 l 397 818 z "},"":{"ha":694,"x_min":57,"x_max":640,"o":"m 258 -11 q 187 -1 221 -11 q 126 31 153 8 q 85 85 100 54 q 63 152 69 117 q 59 225 57 188 q 67 299 61 263 l 138 722 l 193 722 l 121 290 q 115 231 117 261 q 119 172 114 201 q 136 118 124 143 q 169 74 149 93 q 219 48 190 56 q 278 40 247 40 q 333 46 306 40 q 387 66 361 51 q 435 103 413 81 q 472 151 457 125 q 494 204 486 176 q 508 260 503 232 l 585 722 l 640 722 l 521 0 l 465 0 l 486 125 q 444 67 468 94 q 390 22 421 40 q 325 -3 358 4 q 258 -11 292 -11 m 275 822 l 238 854 l 406 1043 l 478 1043 l 582 850 l 538 826 l 433 996 l 275 822 z "},"":{"ha":694,"x_min":57,"x_max":640,"o":"m 258 -11 q 187 -1 221 -11 q 126 31 153 8 q 85 85 100 54 q 63 152 69 117 q 59 225 57 188 q 67 299 61 263 l 138 722 l 193 722 l 121 290 q 115 231 117 261 q 119 172 114 201 q 136 118 124 143 q 169 74 149 93 q 219 48 190 56 q 278 40 247 40 q 333 46 306 40 q 387 66 361 51 q 435 103 413 81 q 472 151 457 125 q 494 204 486 176 q 508 260 503 232 l 585 722 l 640 722 l 521 0 l 465 0 l 486 125 q 444 67 468 94 q 390 22 421 40 q 325 -3 358 4 q 258 -11 292 -11 m 563 876 q 537 881 549 876 q 517 894 525 885 q 508 917 510 904 q 508 944 507 931 q 514 961 510 953 q 526 975 518 969 q 544 983 535 981 q 561 985 553 985 q 587 981 575 985 q 606 967 599 976 q 616 944 614 957 q 615 917 618 931 q 610 900 614 908 q 598 886 606 892 q 581 878 590 881 q 563 876 571 876 m 285 876 q 259 881 271 876 q 240 894 247 885 q 231 917 232 904 q 231 944 229 931 q 236 961 232 953 q 249 975 240 969 q 266 983 257 981 q 283 985 275 985 q 309 981 297 985 q 328 967 321 976 q 338 944 336 957 q 338 917 340 931 q 332 900 336 908 q 320 886 328 892 q 303 878 313 881 q 285 876 293 876 z "},"":{"ha":694,"x_min":110,"x_max":660,"o":"m 110 -299 q 140 -233 125 -265 q 171 -168 156 -201 l 231 -44 l 118 722 l 176 722 l 272 38 l 601 722 l 660 722 l 168 -299 l 110 -299 m 397 818 l 363 849 l 539 1046 l 582 1010 l 397 818 z "},"":{"ha":694,"x_min":-32,"x_max":611,"o":"m -32 -299 l 186 1021 l 242 1021 l 172 596 q 215 654 189 626 q 271 700 240 682 q 336 726 301 718 q 404 733 371 733 q 477 724 442 733 q 540 692 513 714 q 583 638 567 669 q 605 572 599 607 q 610 499 611 536 q 601 424 608 461 l 574 257 q 558 190 568 224 q 531 126 549 157 q 489 67 514 94 q 433 22 464 40 q 367 -3 401 4 q 300 -11 333 -11 q 226 -1 261 -11 q 165 31 192 8 q 122 86 138 54 q 99 153 106 118 l 24 -299 l -32 -299 m 283 40 q 340 46 311 40 q 396 67 369 51 q 444 104 422 82 q 482 153 467 126 q 506 208 497 179 q 519 265 515 236 l 547 432 q 553 492 553 461 q 549 551 554 522 q 531 606 544 581 q 496 649 518 631 q 445 674 474 667 q 386 682 417 682 q 330 676 358 682 q 274 656 301 671 q 225 620 247 642 q 188 573 203 599 q 163 519 172 547 q 150 463 154 490 l 122 296 q 116 235 117 265 q 120 175 115 204 q 138 119 125 146 q 172 74 151 93 q 223 48 193 56 q 283 40 253 40 z "},"":{"ha":694,"x_min":110,"x_max":660,"o":"m 110 -299 q 140 -233 125 -265 q 171 -168 156 -201 l 231 -44 l 118 722 l 176 722 l 272 38 l 601 722 l 660 722 l 168 -299 l 110 -299 m 563 876 q 537 881 549 876 q 517 894 525 885 q 508 917 510 904 q 508 944 507 931 q 514 961 510 953 q 526 975 518 969 q 544 983 535 981 q 561 985 553 985 q 587 981 575 985 q 606 967 599 976 q 616 944 614 957 q 615 917 618 931 q 610 900 614 908 q 598 886 606 892 q 581 878 590 881 q 563 876 571 876 m 285 876 q 259 881 271 876 q 240 894 247 885 q 231 917 232 904 q 231 944 229 931 q 236 961 232 953 q 249 975 240 969 q 266 983 257 981 q 283 985 275 985 q 309 981 297 985 q 328 967 321 976 q 338 944 336 957 q 338 917 340 931 q 332 900 336 908 q 320 886 328 892 q 303 878 313 881 q 285 876 293 876 z "},"":{"ha":694,"x_min":-7,"x_max":682,"o":"m -6 0 l 269 681 l 406 1021 l 469 1021 l 544 0 l 486 0 l 464 310 l 178 310 l 53 0 l -6 0 m 460 361 l 438 681 q 430 802 433 742 q 422 922 426 863 q 374 802 399 863 q 326 681 350 742 l 199 361 l 460 361 m 265 1204 l 265 1254 l 682 1254 l 682 1204 l 265 1204 z "},"":{"ha":694,"x_min":32,"x_max":632,"o":"m 251 -11 q 192 -8 221 -11 q 136 6 163 -4 q 88 34 110 17 q 52 76 65 51 q 36 130 39 100 q 38 189 33 160 q 58 257 43 224 q 99 316 74 290 q 158 359 125 342 q 225 387 192 376 q 293 401 258 397 q 361 404 328 404 l 532 404 l 543 471 q 547 526 547 499 q 540 578 547 553 q 518 624 533 603 q 481 659 503 646 q 431 677 458 672 q 376 682 404 682 q 307 675 342 682 q 241 649 272 668 q 187 599 210 631 q 158 535 164 568 l 103 535 q 122 592 108 564 q 158 645 136 621 q 206 687 179 669 q 262 715 233 704 q 321 729 290 725 q 381 733 351 733 q 451 726 417 733 q 513 703 485 719 q 563 660 542 686 q 593 601 583 633 q 603 533 603 568 q 597 463 603 497 l 521 0 l 465 0 l 488 133 q 444 73 469 101 q 388 25 419 44 q 321 -3 356 6 q 251 -11 286 -11 m 269 40 q 328 47 299 40 q 385 69 358 53 q 434 108 413 85 q 472 158 456 131 q 497 214 488 185 q 510 272 506 243 l 524 354 l 361 354 q 306 351 333 354 q 250 341 278 349 q 196 321 222 333 q 147 288 169 308 q 111 242 125 268 q 93 188 97 215 q 92 141 89 164 q 108 100 96 118 q 139 70 119 82 q 179 51 158 58 q 224 42 200 44 q 269 40 247 40 m 215 906 l 215 956 l 632 956 l 632 906 l 215 906 z "},"":{"ha":694,"x_min":-7,"x_max":683,"o":"m -6 0 l 269 681 l 406 1021 l 469 1021 l 544 0 l 486 0 l 464 310 l 178 310 l 53 0 l -6 0 m 460 361 l 438 681 q 430 802 433 742 q 422 922 426 863 q 374 802 399 863 q 326 681 350 742 l 199 361 l 460 361 m 457 1132 q 382 1144 418 1132 q 322 1183 346 1156 q 294 1249 299 1211 q 294 1326 289 1288 l 350 1326 q 349 1269 346 1297 q 367 1221 351 1242 q 410 1191 383 1200 q 465 1182 436 1182 q 524 1191 494 1182 q 576 1221 553 1200 q 611 1269 599 1242 q 628 1326 624 1297 l 683 1326 q 659 1249 678 1288 q 608 1183 640 1211 q 536 1144 576 1156 q 457 1132 496 1132 z "},"":{"ha":694,"x_min":32,"x_max":635,"o":"m 251 -11 q 192 -8 221 -11 q 136 6 163 -4 q 88 34 110 17 q 52 76 65 51 q 36 130 39 100 q 38 189 33 160 q 58 257 43 224 q 99 316 74 290 q 158 359 125 342 q 225 387 192 376 q 293 401 258 397 q 361 404 328 404 l 532 404 l 543 471 q 547 526 547 499 q 540 578 547 553 q 518 624 533 603 q 481 659 503 646 q 431 677 458 672 q 376 682 404 682 q 307 675 342 682 q 241 649 272 668 q 187 599 210 631 q 158 535 164 568 l 103 535 q 122 592 108 564 q 158 645 136 621 q 206 687 179 669 q 262 715 233 704 q 321 729 290 725 q 381 733 351 733 q 451 726 417 733 q 513 703 485 719 q 563 660 542 686 q 593 601 583 633 q 603 533 603 568 q 597 463 603 497 l 521 0 l 465 0 l 488 133 q 444 73 469 101 q 388 25 419 44 q 321 -3 356 6 q 251 -11 286 -11 m 269 40 q 328 47 299 40 q 385 69 358 53 q 434 108 413 85 q 472 158 456 131 q 497 214 488 185 q 510 272 506 243 l 524 354 l 361 354 q 306 351 333 354 q 250 341 278 349 q 196 321 222 333 q 147 288 169 308 q 111 242 125 268 q 93 188 97 215 q 92 141 89 164 q 108 100 96 118 q 139 70 119 82 q 179 51 158 58 q 224 42 200 44 q 269 40 247 40 m 407 833 q 332 845 368 833 q 272 885 296 857 q 244 951 249 913 q 244 1028 239 989 l 300 1028 q 299 971 296 999 q 317 922 301 943 q 360 892 333 901 q 415 883 386 883 q 474 892 444 883 q 526 922 503 901 q 561 971 549 943 q 578 1028 574 999 l 633 1028 q 609 951 628 989 q 558 885 590 913 q 486 845 526 857 q 407 833 446 833 z "},"":{"ha":694,"x_min":-7,"x_max":544,"o":"m -6 0 l 269 681 l 406 1021 l 469 1021 l 544 0 l 486 0 l 464 310 l 178 310 l 53 0 l -6 0 m 460 361 l 438 681 q 430 802 433 742 q 422 922 426 863 q 374 802 399 863 q 326 681 350 742 l 199 361 l 460 361 m 439 -310 q 389 -303 414 -310 q 347 -280 364 -296 q 324 -240 329 -264 q 322 -189 318 -215 q 350 -117 329 -151 q 399 -53 371 -82 q 459 -1 426 -25 q 528 42 492 22 l 521 0 q 475 -40 497 -19 q 433 -84 453 -61 q 398 -133 414 -107 q 376 -187 382 -160 q 378 -218 375 -203 q 394 -243 382 -233 q 421 -256 406 -253 q 451 -260 436 -260 q 474 -258 463 -260 q 496 -254 485 -257 l 488 -304 q 463 -308 475 -307 q 439 -310 451 -310 z "},"":{"ha":694,"x_min":32,"x_max":604,"o":"m 251 -11 q 192 -8 221 -11 q 136 6 163 -4 q 88 34 110 17 q 52 76 65 51 q 36 130 39 100 q 38 189 33 160 q 58 257 43 224 q 99 316 74 290 q 158 359 125 342 q 225 387 192 376 q 293 401 258 397 q 361 404 328 404 l 532 404 l 543 471 q 547 526 547 499 q 540 578 547 553 q 518 624 533 603 q 481 659 503 646 q 431 677 458 672 q 376 682 404 682 q 307 675 342 682 q 241 649 272 668 q 187 599 210 631 q 158 535 164 568 l 103 535 q 122 592 108 564 q 158 645 136 621 q 206 687 179 669 q 262 715 233 704 q 321 729 290 725 q 381 733 351 733 q 451 726 417 733 q 513 703 485 719 q 563 660 542 686 q 593 601 583 633 q 603 533 603 568 q 597 463 603 497 l 521 0 l 465 0 l 488 133 q 444 73 469 101 q 388 25 419 44 q 321 -3 356 6 q 251 -11 286 -11 m 269 40 q 328 47 299 40 q 385 69 358 53 q 434 108 413 85 q 472 158 456 131 q 497 214 488 185 q 510 272 506 243 l 524 354 l 361 354 q 306 351 333 354 q 250 341 278 349 q 196 321 222 333 q 147 288 169 308 q 111 242 125 268 q 93 188 97 215 q 92 141 89 164 q 108 100 96 118 q 139 70 119 82 q 179 51 158 58 q 224 42 200 44 q 269 40 247 40 m 439 -310 q 389 -303 414 -310 q 347 -280 364 -296 q 324 -240 329 -264 q 322 -189 318 -215 q 350 -117 329 -151 q 399 -53 371 -82 q 459 -1 426 -25 q 528 42 492 22 l 521 0 q 475 -40 497 -19 q 433 -84 453 -61 q 398 -133 414 -107 q 376 -187 382 -160 q 378 -218 375 -203 q 394 -243 382 -233 q 421 -256 406 -253 q 451 -260 436 -260 q 474 -258 463 -260 q 496 -254 485 -257 l 488 -304 q 463 -308 475 -307 q 439 -310 451 -310 z "},"":{"ha":694,"x_min":46,"x_max":661,"o":"m 269 -11 q 196 -3 232 -11 q 131 26 160 6 q 82 76 101 46 q 55 142 63 107 q 48 216 47 178 q 54 292 49 254 l 135 771 q 151 840 140 806 q 182 905 163 874 q 230 962 201 936 q 291 1003 258 988 q 359 1026 324 1019 q 429 1032 394 1032 q 495 1027 463 1032 q 556 1008 528 1022 q 607 972 585 994 q 642 922 629 950 q 657 860 654 893 q 654 794 660 828 l 653 785 l 597 785 l 599 792 q 597 869 606 832 q 563 933 589 907 q 501 970 538 960 q 425 981 464 981 q 368 975 397 981 q 313 956 339 969 q 264 920 286 942 q 226 873 242 899 q 202 819 211 847 q 189 763 193 792 l 108 283 q 103 224 104 254 q 108 165 103 193 q 128 113 114 138 q 165 71 143 88 q 217 47 188 54 q 275 40 246 40 q 355 52 315 40 q 428 92 394 64 q 481 158 461 119 q 507 236 500 196 l 563 236 q 544 170 557 203 q 510 108 531 138 q 463 54 490 78 q 403 15 435 31 q 338 -6 372 0 q 269 -11 303 -11 m 447 1117 l 413 1147 l 589 1344 l 632 1308 l 447 1117 z "},"":{"ha":694,"x_min":46,"x_max":611,"o":"m 271 -11 q 196 -2 232 -11 q 131 28 160 7 q 83 80 101 49 q 56 147 64 111 q 49 222 47 183 q 56 299 50 261 l 83 465 q 101 535 89 501 q 132 601 113 569 q 178 660 151 633 q 239 703 206 686 q 308 726 272 719 q 379 733 344 733 q 446 728 413 733 q 508 710 479 724 q 558 674 536 696 q 592 622 579 651 q 608 560 604 593 q 606 494 611 528 l 604 486 l 549 486 l 549 492 q 547 569 556 532 q 515 634 539 607 q 453 672 490 661 q 375 682 415 682 q 318 676 347 682 q 262 656 289 671 q 213 618 235 640 q 176 569 192 596 q 151 515 160 543 q 138 457 143 486 l 110 290 q 104 229 106 260 q 109 170 103 199 q 128 116 115 142 q 164 73 142 90 q 215 48 186 56 q 276 40 244 40 q 356 52 315 40 q 428 92 396 64 q 481 159 461 121 q 507 236 500 197 l 563 236 q 544 170 557 203 q 510 108 531 138 q 463 55 490 79 q 403 16 435 31 q 338 -5 372 1 q 271 -11 303 -11 m 397 818 l 363 849 l 539 1046 l 582 1010 l 397 818 z "},"":{"ha":694,"x_min":46,"x_max":661,"o":"m 269 -11 q 196 -3 232 -11 q 131 26 160 6 q 82 76 101 46 q 55 142 63 107 q 48 216 47 178 q 54 292 49 254 l 135 771 q 151 840 140 806 q 182 905 163 874 q 230 962 201 936 q 291 1003 258 988 q 359 1026 324 1019 q 429 1032 394 1032 q 495 1027 463 1032 q 556 1008 528 1022 q 607 972 585 994 q 642 922 629 950 q 657 860 654 893 q 654 794 660 828 l 653 785 l 597 785 l 599 792 q 597 869 606 832 q 563 933 589 907 q 501 970 538 960 q 425 981 464 981 q 368 975 397 981 q 313 956 339 969 q 264 920 286 942 q 226 873 242 899 q 202 819 211 847 q 189 763 193 792 l 108 283 q 103 224 104 254 q 108 165 103 193 q 128 113 114 138 q 165 71 143 88 q 217 47 188 54 q 275 40 246 40 q 355 52 315 40 q 428 92 394 64 q 481 158 461 119 q 507 236 500 196 l 563 236 q 544 170 557 203 q 510 108 531 138 q 463 54 490 78 q 403 15 435 31 q 338 -6 372 0 q 269 -11 303 -11 m 325 1121 l 288 1153 l 456 1342 l 528 1342 l 632 1149 l 588 1125 l 483 1294 l 325 1121 z "},"":{"ha":694,"x_min":46,"x_max":611,"o":"m 271 -11 q 196 -2 232 -11 q 131 28 160 7 q 83 80 101 49 q 56 147 64 111 q 49 222 47 183 q 56 299 50 261 l 83 465 q 101 535 89 501 q 132 601 113 569 q 178 660 151 633 q 239 703 206 686 q 308 726 272 719 q 379 733 344 733 q 446 728 413 733 q 508 710 479 724 q 558 674 536 696 q 592 622 579 651 q 608 560 604 593 q 606 494 611 528 l 604 486 l 549 486 l 549 492 q 547 569 556 532 q 515 634 539 607 q 453 672 490 661 q 375 682 415 682 q 318 676 347 682 q 262 656 289 671 q 213 618 235 640 q 176 569 192 596 q 151 515 160 543 q 138 457 143 486 l 110 290 q 104 229 106 260 q 109 170 103 199 q 128 116 115 142 q 164 73 142 90 q 215 48 186 56 q 276 40 244 40 q 356 52 315 40 q 428 92 396 64 q 481 159 461 121 q 507 236 500 197 l 563 236 q 544 170 557 203 q 510 108 531 138 q 463 55 490 79 q 403 16 435 31 q 338 -5 372 1 q 271 -11 303 -11 m 275 822 l 238 854 l 406 1043 l 478 1043 l 582 850 l 538 826 l 433 996 l 275 822 z "},"":{"ha":694,"x_min":46,"x_max":661,"o":"m 269 -11 q 196 -3 232 -11 q 131 26 160 6 q 82 76 101 46 q 55 142 63 107 q 48 216 47 178 q 54 292 49 254 l 135 771 q 151 840 140 806 q 182 905 163 874 q 230 962 201 936 q 291 1003 258 988 q 359 1026 324 1019 q 429 1032 394 1032 q 495 1027 463 1032 q 556 1008 528 1022 q 607 972 585 994 q 642 922 629 950 q 657 860 654 893 q 654 794 660 828 l 653 785 l 597 785 l 599 792 q 597 869 606 832 q 563 933 589 907 q 501 970 538 960 q 425 981 464 981 q 368 975 397 981 q 313 956 339 969 q 264 920 286 942 q 226 873 242 899 q 202 819 211 847 q 189 763 193 792 l 108 283 q 103 224 104 254 q 108 165 103 193 q 128 113 114 138 q 165 71 143 88 q 217 47 188 54 q 275 40 246 40 q 355 52 315 40 q 428 92 394 64 q 481 158 461 119 q 507 236 500 196 l 563 236 q 544 170 557 203 q 510 108 531 138 q 463 54 490 78 q 403 15 435 31 q 338 -6 372 0 q 269 -11 303 -11 m 474 1175 q 448 1179 460 1175 q 428 1193 436 1183 q 419 1216 421 1203 q 419 1243 418 1229 q 425 1260 421 1251 q 438 1274 429 1268 q 455 1281 446 1279 q 472 1283 464 1283 q 498 1279 486 1283 q 517 1265 510 1275 q 527 1242 525 1256 q 526 1215 529 1229 q 521 1199 525 1207 q 509 1185 517 1190 q 492 1177 501 1179 q 474 1175 482 1175 z "},"":{"ha":694,"x_min":46,"x_max":611,"o":"m 271 -11 q 196 -2 232 -11 q 131 28 160 7 q 83 80 101 49 q 56 147 64 111 q 49 222 47 183 q 56 299 50 261 l 83 465 q 101 535 89 501 q 132 601 113 569 q 178 660 151 633 q 239 703 206 686 q 308 726 272 719 q 379 733 344 733 q 446 728 413 733 q 508 710 479 724 q 558 674 536 696 q 592 622 579 651 q 608 560 604 593 q 606 494 611 528 l 604 486 l 549 486 l 549 492 q 547 569 556 532 q 515 634 539 607 q 453 672 490 661 q 375 682 415 682 q 318 676 347 682 q 262 656 289 671 q 213 618 235 640 q 176 569 192 596 q 151 515 160 543 q 138 457 143 486 l 110 290 q 104 229 106 260 q 109 170 103 199 q 128 116 115 142 q 164 73 142 90 q 215 48 186 56 q 276 40 244 40 q 356 52 315 40 q 428 92 396 64 q 481 159 461 121 q 507 236 500 197 l 563 236 q 544 170 557 203 q 510 108 531 138 q 463 55 490 79 q 403 16 435 31 q 338 -5 372 1 q 271 -11 303 -11 m 424 876 q 398 881 410 876 q 378 894 386 885 q 369 917 371 904 q 369 944 368 931 q 375 961 371 953 q 388 975 379 969 q 405 983 396 981 q 422 985 414 985 q 448 981 436 985 q 467 967 460 976 q 477 944 475 957 q 476 917 479 931 q 471 900 475 908 q 459 886 467 892 q 442 878 451 881 q 424 876 432 876 z "},"":{"ha":694,"x_min":46,"x_max":663,"o":"m 269 -11 q 196 -3 232 -11 q 131 26 160 6 q 82 76 101 46 q 55 142 63 107 q 48 216 47 178 q 54 292 49 254 l 135 771 q 151 840 140 806 q 182 905 163 874 q 230 962 201 936 q 291 1003 258 988 q 359 1026 324 1019 q 429 1032 394 1032 q 495 1027 463 1032 q 556 1008 528 1022 q 607 972 585 994 q 642 922 629 950 q 657 860 654 893 q 654 794 660 828 l 653 785 l 597 785 l 599 792 q 597 869 606 832 q 563 933 589 907 q 501 970 538 960 q 425 981 464 981 q 368 975 397 981 q 313 956 339 969 q 264 920 286 942 q 226 873 242 899 q 202 819 211 847 q 189 763 193 792 l 108 283 q 103 224 104 254 q 108 165 103 193 q 128 113 114 138 q 165 71 143 88 q 217 47 188 54 q 275 40 246 40 q 355 52 315 40 q 428 92 394 64 q 481 158 461 119 q 507 236 500 196 l 563 236 q 544 170 557 203 q 510 108 531 138 q 463 54 490 78 q 403 15 435 31 q 338 -6 372 0 q 269 -11 303 -11 m 421 1132 l 317 1325 l 361 1349 l 465 1179 l 624 1353 l 663 1321 l 493 1132 l 421 1132 z "},"":{"ha":694,"x_min":46,"x_max":613,"o":"m 271 -11 q 196 -2 232 -11 q 131 28 160 7 q 83 80 101 49 q 56 147 64 111 q 49 222 47 183 q 56 299 50 261 l 83 465 q 101 535 89 501 q 132 601 113 569 q 178 660 151 633 q 239 703 206 686 q 308 726 272 719 q 379 733 344 733 q 446 728 413 733 q 508 710 479 724 q 558 674 536 696 q 592 622 579 651 q 608 560 604 593 q 606 494 611 528 l 604 486 l 549 486 l 549 492 q 547 569 556 532 q 515 634 539 607 q 453 672 490 661 q 375 682 415 682 q 318 676 347 682 q 262 656 289 671 q 213 618 235 640 q 176 569 192 596 q 151 515 160 543 q 138 457 143 486 l 110 290 q 104 229 106 260 q 109 170 103 199 q 128 116 115 142 q 164 73 142 90 q 215 48 186 56 q 276 40 244 40 q 356 52 315 40 q 428 92 396 64 q 481 159 461 121 q 507 236 500 197 l 563 236 q 544 170 557 203 q 510 108 531 138 q 463 55 490 79 q 403 16 435 31 q 338 -5 372 1 q 271 -11 303 -11 m 371 833 l 267 1026 l 311 1050 l 415 881 l 574 1054 l 613 1022 l 443 833 l 371 833 z "},"":{"ha":694,"x_min":17,"x_max":663,"o":"m 18 0 l 186 1021 l 382 1021 q 467 1013 425 1021 q 543 987 508 1006 q 603 937 578 968 q 642 867 629 906 q 654 787 654 829 q 647 701 654 744 l 578 276 q 557 199 571 238 q 518 128 543 161 q 459 69 493 94 q 387 27 425 43 q 310 6 349 11 q 232 0 271 0 l 18 0 m 82 51 l 232 51 q 298 56 265 51 q 363 74 331 61 q 423 109 394 88 q 472 159 451 131 q 506 220 493 188 q 524 285 518 253 l 593 710 q 599 778 599 744 q 589 844 599 813 q 559 900 579 875 q 511 941 539 925 q 450 963 483 957 q 382 969 417 969 l 233 969 l 82 51 m 421 1132 l 317 1325 l 361 1349 l 465 1179 l 624 1353 l 663 1321 l 493 1132 l 421 1132 z "},"":{"ha":694,"x_min":43,"x_max":775,"o":"m 685 810 l 651 838 q 689 894 674 864 q 714 957 704 925 q 699 960 706 957 q 687 970 692 964 q 681 985 682 976 q 681 1001 679 993 q 686 1020 682 1011 q 699 1035 690 1029 q 716 1044 707 1042 q 735 1047 725 1047 q 752 1044 744 1047 q 765 1035 760 1042 q 772 1020 771 1029 q 772 1001 774 1011 q 743 901 764 951 q 685 810 722 851 m 236 -11 q 167 -1 200 -11 q 110 30 135 8 q 71 81 86 51 q 50 144 56 111 q 46 213 44 178 q 54 285 47 249 l 86 479 q 100 541 90 510 q 126 602 110 572 q 164 658 142 632 q 215 701 186 683 q 276 726 244 718 q 340 733 308 733 q 408 724 375 733 q 466 694 442 715 q 505 644 490 674 q 526 581 519 614 l 599 1021 l 654 1021 l 486 0 l 431 0 l 449 115 q 410 63 433 88 q 358 20 386 38 q 299 -4 331 3 q 236 -11 267 -11 m 254 40 q 307 46 281 40 q 358 65 333 51 q 402 99 382 79 q 436 144 422 119 q 458 194 450 168 q 471 247 467 221 l 503 442 q 509 498 508 469 q 506 554 510 526 q 490 606 501 582 q 460 649 479 631 q 413 674 440 667 q 358 682 386 682 q 305 676 332 682 q 253 656 278 671 q 208 620 228 642 q 174 574 188 599 q 153 524 161 550 q 140 471 144 497 l 108 276 q 102 219 103 247 q 106 165 101 192 q 122 113 110 138 q 153 72 133 89 q 199 48 172 56 q 254 40 226 40 z "},"":{"ha":694,"x_min":17,"x_max":656,"o":"m 18 0 l 99 486 l 26 486 l 25 535 l 106 535 l 186 1021 l 382 1021 q 467 1013 425 1021 q 543 987 508 1006 q 603 937 578 968 q 642 867 629 906 q 654 787 654 829 q 647 701 654 744 l 578 276 q 557 199 571 238 q 518 128 543 161 q 459 69 493 94 q 387 27 425 43 q 310 6 349 11 q 232 0 271 0 l 18 0 m 82 51 l 232 51 q 298 56 265 51 q 363 74 331 61 q 423 109 394 88 q 472 159 451 131 q 506 220 493 188 q 524 285 518 253 l 593 710 q 599 778 599 744 q 589 844 599 813 q 559 900 579 875 q 511 941 539 925 q 450 963 483 957 q 382 969 417 969 l 233 969 l 161 535 l 321 535 l 321 486 l 154 486 l 82 51 z "},"":{"ha":694,"x_min":46,"x_max":742,"o":"m 253 -11 q 181 -1 215 -11 q 119 31 146 8 q 75 84 92 53 q 53 151 58 115 q 49 224 47 186 q 56 299 50 261 l 83 465 q 99 532 89 499 q 126 597 108 565 q 169 655 144 628 q 225 700 194 682 q 290 726 256 718 q 357 733 324 733 q 431 724 396 733 q 493 691 467 714 q 536 636 519 668 q 560 569 553 604 l 606 847 l 444 847 l 444 896 l 613 896 l 633 1021 l 689 1021 l 668 896 l 740 896 l 742 847 l 661 847 l 521 0 l 465 0 l 486 126 q 443 68 468 96 q 387 22 418 40 q 321 -3 356 4 q 253 -11 286 -11 m 272 40 q 328 46 300 40 q 383 66 357 51 q 432 102 410 81 q 470 149 454 124 q 494 203 486 175 q 508 260 503 232 l 536 426 q 541 488 540 457 q 537 547 542 518 q 519 603 532 576 q 485 648 507 629 q 435 674 464 667 q 375 682 406 682 q 318 676 347 682 q 262 656 289 671 q 213 618 235 640 q 176 569 192 596 q 151 515 160 543 q 138 457 143 486 l 110 290 q 105 231 106 261 q 109 171 104 200 q 127 117 114 142 q 162 74 140 92 q 213 48 183 56 q 272 40 242 40 z "},"":{"ha":694,"x_min":28,"x_max":690,"o":"m 29 0 l 197 1021 l 689 1021 l 681 969 l 244 969 l 176 557 l 538 557 l 529 506 l 168 506 l 93 51 l 529 51 l 521 0 l 29 0 m 265 1204 l 265 1254 l 682 1254 l 682 1204 l 265 1204 z "},"":{"ha":694,"x_min":47,"x_max":632,"o":"m 275 -11 q 199 -3 236 -11 q 132 26 161 6 q 84 78 103 47 q 56 146 65 110 q 49 221 47 182 q 56 299 50 260 l 83 465 q 101 535 89 501 q 132 601 113 569 q 179 660 151 633 q 240 703 207 686 q 310 726 274 719 q 381 733 346 733 q 457 725 419 733 q 524 696 494 717 q 574 644 554 675 q 601 576 593 613 q 609 501 610 540 q 601 424 608 463 l 588 336 l 118 336 l 110 290 q 104 229 106 260 q 109 169 103 199 q 130 115 115 140 q 167 72 144 89 q 220 47 190 54 q 281 40 250 40 q 351 47 315 40 q 419 73 386 54 q 474 122 451 92 q 504 188 497 153 l 560 188 q 540 129 554 158 q 503 76 525 100 q 453 35 481 53 q 396 8 426 18 q 335 -7 365 -3 q 275 -11 306 -11 m 126 386 l 540 386 l 547 432 q 553 493 553 463 q 549 553 554 524 q 529 607 543 582 q 492 650 515 632 q 440 675 469 668 q 381 682 411 682 q 322 676 351 682 q 265 656 293 671 q 215 619 238 642 q 178 571 193 597 q 153 515 163 544 q 138 457 143 486 l 126 386 m 215 906 l 215 956 l 632 956 l 632 906 l 215 906 z "},"":{"ha":694,"x_min":28,"x_max":690,"o":"m 29 0 l 197 1021 l 689 1021 l 681 969 l 244 969 l 176 557 l 538 557 l 529 506 l 168 506 l 93 51 l 529 51 l 521 0 l 29 0 m 457 1132 q 382 1144 418 1132 q 322 1183 346 1156 q 294 1249 299 1211 q 294 1326 289 1288 l 350 1326 q 349 1269 346 1297 q 367 1221 351 1242 q 410 1191 383 1200 q 465 1182 436 1182 q 524 1191 494 1182 q 576 1221 553 1200 q 611 1269 599 1242 q 628 1326 624 1297 l 683 1326 q 659 1249 678 1288 q 608 1183 640 1211 q 536 1144 576 1156 q 457 1132 496 1132 z "},"":{"ha":694,"x_min":47,"x_max":635,"o":"m 275 -11 q 199 -3 236 -11 q 132 26 161 6 q 84 78 103 47 q 56 146 65 110 q 49 221 47 182 q 56 299 50 260 l 83 465 q 101 535 89 501 q 132 601 113 569 q 179 660 151 633 q 240 703 207 686 q 310 726 274 719 q 381 733 346 733 q 457 725 419 733 q 524 696 494 717 q 574 644 554 675 q 601 576 593 613 q 609 501 610 540 q 601 424 608 463 l 588 336 l 118 336 l 110 290 q 104 229 106 260 q 109 169 103 199 q 130 115 115 140 q 167 72 144 89 q 220 47 190 54 q 281 40 250 40 q 351 47 315 40 q 419 73 386 54 q 474 122 451 92 q 504 188 497 153 l 560 188 q 540 129 554 158 q 503 76 525 100 q 453 35 481 53 q 396 8 426 18 q 335 -7 365 -3 q 275 -11 306 -11 m 126 386 l 540 386 l 547 432 q 553 493 553 463 q 549 553 554 524 q 529 607 543 582 q 492 650 515 632 q 440 675 469 668 q 381 682 411 682 q 322 676 351 682 q 265 656 293 671 q 215 619 238 642 q 178 571 193 597 q 153 515 163 544 q 138 457 143 486 l 126 386 m 407 833 q 332 845 368 833 q 272 885 296 857 q 244 951 249 913 q 244 1028 239 989 l 300 1028 q 299 971 296 999 q 317 922 301 943 q 360 892 333 901 q 415 883 386 883 q 474 892 444 883 q 526 922 503 901 q 561 971 549 943 q 578 1028 574 999 l 633 1028 q 609 951 628 989 q 558 885 590 913 q 486 845 526 857 q 407 833 446 833 z "},"":{"ha":694,"x_min":28,"x_max":690,"o":"m 29 0 l 197 1021 l 689 1021 l 681 969 l 244 969 l 176 557 l 538 557 l 529 506 l 168 506 l 93 51 l 529 51 l 521 0 l 29 0 m 474 1175 q 448 1179 460 1175 q 428 1193 436 1183 q 419 1216 421 1203 q 419 1243 418 1229 q 425 1260 421 1251 q 438 1274 429 1268 q 455 1281 446 1279 q 472 1283 464 1283 q 498 1279 486 1283 q 517 1265 510 1275 q 527 1242 525 1256 q 526 1215 529 1229 q 521 1199 525 1207 q 509 1185 517 1190 q 492 1177 501 1179 q 474 1175 482 1175 z "},"":{"ha":694,"x_min":47,"x_max":611,"o":"m 275 -11 q 199 -3 236 -11 q 132 26 161 6 q 84 78 103 47 q 56 146 65 110 q 49 221 47 182 q 56 299 50 260 l 83 465 q 101 535 89 501 q 132 601 113 569 q 179 660 151 633 q 240 703 207 686 q 310 726 274 719 q 381 733 346 733 q 457 725 419 733 q 524 696 494 717 q 574 644 554 675 q 601 576 593 613 q 609 501 610 540 q 601 424 608 463 l 588 336 l 118 336 l 110 290 q 104 229 106 260 q 109 169 103 199 q 130 115 115 140 q 167 72 144 89 q 220 47 190 54 q 281 40 250 40 q 351 47 315 40 q 419 73 386 54 q 474 122 451 92 q 504 188 497 153 l 560 188 q 540 129 554 158 q 503 76 525 100 q 453 35 481 53 q 396 8 426 18 q 335 -7 365 -3 q 275 -11 306 -11 m 126 386 l 540 386 l 547 432 q 553 493 553 463 q 549 553 554 524 q 529 607 543 582 q 492 650 515 632 q 440 675 469 668 q 381 682 411 682 q 322 676 351 682 q 265 656 293 671 q 215 619 238 642 q 178 571 193 597 q 153 515 163 544 q 138 457 143 486 l 126 386 m 424 876 q 398 881 410 876 q 378 894 386 885 q 369 917 371 904 q 369 944 368 931 q 375 961 371 953 q 388 975 379 969 q 405 983 396 981 q 422 985 414 985 q 448 981 436 985 q 467 967 460 976 q 477 944 475 957 q 476 917 479 931 q 471 900 475 908 q 459 886 467 892 q 442 878 451 881 q 424 876 432 876 z "},"":{"ha":694,"x_min":28,"x_max":690,"o":"m 29 0 l 197 1021 l 689 1021 l 681 969 l 244 969 l 176 557 l 538 557 l 529 506 l 168 506 l 93 51 l 529 51 l 521 0 l 29 0 m 439 -310 q 389 -303 414 -310 q 347 -280 364 -296 q 324 -240 329 -264 q 322 -189 318 -215 q 350 -117 329 -151 q 399 -53 371 -82 q 459 -1 426 -25 q 528 42 492 22 l 521 0 q 475 -40 497 -19 q 433 -84 453 -61 q 398 -133 414 -107 q 376 -187 382 -160 q 378 -218 375 -203 q 394 -243 382 -233 q 421 -256 406 -253 q 451 -260 436 -260 q 474 -258 463 -260 q 496 -254 485 -257 l 488 -304 q 463 -308 475 -307 q 439 -310 451 -310 z "},"":{"ha":694,"x_min":47,"x_max":611,"o":"m 435 -310 q 386 -302 410 -310 q 345 -278 363 -294 q 321 -239 328 -262 q 318 -189 314 -215 q 339 -130 324 -158 q 372 -74 354 -101 q 410 -21 389 -47 q 449 32 431 6 q 364 -2 410 7 q 275 -11 318 -11 q 199 -3 236 -11 q 132 26 161 6 q 84 78 103 47 q 56 146 65 110 q 49 221 47 182 q 56 299 50 260 l 83 465 q 101 535 89 501 q 132 601 113 569 q 179 660 151 633 q 240 703 207 686 q 310 726 274 719 q 381 733 346 733 q 457 725 419 733 q 524 696 494 717 q 574 644 554 675 q 601 576 593 613 q 609 501 610 540 q 601 424 608 463 l 588 336 l 118 336 l 110 290 q 104 229 106 260 q 109 169 103 199 q 130 115 115 140 q 167 72 144 89 q 220 47 190 54 q 281 40 250 40 q 351 47 315 40 q 419 73 386 54 q 474 122 451 92 q 504 188 497 153 l 560 188 q 548 138 556 163 q 530 90 540 114 q 507 42 519 65 q 479 -3 494 18 q 448 -47 464 -25 q 418 -92 432 -69 q 391 -139 404 -115 q 374 -187 378 -162 q 376 -218 372 -203 q 392 -243 381 -233 q 417 -256 403 -253 q 449 -260 432 -260 q 469 -258 458 -260 q 490 -254 479 -257 l 482 -304 q 458 -308 471 -307 q 435 -310 446 -310 m 126 386 l 540 386 l 547 432 q 553 493 553 463 q 549 553 554 524 q 529 607 543 582 q 492 650 515 632 q 440 675 469 668 q 381 682 411 682 q 322 676 351 682 q 265 656 293 671 q 215 619 238 642 q 178 571 193 597 q 153 515 163 544 q 138 457 143 486 l 126 386 z "},"":{"ha":694,"x_min":28,"x_max":690,"o":"m 29 0 l 197 1021 l 689 1021 l 681 969 l 244 969 l 176 557 l 538 557 l 529 506 l 168 506 l 93 51 l 529 51 l 521 0 l 29 0 m 421 1132 l 317 1325 l 361 1349 l 465 1179 l 624 1353 l 663 1321 l 493 1132 l 421 1132 z "},"":{"ha":694,"x_min":47,"x_max":613,"o":"m 275 -11 q 199 -3 236 -11 q 132 26 161 6 q 84 78 103 47 q 56 146 65 110 q 49 221 47 182 q 56 299 50 260 l 83 465 q 101 535 89 501 q 132 601 113 569 q 179 660 151 633 q 240 703 207 686 q 310 726 274 719 q 381 733 346 733 q 457 725 419 733 q 524 696 494 717 q 574 644 554 675 q 601 576 593 613 q 609 501 610 540 q 601 424 608 463 l 588 336 l 118 336 l 110 290 q 104 229 106 260 q 109 169 103 199 q 130 115 115 140 q 167 72 144 89 q 220 47 190 54 q 281 40 250 40 q 351 47 315 40 q 419 73 386 54 q 474 122 451 92 q 504 188 497 153 l 560 188 q 540 129 554 158 q 503 76 525 100 q 453 35 481 53 q 396 8 426 18 q 335 -7 365 -3 q 275 -11 306 -11 m 126 386 l 540 386 l 547 432 q 553 493 553 463 q 549 553 554 524 q 529 607 543 582 q 492 650 515 632 q 440 675 469 668 q 381 682 411 682 q 322 676 351 682 q 265 656 293 671 q 215 619 238 642 q 178 571 193 597 q 153 515 163 544 q 138 457 143 486 l 126 386 m 371 833 l 267 1026 l 311 1050 l 415 881 l 574 1054 l 613 1022 l 443 833 l 371 833 z "},"":{"ha":694,"x_min":46,"x_max":661,"o":"m 253 -11 q 181 -2 215 -11 q 120 28 147 7 q 76 81 93 50 q 53 146 60 111 q 47 218 46 181 q 54 292 49 256 l 135 771 q 151 840 140 806 q 182 905 163 874 q 230 962 201 936 q 291 1003 258 988 q 359 1026 324 1019 q 429 1032 394 1032 q 495 1027 463 1032 q 556 1008 528 1022 q 607 972 585 994 q 642 922 629 950 q 657 860 654 893 q 654 794 660 828 l 653 785 l 597 785 l 599 792 q 597 869 606 832 q 563 933 589 907 q 501 970 538 960 q 425 981 464 981 q 368 975 397 981 q 313 956 339 969 q 264 920 286 942 q 226 873 242 899 q 202 819 211 847 q 189 763 193 792 l 108 283 q 103 224 104 254 q 108 166 103 194 q 127 113 114 138 q 163 72 140 89 q 213 47 185 54 q 272 40 242 40 q 328 45 300 40 q 382 63 356 50 q 431 97 408 76 q 468 143 453 118 q 492 195 483 168 q 507 250 501 222 l 546 493 l 350 493 l 358 543 l 610 543 l 521 0 l 469 0 l 492 135 q 449 73 475 101 q 392 25 424 44 q 324 -3 360 6 q 253 -11 288 -11 m 325 1121 l 288 1153 l 456 1342 l 528 1342 l 632 1149 l 588 1125 l 483 1294 l 325 1121 z "},"":{"ha":694,"x_min":-10,"x_max":640,"o":"m 222 -310 q 163 -306 192 -310 q 108 -294 135 -303 q 57 -270 81 -286 q 18 -232 33 -254 q -3 -182 3 -210 q -6 -125 -10 -154 l 50 -125 q 60 -187 46 -158 q 101 -231 75 -215 q 160 -253 128 -247 q 226 -258 193 -258 q 283 -252 254 -258 q 338 -231 311 -246 q 386 -194 365 -217 q 422 -144 407 -171 q 446 -90 438 -118 q 460 -33 454 -62 l 486 126 q 443 68 468 96 q 387 22 418 40 q 321 -3 356 4 q 253 -11 286 -11 q 181 -1 215 -11 q 119 31 146 8 q 75 84 92 53 q 53 151 58 115 q 49 224 47 186 q 56 299 50 261 l 83 465 q 99 532 89 499 q 126 597 108 565 q 169 655 144 628 q 225 700 194 682 q 290 726 256 718 q 357 733 324 733 q 431 724 396 733 q 493 691 467 714 q 536 636 519 668 q 560 569 553 604 l 585 722 l 640 722 l 514 -42 q 497 -111 508 -76 q 466 -177 485 -146 q 420 -235 447 -208 q 360 -278 393 -261 q 292 -303 326 -296 q 222 -310 257 -310 m 272 40 q 328 46 300 40 q 383 66 357 51 q 432 102 410 81 q 470 149 454 124 q 494 203 486 175 q 508 260 503 232 l 536 426 q 541 488 540 457 q 537 547 542 518 q 519 603 532 576 q 485 648 507 629 q 435 674 464 667 q 375 682 406 682 q 318 676 347 682 q 262 656 289 671 q 213 618 235 640 q 176 569 192 596 q 151 515 160 543 q 138 457 143 486 l 110 290 q 105 231 106 261 q 109 171 104 200 q 127 117 114 142 q 162 74 140 92 q 213 48 183 56 q 272 40 242 40 m 275 822 l 238 854 l 406 1043 l 478 1043 l 582 850 l 538 826 l 433 996 l 275 822 z "},"":{"ha":694,"x_min":46,"x_max":683,"o":"m 253 -11 q 181 -2 215 -11 q 120 28 147 7 q 76 81 93 50 q 53 146 60 111 q 47 218 46 181 q 54 292 49 256 l 135 771 q 151 840 140 806 q 182 905 163 874 q 230 962 201 936 q 291 1003 258 988 q 359 1026 324 1019 q 429 1032 394 1032 q 495 1027 463 1032 q 556 1008 528 1022 q 607 972 585 994 q 642 922 629 950 q 657 860 654 893 q 654 794 660 828 l 653 785 l 597 785 l 599 792 q 597 869 606 832 q 563 933 589 907 q 501 970 538 960 q 425 981 464 981 q 368 975 397 981 q 313 956 339 969 q 264 920 286 942 q 226 873 242 899 q 202 819 211 847 q 189 763 193 792 l 108 283 q 103 224 104 254 q 108 166 103 194 q 127 113 114 138 q 163 72 140 89 q 213 47 185 54 q 272 40 242 40 q 328 45 300 40 q 382 63 356 50 q 431 97 408 76 q 468 143 453 118 q 492 195 483 168 q 507 250 501 222 l 546 493 l 350 493 l 358 543 l 610 543 l 521 0 l 469 0 l 492 135 q 449 73 475 101 q 392 25 424 44 q 324 -3 360 6 q 253 -11 288 -11 m 457 1132 q 382 1144 418 1132 q 322 1183 346 1156 q 294 1249 299 1211 q 294 1326 289 1288 l 350 1326 q 349 1269 346 1297 q 367 1221 351 1242 q 410 1191 383 1200 q 465 1182 436 1182 q 524 1191 494 1182 q 576 1221 553 1200 q 611 1269 599 1242 q 628 1326 624 1297 l 683 1326 q 659 1249 678 1288 q 608 1183 640 1211 q 536 1144 576 1156 q 457 1132 496 1132 z "},"":{"ha":694,"x_min":-10,"x_max":640,"o":"m 222 -310 q 163 -306 192 -310 q 108 -294 135 -303 q 57 -270 81 -286 q 18 -232 33 -254 q -3 -182 3 -210 q -6 -125 -10 -154 l 50 -125 q 60 -187 46 -158 q 101 -231 75 -215 q 160 -253 128 -247 q 226 -258 193 -258 q 283 -252 254 -258 q 338 -231 311 -246 q 386 -194 365 -217 q 422 -144 407 -171 q 446 -90 438 -118 q 460 -33 454 -62 l 486 126 q 443 68 468 96 q 387 22 418 40 q 321 -3 356 4 q 253 -11 286 -11 q 181 -1 215 -11 q 119 31 146 8 q 75 84 92 53 q 53 151 58 115 q 49 224 47 186 q 56 299 50 261 l 83 465 q 99 532 89 499 q 126 597 108 565 q 169 655 144 628 q 225 700 194 682 q 290 726 256 718 q 357 733 324 733 q 431 724 396 733 q 493 691 467 714 q 536 636 519 668 q 560 569 553 604 l 585 722 l 640 722 l 514 -42 q 497 -111 508 -76 q 466 -177 485 -146 q 420 -235 447 -208 q 360 -278 393 -261 q 292 -303 326 -296 q 222 -310 257 -310 m 272 40 q 328 46 300 40 q 383 66 357 51 q 432 102 410 81 q 470 149 454 124 q 494 203 486 175 q 508 260 503 232 l 536 426 q 541 488 540 457 q 537 547 542 518 q 519 603 532 576 q 485 648 507 629 q 435 674 464 667 q 375 682 406 682 q 318 676 347 682 q 262 656 289 671 q 213 618 235 640 q 176 569 192 596 q 151 515 160 543 q 138 457 143 486 l 110 290 q 105 231 106 261 q 109 171 104 200 q 127 117 114 142 q 162 74 140 92 q 213 48 183 56 q 272 40 242 40 m 407 833 q 332 845 368 833 q 272 885 296 857 q 244 951 249 913 q 244 1028 239 989 l 300 1028 q 299 971 296 999 q 317 922 301 943 q 360 892 333 901 q 415 883 386 883 q 474 892 444 883 q 526 922 503 901 q 561 971 549 943 q 578 1028 574 999 l 633 1028 q 609 951 628 989 q 558 885 590 913 q 486 845 526 857 q 407 833 446 833 z "},"":{"ha":694,"x_min":46,"x_max":661,"o":"m 253 -11 q 181 -2 215 -11 q 120 28 147 7 q 76 81 93 50 q 53 146 60 111 q 47 218 46 181 q 54 292 49 256 l 135 771 q 151 840 140 806 q 182 905 163 874 q 230 962 201 936 q 291 1003 258 988 q 359 1026 324 1019 q 429 1032 394 1032 q 495 1027 463 1032 q 556 1008 528 1022 q 607 972 585 994 q 642 922 629 950 q 657 860 654 893 q 654 794 660 828 l 653 785 l 597 785 l 599 792 q 597 869 606 832 q 563 933 589 907 q 501 970 538 960 q 425 981 464 981 q 368 975 397 981 q 313 956 339 969 q 264 920 286 942 q 226 873 242 899 q 202 819 211 847 q 189 763 193 792 l 108 283 q 103 224 104 254 q 108 166 103 194 q 127 113 114 138 q 163 72 140 89 q 213 47 185 54 q 272 40 242 40 q 328 45 300 40 q 382 63 356 50 q 431 97 408 76 q 468 143 453 118 q 492 195 483 168 q 507 250 501 222 l 546 493 l 350 493 l 358 543 l 610 543 l 521 0 l 469 0 l 492 135 q 449 73 475 101 q 392 25 424 44 q 324 -3 360 6 q 253 -11 288 -11 m 474 1175 q 448 1179 460 1175 q 428 1193 436 1183 q 419 1216 421 1203 q 419 1243 418 1229 q 425 1260 421 1251 q 438 1274 429 1268 q 455 1281 446 1279 q 472 1283 464 1283 q 498 1279 486 1283 q 517 1265 510 1275 q 527 1242 525 1256 q 526 1215 529 1229 q 521 1199 525 1207 q 509 1185 517 1190 q 492 1177 501 1179 q 474 1175 482 1175 z "},"":{"ha":694,"x_min":-10,"x_max":640,"o":"m 222 -310 q 163 -306 192 -310 q 108 -294 135 -303 q 57 -270 81 -286 q 18 -232 33 -254 q -3 -182 3 -210 q -6 -125 -10 -154 l 50 -125 q 60 -187 46 -158 q 101 -231 75 -215 q 160 -253 128 -247 q 226 -258 193 -258 q 283 -252 254 -258 q 338 -231 311 -246 q 386 -194 365 -217 q 422 -144 407 -171 q 446 -90 438 -118 q 460 -33 454 -62 l 486 126 q 443 68 468 96 q 387 22 418 40 q 321 -3 356 4 q 253 -11 286 -11 q 181 -1 215 -11 q 119 31 146 8 q 75 84 92 53 q 53 151 58 115 q 49 224 47 186 q 56 299 50 261 l 83 465 q 99 532 89 499 q 126 597 108 565 q 169 655 144 628 q 225 700 194 682 q 290 726 256 718 q 357 733 324 733 q 431 724 396 733 q 493 691 467 714 q 536 636 519 668 q 560 569 553 604 l 585 722 l 640 722 l 514 -42 q 497 -111 508 -76 q 466 -177 485 -146 q 420 -235 447 -208 q 360 -278 393 -261 q 292 -303 326 -296 q 222 -310 257 -310 m 272 40 q 328 46 300 40 q 383 66 357 51 q 432 102 410 81 q 470 149 454 124 q 494 203 486 175 q 508 260 503 232 l 536 426 q 541 488 540 457 q 537 547 542 518 q 519 603 532 576 q 485 648 507 629 q 435 674 464 667 q 375 682 406 682 q 318 676 347 682 q 262 656 289 671 q 213 618 235 640 q 176 569 192 596 q 151 515 160 543 q 138 457 143 486 l 110 290 q 105 231 106 261 q 109 171 104 200 q 127 117 114 142 q 162 74 140 92 q 213 48 183 56 q 272 40 242 40 m 424 876 q 398 881 410 876 q 378 894 386 885 q 369 917 371 904 q 369 944 368 931 q 375 961 371 953 q 388 975 379 969 q 405 983 396 981 q 422 985 414 985 q 448 981 436 985 q 467 967 460 976 q 477 944 475 957 q 476 917 479 931 q 471 900 475 908 q 459 886 467 892 q 442 878 451 881 q 424 876 432 876 z "},"":{"ha":694,"x_min":46,"x_max":661,"o":"m 253 -11 q 181 -2 215 -11 q 120 28 147 7 q 76 81 93 50 q 53 146 60 111 q 47 218 46 181 q 54 292 49 256 l 135 771 q 151 840 140 806 q 182 905 163 874 q 230 962 201 936 q 291 1003 258 988 q 359 1026 324 1019 q 429 1032 394 1032 q 495 1027 463 1032 q 556 1008 528 1022 q 607 972 585 994 q 642 922 629 950 q 657 860 654 893 q 654 794 660 828 l 653 785 l 597 785 l 599 792 q 597 869 606 832 q 563 933 589 907 q 501 970 538 960 q 425 981 464 981 q 368 975 397 981 q 313 956 339 969 q 264 920 286 942 q 226 873 242 899 q 202 819 211 847 q 189 763 193 792 l 108 283 q 103 224 104 254 q 108 166 103 194 q 127 113 114 138 q 163 72 140 89 q 213 47 185 54 q 272 40 242 40 q 328 45 300 40 q 382 63 356 50 q 431 97 408 76 q 468 143 453 118 q 492 195 483 168 q 507 250 501 222 l 546 493 l 350 493 l 358 543 l 610 543 l 521 0 l 469 0 l 492 135 q 449 73 475 101 q 392 25 424 44 q 324 -3 360 6 q 253 -11 288 -11 m 207 -319 l 172 -292 q 210 -235 194 -265 q 235 -172 225 -204 q 219 -169 226 -172 q 208 -159 213 -165 q 202 -144 204 -153 q 201 -128 200 -136 q 208 -109 204 -118 q 220 -94 213 -100 q 237 -85 228 -87 q 256 -82 246 -82 q 273 -85 265 -82 q 287 -94 281 -87 q 294 -109 293 -100 q 293 -128 296 -118 q 265 -228 286 -178 q 207 -319 244 -278 z "},"":{"ha":694,"x_min":-10,"x_max":640,"o":"m 222 -310 q 163 -306 192 -310 q 108 -294 135 -303 q 57 -270 81 -286 q 18 -232 33 -254 q -3 -182 3 -210 q -6 -125 -10 -154 l 50 -125 q 60 -187 46 -158 q 101 -231 75 -215 q 160 -253 128 -247 q 226 -258 193 -258 q 283 -252 254 -258 q 338 -231 311 -246 q 386 -194 365 -217 q 422 -144 407 -171 q 446 -90 438 -118 q 460 -33 454 -62 l 486 126 q 443 68 468 96 q 387 22 418 40 q 321 -3 356 4 q 253 -11 286 -11 q 181 -1 215 -11 q 119 31 146 8 q 75 84 92 53 q 53 151 58 115 q 49 224 47 186 q 56 299 50 261 l 83 465 q 99 532 89 499 q 126 597 108 565 q 169 655 144 628 q 225 700 194 682 q 290 726 256 718 q 357 733 324 733 q 431 724 396 733 q 493 691 467 714 q 536 636 519 668 q 560 569 553 604 l 585 722 l 640 722 l 514 -42 q 497 -111 508 -76 q 466 -177 485 -146 q 420 -235 447 -208 q 360 -278 393 -261 q 292 -303 326 -296 q 222 -310 257 -310 m 272 40 q 328 46 300 40 q 383 66 357 51 q 432 102 410 81 q 470 149 454 124 q 494 203 486 175 q 508 260 503 232 l 536 426 q 541 488 540 457 q 537 547 542 518 q 519 603 532 576 q 485 648 507 629 q 435 674 464 667 q 375 682 406 682 q 318 676 347 682 q 262 656 289 671 q 213 618 235 640 q 176 569 192 596 q 151 515 160 543 q 138 457 143 486 l 110 290 q 105 231 106 261 q 109 171 104 200 q 127 117 114 142 q 162 74 140 92 q 213 48 183 56 q 272 40 242 40 m 403 804 q 385 807 393 804 q 371 816 376 810 q 364 831 365 822 q 364 850 363 840 q 393 950 372 900 q 451 1042 414 1000 l 486 1014 q 447 957 463 988 q 422 894 432 926 q 438 891 431 894 q 449 881 444 888 q 456 867 454 875 q 456 850 457 858 q 450 831 454 840 q 438 816 446 822 q 421 807 429 810 q 403 804 413 804 z "},"":{"ha":694,"x_min":17,"x_max":690,"o":"m 18 0 l 186 1021 l 242 1021 l 165 557 l 557 557 l 633 1021 l 689 1021 l 521 0 l 465 0 l 549 506 l 157 506 l 74 0 l 18 0 m 325 1121 l 288 1153 l 456 1342 l 528 1342 l 632 1149 l 588 1125 l 483 1294 l 325 1121 z "},"":{"ha":694,"x_min":17,"x_max":601,"o":"m 18 0 l 186 1021 l 242 1021 l 172 597 q 214 655 190 628 q 268 700 238 682 q 332 726 299 718 q 399 733 365 733 q 471 724 436 733 q 531 691 506 714 q 573 637 557 668 q 594 570 589 606 q 599 497 600 535 q 590 424 597 460 l 521 0 l 465 0 l 536 432 q 543 491 542 461 q 540 550 544 521 q 522 604 535 579 q 488 648 510 629 q 439 674 467 667 q 381 682 411 682 q 325 676 353 682 q 271 656 297 671 q 223 619 244 642 q 187 572 201 597 q 163 518 172 546 q 150 463 154 490 l 74 0 l 18 0 m 101 1121 l 64 1153 l 232 1342 l 304 1342 l 408 1149 l 364 1125 l 260 1294 l 101 1121 z "},"":{"ha":694,"x_min":17,"x_max":718,"o":"m 18 0 l 144 764 l 82 764 l 82 814 l 153 814 l 186 1021 l 242 1021 l 208 814 l 600 814 l 633 1021 l 689 1021 l 656 814 l 718 814 l 718 764 l 647 764 l 521 0 l 465 0 l 549 506 l 157 506 l 74 0 l 18 0 m 165 557 l 557 557 l 592 764 l 200 764 l 165 557 z "},"":{"ha":694,"x_min":17,"x_max":601,"o":"m 18 0 l 156 832 l 89 832 l 89 881 l 164 881 l 186 1021 l 242 1021 l 219 881 l 407 881 l 407 832 l 211 832 l 172 597 q 214 655 190 628 q 268 700 238 682 q 332 726 299 718 q 399 733 365 733 q 471 724 436 733 q 531 691 506 714 q 573 637 557 668 q 594 570 589 606 q 599 497 600 535 q 590 424 597 460 l 521 0 l 465 0 l 536 432 q 543 491 542 461 q 540 550 544 521 q 522 604 535 579 q 488 648 510 629 q 439 674 467 667 q 381 682 411 682 q 325 676 353 682 q 271 656 297 671 q 223 619 244 642 q 187 572 201 597 q 163 518 172 546 q 150 463 154 490 l 74 0 l 18 0 z "},"":{"ha":694,"x_min":31,"x_max":721,"o":"m 518 0 l 32 0 l 32 51 l 250 51 l 401 969 l 189 969 l 189 1021 l 675 1021 l 675 969 l 457 969 l 306 51 l 518 51 l 518 0 m 543 1129 q 526 1131 535 1129 q 511 1138 518 1133 q 498 1147 504 1142 q 487 1158 492 1151 q 477 1170 482 1164 q 469 1183 472 1176 q 462 1197 465 1190 q 455 1212 458 1204 q 448 1227 451 1219 q 441 1242 444 1235 q 434 1257 438 1250 q 426 1270 431 1264 q 418 1283 422 1276 q 406 1290 414 1290 q 394 1287 400 1290 q 384 1280 389 1283 q 374 1272 379 1276 q 364 1260 369 1267 q 356 1252 358 1254 q 351 1247 354 1250 q 344 1239 347 1243 q 338 1230 342 1235 q 331 1220 335 1225 q 324 1210 328 1215 q 317 1199 321 1204 q 308 1187 313 1193 q 300 1174 304 1181 q 292 1161 296 1168 q 283 1147 288 1154 q 274 1131 279 1139 l 228 1156 q 244 1185 236 1171 q 261 1211 253 1199 q 277 1235 269 1224 q 292 1256 285 1246 q 306 1274 299 1265 q 319 1289 313 1282 q 337 1306 326 1296 q 358 1324 347 1317 q 381 1335 368 1331 q 406 1340 393 1340 q 422 1338 414 1340 q 436 1332 429 1336 q 449 1323 443 1328 q 461 1312 456 1318 q 471 1299 467 1306 q 479 1286 475 1293 q 487 1272 483 1279 q 493 1258 490 1265 q 499 1242 496 1250 q 506 1227 503 1235 q 514 1213 510 1219 q 522 1199 518 1206 q 530 1186 525 1193 q 543 1179 535 1179 q 553 1183 549 1179 q 563 1190 558 1186 q 573 1198 568 1193 q 584 1209 578 1203 q 592 1217 590 1215 q 597 1223 593 1219 q 603 1231 600 1226 q 609 1240 606 1235 q 617 1249 613 1244 q 624 1260 621 1254 q 631 1271 628 1265 q 640 1283 635 1276 q 648 1295 644 1289 q 656 1308 651 1301 q 665 1323 661 1315 q 675 1339 669 1331 l 721 1314 q 704 1285 713 1299 q 688 1258 696 1271 q 672 1235 679 1246 q 657 1214 664 1224 q 643 1196 650 1204 q 629 1181 636 1188 q 612 1163 622 1174 q 591 1146 601 1153 q 568 1134 581 1139 q 543 1129 556 1129 z "},"":{"ha":694,"x_min":31,"x_max":671,"o":"m 518 0 l 32 0 l 32 51 l 260 51 l 363 671 l 160 671 l 160 722 l 426 722 l 315 51 l 518 51 l 518 0 m 493 831 q 476 833 485 831 q 461 839 468 835 q 448 848 454 843 q 437 859 442 853 q 427 872 432 865 q 419 885 422 878 q 412 899 415 892 q 405 913 408 906 q 398 928 401 921 q 391 944 394 936 q 384 958 388 951 q 376 972 381 965 q 368 985 372 978 q 356 992 364 992 q 344 988 350 992 q 334 981 339 985 q 324 973 329 978 q 314 962 319 968 q 306 953 308 956 q 301 948 304 951 q 294 940 297 944 q 288 931 292 936 q 281 922 285 926 q 274 911 278 917 q 267 900 271 906 q 258 888 263 894 q 250 876 254 882 q 242 863 246 869 q 233 848 238 856 q 224 832 229 840 l 178 857 q 194 886 186 872 q 211 913 203 900 q 227 936 219 925 q 242 957 235 947 q 256 975 249 967 q 269 990 263 983 q 287 1008 276 997 q 308 1025 297 1018 q 331 1037 318 1032 q 356 1042 343 1042 q 372 1040 364 1042 q 386 1033 379 1038 q 399 1024 393 1029 q 411 1013 406 1019 q 421 1001 417 1007 q 429 988 425 994 q 437 974 433 981 q 443 959 440 967 q 449 944 446 951 q 456 928 453 936 q 464 914 460 921 q 472 901 468 907 q 480 888 475 894 q 493 881 485 881 q 503 884 499 881 q 513 891 508 888 q 523 899 518 894 q 534 910 528 904 q 542 919 540 917 q 547 924 543 921 q 553 932 550 928 q 559 941 556 936 q 567 951 563 946 q 574 961 571 956 q 581 972 578 967 q 590 984 585 978 q 598 997 594 990 q 606 1010 601 1003 q 615 1024 611 1017 q 625 1040 619 1032 l 671 1015 q 654 986 663 1000 q 638 960 646 972 q 622 936 629 947 q 607 915 614 925 q 593 897 600 906 q 579 882 586 889 q 562 865 572 875 q 541 847 551 854 q 518 835 531 840 q 493 831 506 831 z "},"":{"ha":694,"x_min":31,"x_max":682,"o":"m 518 0 l 32 0 l 32 51 l 250 51 l 401 969 l 189 969 l 189 1021 l 675 1021 l 675 969 l 457 969 l 306 51 l 518 51 l 518 0 m 265 1204 l 265 1254 l 682 1254 l 682 1204 l 265 1204 z "},"":{"ha":694,"x_min":31,"x_max":632,"o":"m 518 0 l 32 0 l 32 51 l 260 51 l 363 671 l 160 671 l 160 722 l 426 722 l 315 51 l 518 51 l 518 0 m 215 906 l 215 956 l 632 956 l 632 906 l 215 906 z "},"":{"ha":694,"x_min":31,"x_max":683,"o":"m 518 0 l 32 0 l 32 51 l 250 51 l 401 969 l 189 969 l 189 1021 l 675 1021 l 675 969 l 457 969 l 306 51 l 518 51 l 518 0 m 457 1132 q 382 1144 418 1132 q 322 1183 346 1156 q 294 1249 299 1211 q 294 1326 289 1288 l 350 1326 q 349 1269 346 1297 q 367 1221 351 1242 q 410 1191 383 1200 q 465 1182 436 1182 q 524 1191 494 1182 q 576 1221 553 1200 q 611 1269 599 1242 q 628 1326 624 1297 l 683 1326 q 659 1249 678 1288 q 608 1183 640 1211 q 536 1144 576 1156 q 457 1132 496 1132 z "},"":{"ha":694,"x_min":31,"x_max":635,"o":"m 518 0 l 32 0 l 32 51 l 260 51 l 363 671 l 160 671 l 160 722 l 426 722 l 315 51 l 518 51 l 518 0 m 407 833 q 332 845 368 833 q 272 885 296 857 q 244 951 249 913 q 244 1028 239 989 l 300 1028 q 299 971 296 999 q 317 922 301 943 q 360 892 333 901 q 415 883 386 883 q 474 892 444 883 q 526 922 503 901 q 561 971 549 943 q 578 1028 574 999 l 633 1028 q 609 951 628 989 q 558 885 590 913 q 486 845 526 857 q 407 833 446 833 z "},"":{"ha":694,"x_min":31,"x_max":676,"o":"m 518 0 l 32 0 l 32 51 l 250 51 l 401 969 l 189 969 l 189 1021 l 675 1021 l 675 969 l 457 969 l 306 51 l 518 51 l 518 0 m 431 -310 q 381 -303 406 -310 q 338 -280 356 -296 q 315 -240 321 -264 q 314 -189 310 -215 q 342 -117 321 -151 q 390 -53 363 -82 q 451 -1 418 -25 q 519 42 483 22 l 513 0 q 467 -40 489 -19 q 425 -84 444 -61 q 390 -133 406 -107 q 368 -187 374 -160 q 370 -218 367 -203 q 385 -243 374 -233 q 413 -256 397 -253 q 443 -260 428 -260 q 465 -258 454 -260 q 488 -254 476 -257 l 479 -304 q 455 -308 467 -307 q 431 -310 443 -310 z "},"":{"ha":694,"x_min":31,"x_max":519,"o":"m 518 0 l 32 0 l 32 51 l 260 51 l 363 671 l 160 671 l 160 722 l 426 722 l 315 51 l 518 51 l 518 0 m 431 876 q 405 881 417 876 q 385 894 393 885 q 376 917 378 904 q 376 944 375 931 q 382 961 378 953 q 394 975 386 969 q 412 983 403 981 q 429 985 421 985 q 455 981 443 985 q 474 967 467 976 q 484 944 482 957 q 483 917 486 931 q 478 900 482 908 q 466 886 474 892 q 449 878 458 881 q 431 876 439 876 m 431 -310 q 381 -303 406 -310 q 338 -280 356 -296 q 315 -240 321 -264 q 314 -189 310 -215 q 342 -117 321 -151 q 390 -53 363 -82 q 451 -1 418 -25 q 519 42 483 22 l 513 0 q 467 -40 489 -19 q 425 -84 444 -61 q 390 -133 406 -107 q 368 -187 374 -160 q 370 -218 367 -203 q 385 -243 374 -233 q 413 -256 397 -253 q 443 -260 428 -260 q 465 -258 454 -260 q 488 -254 476 -257 l 479 -304 q 455 -308 467 -307 q 431 -310 443 -310 z "},"":{"ha":694,"x_min":31,"x_max":676,"o":"m 518 0 l 32 0 l 32 51 l 250 51 l 401 969 l 189 969 l 189 1021 l 675 1021 l 675 969 l 457 969 l 306 51 l 518 51 l 518 0 m 474 1175 q 448 1179 460 1175 q 428 1193 436 1183 q 419 1216 421 1203 q 419 1243 418 1229 q 425 1260 421 1251 q 438 1274 429 1268 q 455 1281 446 1279 q 472 1283 464 1283 q 498 1279 486 1283 q 517 1265 510 1275 q 527 1242 525 1256 q 526 1215 529 1229 q 521 1199 525 1207 q 509 1185 517 1190 q 492 1177 501 1179 q 474 1175 482 1175 z "},"":{"ha":694,"x_min":31,"x_max":518,"o":"m 518 0 l 32 0 l 32 51 l 260 51 l 363 671 l 160 671 l 160 722 l 426 722 l 315 51 l 518 51 l 518 0 z "},"":{"ha":694,"x_min":24,"x_max":819,"o":"m 249 -11 q 183 -6 215 -11 q 122 15 150 0 q 73 53 93 29 q 41 106 53 76 q 27 169 29 136 q 31 236 25 201 l 86 236 q 86 158 79 196 q 117 92 93 119 q 177 52 140 64 q 254 40 214 40 q 316 49 285 40 q 374 76 347 57 q 421 123 400 96 q 456 179 442 150 q 478 239 471 208 q 490 300 486 269 l 601 969 l 390 969 l 390 1021 l 667 1021 l 546 292 q 529 219 540 256 q 500 147 518 182 q 456 81 482 113 q 396 28 429 50 q 324 -2 363 7 q 249 -11 285 -11 m 511 1121 l 474 1153 l 642 1342 l 714 1342 l 818 1149 l 774 1125 l 669 1294 l 511 1121 z "},"":{"ha":694,"x_min":-49,"x_max":660,"o":"m 135 -310 q 56 -297 94 -310 q -8 -256 17 -285 q -40 -186 -32 -226 q -42 -104 -49 -146 l 14 -104 q 15 -165 10 -135 q 36 -217 19 -194 q 81 -249 53 -239 q 139 -258 108 -258 q 189 -250 164 -258 q 234 -224 214 -242 q 269 -185 254 -207 q 294 -139 283 -162 q 312 -90 306 -115 q 322 -40 318 -65 l 440 671 l 228 671 l 228 722 l 504 722 l 376 -49 q 363 -111 371 -81 q 340 -171 354 -142 q 305 -227 326 -200 q 256 -274 283 -254 q 198 -301 229 -293 q 135 -310 167 -310 m 351 822 l 314 854 l 482 1043 l 554 1043 l 658 850 l 614 826 l 510 996 l 351 822 z "},"":{"ha":694,"x_min":39,"x_max":693,"o":"m 464 0 l 267 514 l 160 386 l 96 0 l 40 0 l 208 1021 l 264 1021 l 176 486 l 621 1021 l 692 1021 l 307 561 l 524 0 l 464 0 m 207 -319 l 172 -292 q 210 -235 194 -265 q 235 -172 225 -204 q 219 -169 226 -172 q 208 -159 213 -165 q 202 -144 204 -153 q 201 -128 200 -136 q 208 -109 204 -118 q 220 -94 213 -100 q 237 -85 228 -87 q 256 -82 246 -82 q 273 -85 265 -82 q 287 -94 281 -87 q 294 -109 293 -100 q 293 -128 296 -118 q 265 -228 286 -178 q 207 -319 244 -278 z "},"":{"ha":694,"x_min":39,"x_max":635,"o":"m 453 0 l 246 358 l 139 258 l 96 0 l 40 0 l 208 1021 l 264 1021 l 151 342 l 557 722 l 635 722 l 286 396 l 515 0 l 453 0 m 207 -319 l 172 -292 q 210 -235 194 -265 q 235 -172 225 -204 q 219 -169 226 -172 q 208 -159 213 -165 q 202 -144 204 -153 q 201 -128 200 -136 q 208 -109 204 -118 q 220 -94 213 -100 q 237 -85 228 -87 q 256 -82 246 -82 q 273 -85 265 -82 q 287 -94 281 -87 q 294 -109 293 -100 q 293 -128 296 -118 q 265 -228 286 -178 q 207 -319 244 -278 z "},"":{"ha":694,"x_min":39,"x_max":635,"o":"m 453 0 l 246 358 l 139 258 l 96 0 l 40 0 l 160 722 l 215 722 l 151 342 l 557 722 l 635 722 l 286 396 l 515 0 l 453 0 z "},"":{"ha":694,"x_min":65,"x_max":538,"o":"m 67 0 l 235 1021 l 290 1021 l 131 51 l 538 51 l 529 0 l 67 0 m 271 1117 l 236 1147 l 413 1344 l 456 1308 l 271 1117 z "},"":{"ha":694,"x_min":31,"x_max":639,"o":"m 518 0 l 32 0 l 32 51 l 260 51 l 411 969 l 208 969 l 208 1021 l 475 1021 l 315 51 l 518 51 l 518 0 m 454 1117 l 419 1147 l 596 1344 l 639 1308 l 454 1117 z "},"":{"ha":694,"x_min":65,"x_max":538,"o":"m 67 0 l 235 1021 l 290 1021 l 131 51 l 538 51 l 529 0 l 67 0 m 207 -319 l 172 -292 q 210 -235 194 -265 q 235 -172 225 -204 q 219 -169 226 -172 q 208 -159 213 -165 q 202 -144 204 -153 q 201 -128 200 -136 q 208 -109 204 -118 q 220 -94 213 -100 q 237 -85 228 -87 q 256 -82 246 -82 q 273 -85 265 -82 q 287 -94 281 -87 q 294 -109 293 -100 q 293 -128 296 -118 q 265 -228 286 -178 q 207 -319 244 -278 z "},"":{"ha":694,"x_min":31,"x_max":518,"o":"m 518 0 l 32 0 l 32 51 l 260 51 l 411 969 l 208 969 l 208 1021 l 475 1021 l 315 51 l 518 51 l 518 0 m 217 -319 l 182 -292 q 219 -235 204 -265 q 244 -172 235 -204 q 229 -169 236 -172 q 218 -159 222 -165 q 212 -144 214 -153 q 211 -128 210 -136 q 218 -109 214 -118 q 230 -94 222 -100 q 247 -85 238 -87 q 265 -82 256 -82 q 283 -85 275 -82 q 297 -94 290 -87 q 304 -109 303 -100 q 303 -128 306 -118 q 275 -228 296 -178 q 217 -319 254 -278 z "},"":{"ha":694,"x_min":65,"x_max":671,"o":"m 582 810 l 549 838 q 586 894 571 864 q 611 957 601 925 q 596 960 603 957 q 584 970 589 964 q 578 985 579 976 q 578 1001 576 993 q 583 1020 579 1011 q 596 1035 588 1029 q 613 1044 604 1042 q 632 1047 622 1047 q 649 1044 642 1047 q 663 1035 657 1042 q 669 1020 668 1029 q 669 1001 671 1011 q 640 901 661 951 q 582 810 619 851 m 67 0 l 235 1021 l 290 1021 l 131 51 l 538 51 l 529 0 l 67 0 z "},"":{"ha":694,"x_min":31,"x_max":646,"o":"m 556 810 l 522 838 q 560 894 544 864 q 585 957 575 925 q 569 960 576 957 q 558 970 563 964 q 551 985 553 976 q 551 1001 550 993 q 557 1020 553 1011 q 569 1035 561 1029 q 587 1044 578 1042 q 606 1047 596 1047 q 623 1044 615 1047 q 636 1035 631 1042 q 643 1020 642 1029 q 643 1001 644 1011 q 614 901 635 951 q 556 810 593 851 m 518 0 l 32 0 l 32 51 l 260 51 l 411 969 l 208 969 l 208 1021 l 475 1021 l 315 51 l 518 51 l 518 0 z "},"":{"ha":694,"x_min":65,"x_max":538,"o":"m 67 0 l 235 1021 l 290 1021 l 131 51 l 538 51 l 529 0 l 67 0 m 447 471 q 417 476 432 471 q 393 494 401 482 q 383 521 385 506 q 383 551 381 536 q 390 573 385 563 q 404 590 394 583 q 424 599 414 597 q 446 601 435 601 q 476 596 461 601 q 500 578 492 590 q 511 551 508 567 q 511 521 514 536 q 504 499 510 510 q 489 482 499 489 q 469 473 479 475 q 447 471 458 471 z "},"":{"ha":694,"x_min":3,"x_max":622,"o":"m 490 0 l 4 0 l 4 51 l 232 51 l 383 969 l 181 969 l 181 1021 l 447 1021 l 288 51 l 490 51 l 490 0 m 554 471 q 524 476 539 471 q 500 494 508 482 q 490 521 492 506 q 490 551 488 536 q 497 573 492 563 q 511 590 501 583 q 531 599 521 597 q 553 601 542 601 q 583 596 568 601 q 607 578 599 590 q 618 551 615 567 q 618 521 621 536 q 611 499 617 510 q 596 482 606 489 q 576 473 586 475 q 554 471 565 471 z "},"":{"ha":694,"x_min":31,"x_max":538,"o":"m 67 0 l 142 457 l 53 417 l 32 461 l 151 517 l 235 1021 l 290 1021 l 213 544 l 453 656 l 475 611 l 201 485 l 131 51 l 538 51 l 529 0 l 67 0 z "},"":{"ha":694,"x_min":31,"x_max":599,"o":"m 518 0 l 32 0 l 32 51 l 260 51 l 331 482 l 178 411 l 154 456 l 340 542 l 411 969 l 208 969 l 208 1021 l 475 1021 l 401 569 l 575 650 l 599 606 l 392 511 l 315 51 l 518 51 l 518 0 z "},"":{"ha":694,"x_min":17,"x_max":690,"o":"m 18 0 l 186 1021 l 261 1021 l 479 81 q 523 347 501 214 q 567 613 544 479 l 633 1021 l 689 1021 l 521 0 l 446 0 l 228 940 q 184 674 206 807 q 140 408 163 542 l 74 0 l 18 0 m 447 1117 l 413 1147 l 589 1344 l 632 1308 l 447 1117 z "},"":{"ha":694,"x_min":17,"x_max":601,"o":"m 18 0 l 138 722 l 193 722 l 172 597 q 214 655 190 628 q 268 700 238 682 q 332 726 299 718 q 399 733 365 733 q 471 724 436 733 q 531 691 506 714 q 573 637 557 668 q 594 570 589 606 q 599 497 600 535 q 590 424 597 460 l 521 0 l 465 0 l 536 432 q 543 491 542 461 q 540 550 544 521 q 522 604 535 579 q 488 648 510 629 q 439 674 467 667 q 381 682 411 682 q 325 676 353 682 q 271 656 297 671 q 223 619 244 642 q 187 572 201 597 q 163 518 172 546 q 150 463 154 490 l 74 0 l 18 0 m 397 818 l 363 849 l 539 1046 l 582 1010 l 397 818 z "},"":{"ha":694,"x_min":17,"x_max":690,"o":"m 18 0 l 186 1021 l 261 1021 l 479 81 q 523 347 501 214 q 567 613 544 479 l 633 1021 l 689 1021 l 521 0 l 446 0 l 228 940 q 184 674 206 807 q 140 408 163 542 l 74 0 l 18 0 m 207 -319 l 172 -292 q 210 -235 194 -265 q 235 -172 225 -204 q 219 -169 226 -172 q 208 -159 213 -165 q 202 -144 204 -153 q 201 -128 200 -136 q 208 -109 204 -118 q 220 -94 213 -100 q 237 -85 228 -87 q 256 -82 246 -82 q 273 -85 265 -82 q 287 -94 281 -87 q 294 -109 293 -100 q 293 -128 296 -118 q 265 -228 286 -178 q 207 -319 244 -278 z "},"":{"ha":694,"x_min":17,"x_max":601,"o":"m 18 0 l 138 722 l 193 722 l 172 597 q 214 655 190 628 q 268 700 238 682 q 332 726 299 718 q 399 733 365 733 q 471 724 436 733 q 531 691 506 714 q 573 637 557 668 q 594 570 589 606 q 599 497 600 535 q 590 424 597 460 l 521 0 l 465 0 l 536 432 q 543 491 542 461 q 540 550 544 521 q 522 604 535 579 q 488 648 510 629 q 439 674 467 667 q 381 682 411 682 q 325 676 353 682 q 271 656 297 671 q 223 619 244 642 q 187 572 201 597 q 163 518 172 546 q 150 463 154 490 l 74 0 l 18 0 m 207 -319 l 172 -292 q 210 -235 194 -265 q 235 -172 225 -204 q 219 -169 226 -172 q 208 -159 213 -165 q 202 -144 204 -153 q 201 -128 200 -136 q 208 -109 204 -118 q 220 -94 213 -100 q 237 -85 228 -87 q 256 -82 246 -82 q 273 -85 265 -82 q 287 -94 281 -87 q 294 -109 293 -100 q 293 -128 296 -118 q 265 -228 286 -178 q 207 -319 244 -278 z "},"":{"ha":694,"x_min":17,"x_max":690,"o":"m 18 0 l 186 1021 l 261 1021 l 479 81 q 523 347 501 214 q 567 613 544 479 l 633 1021 l 689 1021 l 521 0 l 446 0 l 228 940 q 184 674 206 807 q 140 408 163 542 l 74 0 l 18 0 m 421 1132 l 317 1325 l 361 1349 l 465 1179 l 624 1353 l 663 1321 l 493 1132 l 421 1132 z "},"":{"ha":694,"x_min":17,"x_max":613,"o":"m 18 0 l 138 722 l 193 722 l 172 597 q 214 655 190 628 q 268 700 238 682 q 332 726 299 718 q 399 733 365 733 q 471 724 436 733 q 531 691 506 714 q 573 637 557 668 q 594 570 589 606 q 599 497 600 535 q 590 424 597 460 l 521 0 l 465 0 l 536 432 q 543 491 542 461 q 540 550 544 521 q 522 604 535 579 q 488 648 510 629 q 439 674 467 667 q 381 682 411 682 q 325 676 353 682 q 271 656 297 671 q 223 619 244 642 q 187 572 201 597 q 163 518 172 546 q 150 463 154 490 l 74 0 l 18 0 m 371 833 l 267 1026 l 311 1050 l 415 881 l 574 1054 l 613 1022 l 443 833 l 371 833 z "},"":{"ha":694,"x_min":17,"x_max":601,"o":"m 18 0 l 138 722 l 193 722 l 172 597 q 214 655 190 628 q 268 700 238 682 q 332 726 299 718 q 399 733 365 733 q 471 724 436 733 q 531 691 506 714 q 573 637 557 668 q 594 570 589 606 q 599 497 600 535 q 590 424 597 460 l 521 0 l 465 0 l 536 432 q 543 491 542 461 q 540 550 544 521 q 522 604 535 579 q 488 648 510 629 q 439 674 467 667 q 381 682 411 682 q 325 676 353 682 q 271 656 297 671 q 223 619 244 642 q 187 572 201 597 q 163 518 172 546 q 150 463 154 490 l 74 0 l 18 0 m 142 810 l 108 838 q 146 894 131 864 q 171 957 161 925 q 156 960 163 957 q 144 970 149 964 q 138 985 139 976 q 138 1001 136 993 q 143 1020 139 1011 q 156 1035 147 1029 q 173 1044 164 1042 q 192 1047 182 1047 q 209 1044 201 1047 q 222 1035 217 1042 q 229 1020 228 1029 q 229 1001 231 1011 q 200 901 221 951 q 142 810 179 851 z "},"":{"ha":694,"x_min":17,"x_max":690,"o":"m 211 -299 l 211 -247 l 239 -247 q 289 -243 264 -247 q 338 -228 314 -239 q 383 -199 363 -217 q 418 -160 404 -182 q 441 -113 432 -137 q 454 -64 450 -89 l 465 0 l 446 0 l 228 940 q 184 674 206 807 q 140 408 163 542 l 74 0 l 18 0 l 186 1021 l 261 1021 l 479 81 q 523 347 501 214 q 567 613 544 479 l 633 1021 l 689 1021 l 510 -64 q 494 -126 504 -96 q 465 -185 483 -157 q 422 -237 447 -214 q 365 -274 396 -260 q 302 -293 333 -287 q 239 -299 271 -299 l 211 -299 z "},"":{"ha":694,"x_min":17,"x_max":601,"o":"m 211 -299 l 211 -247 l 239 -247 q 289 -243 264 -247 q 338 -228 314 -239 q 383 -199 363 -217 q 418 -160 404 -182 q 441 -113 432 -137 q 454 -64 450 -89 l 536 432 q 543 491 542 461 q 540 550 544 521 q 522 604 535 579 q 488 648 510 629 q 439 674 467 667 q 381 682 411 682 q 325 676 353 682 q 271 656 297 671 q 223 619 244 642 q 187 572 201 597 q 163 518 172 546 q 150 463 154 490 l 74 0 l 18 0 l 138 722 l 193 722 l 172 597 q 214 655 190 628 q 268 700 238 682 q 332 726 299 718 q 399 733 365 733 q 471 724 436 733 q 531 691 506 714 q 573 637 557 668 q 594 570 589 606 q 599 497 600 535 q 590 424 597 460 l 510 -64 q 494 -126 504 -96 q 465 -185 483 -157 q 422 -237 447 -214 q 365 -274 396 -260 q 302 -293 333 -287 q 239 -299 271 -299 l 211 -299 z "},"":{"ha":694,"x_min":46,"x_max":682,"o":"m 276 -11 q 201 -3 238 -11 q 134 25 164 6 q 84 75 104 44 q 56 141 64 106 q 48 215 47 176 q 54 292 49 254 l 135 771 q 151 840 140 806 q 183 905 163 874 q 231 962 203 936 q 292 1003 258 988 q 361 1026 325 1019 q 431 1032 397 1032 q 506 1024 469 1032 q 573 996 543 1015 q 623 946 603 976 q 651 880 643 915 q 659 806 660 844 q 653 729 658 767 l 574 250 q 556 181 567 215 q 524 116 544 147 q 476 59 504 85 q 415 17 449 33 q 346 -5 382 1 q 276 -11 310 -11 m 278 40 q 335 45 306 40 q 390 64 364 50 q 440 99 417 78 q 478 147 463 121 q 504 201 494 172 q 519 258 514 229 l 599 738 q 603 797 603 767 q 598 856 604 828 q 578 909 592 885 q 541 950 564 933 q 490 974 518 967 q 431 981 461 981 q 373 976 403 981 q 317 957 343 971 q 267 922 290 943 q 228 874 244 900 q 203 820 213 849 q 189 763 193 792 l 108 283 q 103 224 104 254 q 109 165 103 193 q 129 112 115 136 q 166 71 143 88 q 218 47 189 54 q 278 40 247 40 m 265 1204 l 265 1254 l 682 1254 l 682 1204 l 265 1204 z "},"":{"ha":694,"x_min":47,"x_max":632,"o":"m 276 -11 q 200 -3 238 -11 q 133 26 163 6 q 84 78 103 47 q 56 146 65 110 q 49 221 47 182 q 56 299 50 260 l 83 465 q 101 536 89 501 q 132 602 113 571 q 179 660 151 633 q 240 703 207 686 q 310 726 274 719 q 381 733 346 733 q 457 725 419 733 q 524 696 494 717 q 574 644 554 675 q 601 576 593 613 q 609 501 610 540 q 601 424 608 463 l 574 257 q 557 186 568 221 q 526 120 546 151 q 478 63 506 89 q 417 19 450 36 q 347 -4 383 3 q 276 -11 311 -11 m 278 40 q 335 46 306 40 q 392 66 365 51 q 442 103 419 81 q 481 151 465 125 q 506 207 496 178 q 519 265 515 236 l 547 432 q 553 493 553 463 q 549 553 554 524 q 529 607 543 582 q 492 650 515 632 q 441 675 469 668 q 381 682 413 682 q 323 676 353 682 q 265 656 293 671 q 215 619 238 642 q 178 571 193 597 q 153 515 163 544 q 138 457 143 486 l 110 290 q 104 229 106 260 q 108 169 103 199 q 128 115 114 140 q 165 72 142 90 q 217 47 188 54 q 278 40 246 40 m 215 906 l 215 956 l 632 956 l 632 906 l 215 906 z "},"":{"ha":694,"x_min":46,"x_max":683,"o":"m 276 -11 q 201 -3 238 -11 q 134 25 164 6 q 84 75 104 44 q 56 141 64 106 q 48 215 47 176 q 54 292 49 254 l 135 771 q 151 840 140 806 q 183 905 163 874 q 231 962 203 936 q 292 1003 258 988 q 361 1026 325 1019 q 431 1032 397 1032 q 506 1024 469 1032 q 573 996 543 1015 q 623 946 603 976 q 651 880 643 915 q 659 806 660 844 q 653 729 658 767 l 574 250 q 556 181 567 215 q 524 116 544 147 q 476 59 504 85 q 415 17 449 33 q 346 -5 382 1 q 276 -11 310 -11 m 278 40 q 335 45 306 40 q 390 64 364 50 q 440 99 417 78 q 478 147 463 121 q 504 201 494 172 q 519 258 514 229 l 599 738 q 603 797 603 767 q 598 856 604 828 q 578 909 592 885 q 541 950 564 933 q 490 974 518 967 q 431 981 461 981 q 373 976 403 981 q 317 957 343 971 q 267 922 290 943 q 228 874 244 900 q 203 820 213 849 q 189 763 193 792 l 108 283 q 103 224 104 254 q 109 165 103 193 q 129 112 115 136 q 166 71 143 88 q 218 47 189 54 q 278 40 247 40 m 457 1132 q 382 1144 418 1132 q 322 1183 346 1156 q 294 1249 299 1211 q 294 1326 289 1288 l 350 1326 q 349 1269 346 1297 q 367 1221 351 1242 q 410 1191 383 1200 q 465 1182 436 1182 q 524 1191 494 1182 q 576 1221 553 1200 q 611 1269 599 1242 q 628 1326 624 1297 l 683 1326 q 659 1249 678 1288 q 608 1183 640 1211 q 536 1144 576 1156 q 457 1132 496 1132 z "},"":{"ha":694,"x_min":47,"x_max":635,"o":"m 276 -11 q 200 -3 238 -11 q 133 26 163 6 q 84 78 103 47 q 56 146 65 110 q 49 221 47 182 q 56 299 50 260 l 83 465 q 101 536 89 501 q 132 602 113 571 q 179 660 151 633 q 240 703 207 686 q 310 726 274 719 q 381 733 346 733 q 457 725 419 733 q 524 696 494 717 q 574 644 554 675 q 601 576 593 613 q 609 501 610 540 q 601 424 608 463 l 574 257 q 557 186 568 221 q 526 120 546 151 q 478 63 506 89 q 417 19 450 36 q 347 -4 383 3 q 276 -11 311 -11 m 278 40 q 335 46 306 40 q 392 66 365 51 q 442 103 419 81 q 481 151 465 125 q 506 207 496 178 q 519 265 515 236 l 547 432 q 553 493 553 463 q 549 553 554 524 q 529 607 543 582 q 492 650 515 632 q 441 675 469 668 q 381 682 413 682 q 323 676 353 682 q 265 656 293 671 q 215 619 238 642 q 178 571 193 597 q 153 515 163 544 q 138 457 143 486 l 110 290 q 104 229 106 260 q 108 169 103 199 q 128 115 114 140 q 165 72 142 90 q 217 47 188 54 q 278 40 246 40 m 407 833 q 332 845 368 833 q 272 885 296 857 q 244 951 249 913 q 244 1028 239 989 l 300 1028 q 299 971 296 999 q 317 922 301 943 q 360 892 333 901 q 415 883 386 883 q 474 892 444 883 q 526 922 503 901 q 561 971 549 943 q 578 1028 574 999 l 633 1028 q 609 951 628 989 q 558 885 590 913 q 486 845 526 857 q 407 833 446 833 z "},"":{"ha":694,"x_min":46,"x_max":767,"o":"m 276 -11 q 201 -3 238 -11 q 134 25 164 6 q 84 75 104 44 q 56 141 64 106 q 48 215 47 176 q 54 292 49 254 l 135 771 q 151 840 140 806 q 183 905 163 874 q 231 962 203 936 q 292 1003 258 988 q 361 1026 325 1019 q 431 1032 397 1032 q 506 1024 469 1032 q 573 996 543 1015 q 623 946 603 976 q 651 880 643 915 q 659 806 660 844 q 653 729 658 767 l 574 250 q 556 181 567 215 q 524 116 544 147 q 476 59 504 85 q 415 17 449 33 q 346 -5 382 1 q 276 -11 310 -11 m 278 40 q 335 45 306 40 q 390 64 364 50 q 440 99 417 78 q 478 147 463 121 q 504 201 494 172 q 519 258 514 229 l 599 738 q 603 797 603 767 q 598 856 604 828 q 578 909 592 885 q 541 950 564 933 q 490 974 518 967 q 431 981 461 981 q 373 976 403 981 q 317 957 343 971 q 267 922 290 943 q 228 874 244 900 q 203 820 213 849 q 189 763 193 792 l 108 283 q 103 224 104 254 q 109 165 103 193 q 129 112 115 136 q 166 71 143 88 q 218 47 189 54 q 278 40 247 40 m 565 1117 l 531 1147 l 726 1346 l 767 1307 l 565 1117 m 329 1117 l 294 1147 l 490 1346 l 531 1307 l 329 1117 z "},"":{"ha":694,"x_min":47,"x_max":717,"o":"m 276 -11 q 200 -3 238 -11 q 133 26 163 6 q 84 78 103 47 q 56 146 65 110 q 49 221 47 182 q 56 299 50 260 l 83 465 q 101 536 89 501 q 132 602 113 571 q 179 660 151 633 q 240 703 207 686 q 310 726 274 719 q 381 733 346 733 q 457 725 419 733 q 524 696 494 717 q 574 644 554 675 q 601 576 593 613 q 609 501 610 540 q 601 424 608 463 l 574 257 q 557 186 568 221 q 526 120 546 151 q 478 63 506 89 q 417 19 450 36 q 347 -4 383 3 q 276 -11 311 -11 m 278 40 q 335 46 306 40 q 392 66 365 51 q 442 103 419 81 q 481 151 465 125 q 506 207 496 178 q 519 265 515 236 l 547 432 q 553 493 553 463 q 549 553 554 524 q 529 607 543 582 q 492 650 515 632 q 441 675 469 668 q 381 682 413 682 q 323 676 353 682 q 265 656 293 671 q 215 619 238 642 q 178 571 193 597 q 153 515 163 544 q 138 457 143 486 l 110 290 q 104 229 106 260 q 108 169 103 199 q 128 115 114 140 q 165 72 142 90 q 217 47 188 54 q 278 40 246 40 m 515 818 l 481 849 l 676 1047 l 717 1008 l 515 818 m 279 818 l 244 849 l 440 1047 l 481 1008 l 279 818 z "},"":{"ha":694,"x_min":42,"x_max":696,"o":"m 256 0 l 424 1021 l 694 1021 l 686 971 l 471 971 l 403 556 l 606 556 l 597 506 l 394 506 l 319 50 l 535 50 l 526 0 l 256 0 m 256 0 q 185 8 219 0 q 122 36 150 17 q 75 85 93 56 q 49 148 57 114 q 42 219 42 182 q 49 292 43 256 l 129 771 q 147 839 135 806 q 178 902 158 872 q 228 956 199 932 q 290 995 257 981 q 356 1015 322 1010 q 424 1021 390 1021 l 415 971 q 360 966 388 971 q 307 948 333 961 q 258 915 281 935 q 220 869 236 894 q 196 817 204 844 q 183 764 188 790 l 104 285 q 97 226 99 256 q 103 170 96 197 q 123 119 110 143 q 158 80 136 96 q 207 57 179 64 q 264 50 235 50 l 256 0 z "},"":{"ha":694,"x_min":26,"x_max":631,"o":"m 156 -11 q 108 -3 131 -11 q 69 20 85 4 q 44 58 53 36 q 31 103 35 79 q 29 151 28 126 q 35 200 31 176 l 92 550 q 102 594 96 572 q 118 636 108 615 q 142 676 128 657 q 176 708 157 694 q 217 727 196 721 q 261 733 239 733 q 298 729 281 733 q 331 716 315 725 q 357 694 346 707 q 375 664 368 681 q 400 693 386 679 q 431 716 414 707 q 465 729 447 725 q 501 733 483 733 q 549 726 526 733 q 588 702 571 718 q 613 665 604 686 q 626 619 622 643 q 629 571 631 596 q 624 522 628 546 l 593 336 l 353 336 l 329 193 q 325 158 326 175 q 324 126 324 142 q 329 94 325 110 q 342 65 333 78 q 365 46 351 53 q 396 39 379 39 q 428 45 413 39 q 457 64 444 51 q 478 91 469 76 q 492 121 486 106 q 503 151 499 136 q 511 183 508 167 l 511 188 l 565 188 l 564 181 q 553 137 561 158 q 536 94 546 115 q 513 53 526 72 q 479 18 499 33 q 437 -4 460 3 q 392 -11 414 -11 q 356 -7 374 -11 q 325 6 339 -3 q 301 28 311 15 q 283 57 290 42 q 258 28 272 42 q 227 6 244 15 q 192 -7 210 -3 q 156 -11 174 -11 m 546 386 l 569 529 q 574 564 572 547 q 574 597 575 581 q 569 628 574 613 q 556 657 565 644 q 533 676 547 669 q 501 683 518 683 q 469 678 485 683 q 441 660 454 672 q 419 634 428 649 q 403 604 410 619 q 393 574 397 589 q 386 542 389 558 l 361 386 l 546 386 m 156 39 q 188 44 172 39 q 217 62 204 50 q 239 88 229 74 q 255 118 249 103 q 265 149 261 133 q 271 181 268 164 l 329 529 q 333 564 332 547 q 334 597 335 581 q 329 628 333 613 q 317 657 325 644 q 293 676 308 669 q 261 683 278 683 q 230 678 246 683 q 201 660 214 672 q 179 634 188 649 q 164 604 171 619 q 153 574 157 589 q 146 542 149 558 l 89 193 q 85 158 86 175 q 84 126 83 142 q 89 94 85 110 q 101 65 93 78 q 124 46 110 53 q 156 39 139 39 z "},"":{"ha":694,"x_min":17,"x_max":658,"o":"m 554 0 l 496 0 l 331 453 l 149 453 l 74 0 l 18 0 l 186 1021 l 439 1021 q 513 1013 476 1021 q 577 983 549 1004 q 624 932 606 963 q 650 866 642 901 q 658 793 658 831 q 650 718 657 756 q 635 654 644 686 q 610 592 626 622 q 569 535 593 561 q 515 492 544 510 q 453 464 485 474 q 389 453 421 454 l 554 0 m 157 503 l 364 503 q 421 509 393 503 q 476 530 449 515 q 524 567 503 544 q 559 616 544 590 q 583 670 574 642 q 596 726 592 699 q 602 785 601 756 q 598 843 603 815 q 580 896 593 871 q 545 938 567 921 q 497 962 524 954 q 439 969 469 969 l 233 969 l 157 503 m 447 1117 l 413 1147 l 589 1344 l 632 1308 l 447 1117 z "},"":{"ha":694,"x_min":100,"x_max":639,"o":"m 101 0 l 221 722 l 276 722 l 250 565 q 290 631 267 600 q 344 687 314 663 q 410 722 374 711 q 482 733 446 733 q 554 722 519 733 q 610 683 589 711 q 634 619 631 656 q 632 544 638 582 l 576 544 q 578 597 581 571 q 563 644 576 624 q 524 673 549 664 q 474 682 500 682 q 408 672 442 682 q 347 642 375 663 q 298 592 319 621 q 261 533 276 564 q 238 469 246 501 q 224 404 229 436 l 157 0 l 101 0 m 413 818 l 378 849 l 554 1046 l 597 1010 l 413 818 z "},"":{"ha":694,"x_min":17,"x_max":658,"o":"m 554 0 l 496 0 l 331 453 l 149 453 l 74 0 l 18 0 l 186 1021 l 439 1021 q 513 1013 476 1021 q 577 983 549 1004 q 624 932 606 963 q 650 866 642 901 q 658 793 658 831 q 650 718 657 756 q 635 654 644 686 q 610 592 626 622 q 569 535 593 561 q 515 492 544 510 q 453 464 485 474 q 389 453 421 454 l 554 0 m 157 503 l 364 503 q 421 509 393 503 q 476 530 449 515 q 524 567 503 544 q 559 616 544 590 q 583 670 574 642 q 596 726 592 699 q 602 785 601 756 q 598 843 603 815 q 580 896 593 871 q 545 938 567 921 q 497 962 524 954 q 439 969 469 969 l 233 969 l 157 503 m 207 -319 l 172 -292 q 210 -235 194 -265 q 235 -172 225 -204 q 219 -169 226 -172 q 208 -159 213 -165 q 202 -144 204 -153 q 201 -128 200 -136 q 208 -109 204 -118 q 220 -94 213 -100 q 237 -85 228 -87 q 256 -82 246 -82 q 273 -85 265 -82 q 287 -94 281 -87 q 294 -109 293 -100 q 293 -128 296 -118 q 265 -228 286 -178 q 207 -319 244 -278 z "},"":{"ha":694,"x_min":32,"x_max":639,"o":"m 101 0 l 221 722 l 276 722 l 250 565 q 290 631 267 600 q 344 687 314 663 q 410 722 374 711 q 482 733 446 733 q 554 722 519 733 q 610 683 589 711 q 634 619 631 656 q 632 544 638 582 l 576 544 q 578 597 581 571 q 563 644 576 624 q 524 673 549 664 q 474 682 500 682 q 408 672 442 682 q 347 642 375 663 q 298 592 319 621 q 261 533 276 564 q 238 469 246 501 q 224 404 229 436 l 157 0 l 101 0 m 67 -319 l 32 -292 q 69 -235 54 -265 q 94 -172 85 -204 q 79 -169 86 -172 q 68 -159 72 -165 q 62 -144 64 -153 q 61 -128 60 -136 q 68 -109 64 -118 q 80 -94 72 -100 q 97 -85 88 -87 q 115 -82 106 -82 q 133 -85 125 -82 q 147 -94 140 -87 q 154 -109 153 -100 q 153 -128 156 -118 q 125 -228 146 -178 q 67 -319 104 -278 z "},"":{"ha":694,"x_min":17,"x_max":663,"o":"m 554 0 l 496 0 l 331 453 l 149 453 l 74 0 l 18 0 l 186 1021 l 439 1021 q 513 1013 476 1021 q 577 983 549 1004 q 624 932 606 963 q 650 866 642 901 q 658 793 658 831 q 650 718 657 756 q 635 654 644 686 q 610 592 626 622 q 569 535 593 561 q 515 492 544 510 q 453 464 485 474 q 389 453 421 454 l 554 0 m 157 503 l 364 503 q 421 509 393 503 q 476 530 449 515 q 524 567 503 544 q 559 616 544 590 q 583 670 574 642 q 596 726 592 699 q 602 785 601 756 q 598 843 603 815 q 580 896 593 871 q 545 938 567 921 q 497 962 524 954 q 439 969 469 969 l 233 969 l 157 503 m 421 1132 l 317 1325 l 361 1349 l 465 1179 l 624 1353 l 663 1321 l 493 1132 l 421 1132 z "}}}
